<ttFont>
    <TTGlyph name="A" xMin="-20" yMin="-33" xMax="635" yMax="805">
      <contour>
        <pt x="505" y="-16" on="0"/>
        <pt x="471" y="21" on="0"/>
        <pt x="447" y="96" on="0"/>
        <pt x="412" y="260" on="1"/>
        <pt x="389" y="240" on="0"/>
        <pt x="337" y="238" on="1"/>
        <pt x="166" y="232" on="1"/>
        <pt x="105" y="83" on="0"/>
        <pt x="76" y="-33" on="1"/>
        <pt x="-20" y="1" on="0"/>
        <pt x="-20" y="44" on="1"/>
        <pt x="-20" y="63" on="0"/>
        <pt x="96" y="309" on="0"/>
        <pt x="243" y="622" on="0"/>
        <pt x="269" y="693" on="1"/>
        <pt x="287" y="742" on="1"/>
        <pt x="279" y="756" on="0"/>
        <pt x="248" y="793" on="1"/>
        <pt x="284" y="805" on="0"/>
        <pt x="337" y="805" on="0"/>
        <pt x="372" y="797" on="0"/>
        <pt x="399" y="778" on="0"/>
        <pt x="420" y="758" on="0"/>
        <pt x="438" y="719" on="0"/>
        <pt x="450" y="688" on="0"/>
        <pt x="465" y="632" on="0"/>
        <pt x="474" y="591" on="0"/>
        <pt x="489" y="518" on="0"/>
        <pt x="505" y="450" on="0"/>
        <pt x="545" y="259" on="0"/>
        <pt x="568" y="164" on="0"/>
        <pt x="611" y="46" on="0"/>
        <pt x="635" y="12" on="1"/>
        <pt x="577" y="-16" on="0"/>
      </contour>
      <contour>
        <pt x="333" y="609" on="1"/>
        <pt x="319" y="577" on="0"/>
        <pt x="224" y="368" on="0"/>
        <pt x="198" y="306" on="1"/>
        <pt x="403" y="306" on="1"/>
        <pt x="356" y="522" on="0"/>
      </contour>
    </TTGlyph>
    <TTGlyph name="AE" xMin="-25" yMin="-33" xMax="926" yMax="799">
      <contour>
        <pt x="722" y="334" on="1"/>
        <pt x="626" y="335" on="1"/>
        <pt x="586" y="335" on="0"/>
        <pt x="559" y="334" on="1"/>
        <pt x="544" y="201" on="0"/>
        <pt x="543" y="106" on="1"/>
        <pt x="778" y="106" on="0"/>
        <pt x="892" y="144" on="1"/>
        <pt x="883" y="70" on="0"/>
        <pt x="811" y="-12" on="0"/>
        <pt x="757" y="-12" on="1"/>
        <pt x="741" y="-12" on="0"/>
        <pt x="579" y="5" on="0"/>
        <pt x="428" y="5" on="0"/>
        <pt x="352" y="-12" on="1"/>
        <pt x="363" y="35" on="0"/>
        <pt x="400" y="65" on="1"/>
        <pt x="400" y="69" on="1"/>
        <pt x="400" y="126" on="0"/>
        <pt x="430" y="329" on="1"/>
        <pt x="308" y="320" on="0"/>
        <pt x="260" y="299" on="1"/>
        <pt x="258" y="321" on="0"/>
        <pt x="258" y="332" on="1"/>
        <pt x="258" y="387" on="0"/>
        <pt x="327" y="425" on="0"/>
        <pt x="392" y="425" on="1"/>
        <pt x="443" y="425" on="1"/>
        <pt x="464" y="581" on="0"/>
        <pt x="467" y="685" on="1"/>
        <pt x="432" y="690" on="0"/>
        <pt x="412" y="695" on="1"/>
        <pt x="387" y="634" on="0"/>
        <pt x="315" y="498" on="1"/>
        <pt x="124" y="135" on="0"/>
        <pt x="71" y="-33" on="1"/>
        <pt x="-25" y="1" on="0"/>
        <pt x="-25" y="44" on="1"/>
        <pt x="-25" y="64" on="0"/>
        <pt x="103" y="304" on="0"/>
        <pt x="275" y="615" on="0"/>
        <pt x="306" y="681" on="1"/>
        <pt x="358" y="790" on="1"/>
        <pt x="471" y="775" on="0"/>
        <pt x="800" y="775" on="0"/>
        <pt x="926" y="799" on="1"/>
        <pt x="914" y="716" on="0"/>
        <pt x="850" y="688" on="1"/>
        <pt x="797" y="666" on="0"/>
        <pt x="648" y="666" on="0"/>
        <pt x="600" y="670" on="1"/>
        <pt x="599" y="643" on="0"/>
        <pt x="569" y="422" on="1"/>
        <pt x="653" y="422" on="1"/>
        <pt x="748" y="422" on="0"/>
        <pt x="788" y="455" on="1"/>
        <pt x="790" y="435" on="0"/>
        <pt x="790" y="425" on="1"/>
        <pt x="790" y="334" on="0"/>
      </contour>
    </TTGlyph>
    <TTGlyph name="Aacute" xMin="-20" yMin="-33" xMax="635" yMax="1096">
      <component glyphName="A" x="0" y="0" flags="0x1004"/>
      <component glyphName="acute" x="143" y="229" flags="0x1004"/>
    </TTGlyph>
    <TTGlyph name="Acircumflex" xMin="-20" yMin="-33" xMax="635" yMax="1102">
      <component glyphName="A" x="0" y="0" flags="0x1004"/>
      <component glyphName="circumflex" x="101" y="229" flags="0x1004"/>
    </TTGlyph>
    <TTGlyph name="Adieresis" xMin="-20" yMin="-33" xMax="635" yMax="1043">
      <contour>
        <pt x="505" y="-16" on="0"/>
        <pt x="471" y="21" on="0"/>
        <pt x="447" y="96" on="0"/>
        <pt x="412" y="260" on="1"/>
        <pt x="389" y="240" on="0"/>
        <pt x="337" y="238" on="1"/>
        <pt x="166" y="232" on="1"/>
        <pt x="105" y="83" on="0"/>
        <pt x="76" y="-33" on="1"/>
        <pt x="-20" y="1" on="0"/>
        <pt x="-20" y="44" on="1"/>
        <pt x="-20" y="63" on="0"/>
        <pt x="96" y="309" on="0"/>
        <pt x="243" y="622" on="0"/>
        <pt x="269" y="693" on="1"/>
        <pt x="287" y="742" on="1"/>
        <pt x="279" y="756" on="0"/>
        <pt x="248" y="793" on="1"/>
        <pt x="284" y="805" on="0"/>
        <pt x="337" y="805" on="0"/>
        <pt x="372" y="797" on="0"/>
        <pt x="399" y="778" on="0"/>
        <pt x="420" y="758" on="0"/>
        <pt x="438" y="719" on="0"/>
        <pt x="450" y="688" on="0"/>
        <pt x="465" y="632" on="0"/>
        <pt x="474" y="591" on="0"/>
        <pt x="489" y="518" on="0"/>
        <pt x="505" y="450" on="0"/>
        <pt x="545" y="259" on="0"/>
        <pt x="568" y="164" on="0"/>
        <pt x="611" y="46" on="0"/>
        <pt x="635" y="12" on="1"/>
        <pt x="577" y="-16" on="0"/>
      </contour>
      <contour>
        <pt x="333" y="609" on="1"/>
        <pt x="319" y="577" on="0"/>
        <pt x="224" y="368" on="0"/>
        <pt x="198" y="306" on="1"/>
        <pt x="403" y="306" on="1"/>
        <pt x="356" y="522" on="0"/>
      </contour>
      <contour>
        <pt x="335" y="900" on="1"/>
        <pt x="307" y="896" on="0"/>
        <pt x="286" y="896" on="1"/>
        <pt x="183" y="896" on="0"/>
        <pt x="183" y="968" on="1"/>
        <pt x="183" y="994" on="0"/>
        <pt x="198" y="1039" on="1"/>
        <pt x="226" y="1043" on="0"/>
        <pt x="247" y="1043" on="1"/>
        <pt x="350" y="1043" on="0"/>
        <pt x="350" y="971" on="1"/>
        <pt x="350" y="945" on="0"/>
      </contour>
      <contour>
        <pt x="545" y="900" on="1"/>
        <pt x="517" y="896" on="0"/>
        <pt x="496" y="896" on="1"/>
        <pt x="393" y="896" on="0"/>
        <pt x="393" y="968" on="1"/>
        <pt x="393" y="994" on="0"/>
        <pt x="408" y="1039" on="1"/>
        <pt x="436" y="1043" on="0"/>
        <pt x="457" y="1043" on="1"/>
        <pt x="560" y="1043" on="0"/>
        <pt x="560" y="971" on="1"/>
        <pt x="560" y="945" on="0"/>
      </contour>
    </TTGlyph>
    <TTGlyph name="Agrave" xMin="-20" yMin="-33" xMax="635" yMax="1096">
      <component glyphName="A" x="0" y="0" flags="0x1004"/>
      <component glyphName="grave" x="149" y="229" flags="0x1004"/>
    </TTGlyph>
    <TTGlyph name="Aring" xMin="-20" yMin="-33" xMax="635" yMax="1091">
      <component glyphName="A" x="0" y="0" flags="0x1004"/>
      <component glyphName="ring" x="153" y="229" flags="0x1004"/>
    </TTGlyph>
    <TTGlyph name="Atilde" xMin="-20" yMin="-33" xMax="635" yMax="1047">
      <contour>
        <pt x="505" y="-16" on="0"/>
        <pt x="471" y="21" on="0"/>
        <pt x="447" y="96" on="0"/>
        <pt x="412" y="260" on="1"/>
        <pt x="389" y="240" on="0"/>
        <pt x="337" y="238" on="1"/>
        <pt x="166" y="232" on="1"/>
        <pt x="105" y="83" on="0"/>
        <pt x="76" y="-33" on="1"/>
        <pt x="-20" y="1" on="0"/>
        <pt x="-20" y="44" on="1"/>
        <pt x="-20" y="63" on="0"/>
        <pt x="96" y="309" on="0"/>
        <pt x="243" y="622" on="0"/>
        <pt x="269" y="693" on="1"/>
        <pt x="287" y="742" on="1"/>
        <pt x="279" y="756" on="0"/>
        <pt x="248" y="793" on="1"/>
        <pt x="284" y="805" on="0"/>
        <pt x="337" y="805" on="0"/>
        <pt x="372" y="797" on="0"/>
        <pt x="399" y="778" on="0"/>
        <pt x="420" y="758" on="0"/>
        <pt x="438" y="719" on="0"/>
        <pt x="450" y="688" on="0"/>
        <pt x="465" y="632" on="0"/>
        <pt x="474" y="591" on="0"/>
        <pt x="489" y="518" on="0"/>
        <pt x="505" y="450" on="0"/>
        <pt x="545" y="259" on="0"/>
        <pt x="568" y="164" on="0"/>
        <pt x="611" y="46" on="0"/>
        <pt x="635" y="12" on="1"/>
        <pt x="577" y="-16" on="0"/>
      </contour>
      <contour>
        <pt x="333" y="609" on="1"/>
        <pt x="319" y="577" on="0"/>
        <pt x="224" y="368" on="0"/>
        <pt x="198" y="306" on="1"/>
        <pt x="403" y="306" on="1"/>
        <pt x="356" y="522" on="0"/>
      </contour>
      <contour>
        <pt x="536" y="954" on="0"/>
        <pt x="479" y="894" on="0"/>
        <pt x="413" y="894" on="0"/>
        <pt x="318" y="922" on="0"/>
        <pt x="299" y="922" on="1"/>
        <pt x="251" y="922" on="0"/>
        <pt x="224" y="879" on="1"/>
        <pt x="201" y="883" on="0"/>
        <pt x="197" y="903" on="1"/>
        <pt x="205" y="972" on="0"/>
        <pt x="262" y="1032" on="0"/>
        <pt x="328" y="1032" on="0"/>
        <pt x="423" y="1004" on="0"/>
        <pt x="442" y="1004" on="1"/>
        <pt x="490" y="1004" on="0"/>
        <pt x="517" y="1047" on="1"/>
        <pt x="540" y="1043" on="0"/>
        <pt x="544" y="1023" on="1"/>
      </contour>
    </TTGlyph>
    <TTGlyph name="B" xMin="75" yMin="-24" xMax="619" yMax="847">
      <contour>
        <pt x="75" y="53" on="1"/>
        <pt x="76" y="61" on="0"/>
        <pt x="97" y="202" on="1"/>
        <pt x="141" y="496" on="0"/>
        <pt x="141" y="735" on="1"/>
        <pt x="141" y="814" on="0"/>
        <pt x="127" y="847" on="1"/>
        <pt x="234" y="819" on="0"/>
        <pt x="261" y="759" on="1"/>
        <pt x="338" y="802" on="0"/>
        <pt x="510" y="802" on="0"/>
        <pt x="619" y="705" on="0"/>
        <pt x="619" y="566" on="0"/>
        <pt x="519" y="447" on="0"/>
        <pt x="432" y="418" on="1"/>
        <pt x="502" y="403" on="0"/>
        <pt x="619" y="298" on="0"/>
        <pt x="619" y="221" on="1"/>
        <pt x="619" y="103" on="0"/>
        <pt x="444" y="-24" on="0"/>
        <pt x="177" y="-24" on="0"/>
      </contour>
      <contour>
        <pt x="478" y="657" on="0"/>
        <pt x="422" y="718" on="0"/>
        <pt x="320" y="718" on="0"/>
        <pt x="273" y="697" on="1"/>
        <pt x="273" y="636" on="0"/>
        <pt x="220" y="144" on="0"/>
        <pt x="220" y="75" on="1"/>
        <pt x="264" y="57" on="0"/>
        <pt x="305" y="57" on="1"/>
        <pt x="376" y="57" on="0"/>
        <pt x="468" y="151" on="0"/>
        <pt x="468" y="293" on="0"/>
        <pt x="372" y="388" on="0"/>
        <pt x="286" y="392" on="1"/>
        <pt x="283" y="428" on="1"/>
        <pt x="375" y="441" on="0"/>
        <pt x="478" y="550" on="0"/>
        <pt x="478" y="612" on="1"/>
      </contour>
    </TTGlyph>
    <TTGlyph name="C" xMin="45" yMin="-15" xMax="652" yMax="806">
      <contour>
        <pt x="584" y="205" on="1"/>
        <pt x="621" y="197" on="0"/>
        <pt x="621" y="168" on="1"/>
        <pt x="583" y="99" on="0"/>
        <pt x="473" y="13" on="0"/>
        <pt x="375" y="-15" on="0"/>
        <pt x="323" y="-15" on="1"/>
        <pt x="205" y="-15" on="0"/>
        <pt x="45" y="165" on="0"/>
        <pt x="45" y="337" on="1"/>
        <pt x="45" y="529" on="0"/>
        <pt x="144" y="664" on="1"/>
        <pt x="193" y="729" on="0"/>
        <pt x="346" y="806" on="0"/>
        <pt x="547" y="806" on="0"/>
        <pt x="652" y="699" on="0"/>
        <pt x="652" y="554" on="0"/>
        <pt x="572" y="463" on="0"/>
        <pt x="508" y="463" on="1"/>
        <pt x="486" y="463" on="0"/>
        <pt x="457" y="471" on="1"/>
        <pt x="478" y="497" on="0"/>
        <pt x="510" y="593" on="0"/>
        <pt x="510" y="679" on="0"/>
        <pt x="470" y="733" on="0"/>
        <pt x="427" y="733" on="1"/>
        <pt x="361" y="733" on="0"/>
        <pt x="255" y="611" on="0"/>
        <pt x="203" y="433" on="0"/>
        <pt x="203" y="338" on="1"/>
        <pt x="203" y="210" on="0"/>
        <pt x="303" y="78" on="0"/>
        <pt x="381" y="78" on="1"/>
        <pt x="430" y="78" on="0"/>
        <pt x="536" y="144" on="0"/>
      </contour>
    </TTGlyph>
    <TTGlyph name="Ccedilla" xMin="45" yMin="-323" xMax="652" yMax="806">
      <contour>
        <pt x="584" y="205" on="1"/>
        <pt x="621" y="197" on="0"/>
        <pt x="621" y="168" on="1"/>
        <pt x="583" y="99" on="0"/>
        <pt x="473" y="13" on="0"/>
        <pt x="375" y="-15" on="0"/>
        <pt x="323" y="-15" on="1"/>
        <pt x="205" y="-15" on="0"/>
        <pt x="45" y="165" on="0"/>
        <pt x="45" y="337" on="1"/>
        <pt x="45" y="529" on="0"/>
        <pt x="144" y="664" on="1"/>
        <pt x="193" y="729" on="0"/>
        <pt x="346" y="806" on="0"/>
        <pt x="547" y="806" on="0"/>
        <pt x="652" y="699" on="0"/>
        <pt x="652" y="554" on="0"/>
        <pt x="572" y="463" on="0"/>
        <pt x="508" y="463" on="1"/>
        <pt x="486" y="463" on="0"/>
        <pt x="457" y="471" on="1"/>
        <pt x="478" y="497" on="0"/>
        <pt x="510" y="593" on="0"/>
        <pt x="510" y="679" on="0"/>
        <pt x="470" y="733" on="0"/>
        <pt x="427" y="733" on="1"/>
        <pt x="361" y="733" on="0"/>
        <pt x="255" y="611" on="0"/>
        <pt x="203" y="433" on="0"/>
        <pt x="203" y="338" on="1"/>
        <pt x="203" y="210" on="0"/>
        <pt x="303" y="78" on="0"/>
        <pt x="381" y="78" on="1"/>
        <pt x="430" y="78" on="0"/>
        <pt x="536" y="144" on="0"/>
      </contour>
      <contour>
        <pt x="250" y="-40" on="1"/>
        <pt x="318" y="-44" on="0"/>
        <pt x="382" y="-105" on="0"/>
        <pt x="382" y="-209" on="0"/>
        <pt x="307" y="-305" on="0"/>
        <pt x="244" y="-323" on="1"/>
        <pt x="190" y="-303" on="0"/>
        <pt x="190" y="-238" on="1"/>
        <pt x="238" y="-229" on="0"/>
        <pt x="293" y="-178" on="0"/>
        <pt x="293" y="-146" on="1"/>
        <pt x="293" y="-98" on="0"/>
        <pt x="234" y="-77" on="1"/>
        <pt x="235" y="-58" on="0"/>
      </contour>
    </TTGlyph>
    <TTGlyph name="D" xMin="75" yMin="-15" xMax="724" yMax="847">
      <contour>
        <pt x="261" y="759" on="1"/>
        <pt x="350" y="802" on="0"/>
        <pt x="428" y="802" on="1"/>
        <pt x="566" y="802" on="0"/>
        <pt x="724" y="584" on="0"/>
        <pt x="724" y="419" on="1"/>
        <pt x="724" y="282" on="0"/>
        <pt x="663" y="175" on="1"/>
        <pt x="595" y="56" on="0"/>
        <pt x="472" y="10" on="1"/>
        <pt x="405" y="-15" on="0"/>
        <pt x="257" y="-15" on="0"/>
        <pt x="132" y="19" on="0"/>
        <pt x="104" y="36" on="1"/>
        <pt x="75" y="53" on="1"/>
        <pt x="76" y="61" on="0"/>
        <pt x="97" y="202" on="1"/>
        <pt x="141" y="496" on="0"/>
        <pt x="141" y="735" on="1"/>
        <pt x="141" y="814" on="0"/>
        <pt x="127" y="847" on="1"/>
        <pt x="234" y="819" on="0"/>
      </contour>
      <contour>
        <pt x="221" y="75" on="1"/>
        <pt x="260" y="60" on="0"/>
        <pt x="308" y="60" on="1"/>
        <pt x="395" y="60" on="0"/>
        <pt x="522" y="172" on="0"/>
        <pt x="579" y="334" on="0"/>
        <pt x="579" y="425" on="1"/>
        <pt x="579" y="553" on="0"/>
        <pt x="469" y="715" on="0"/>
        <pt x="376" y="715" on="1"/>
        <pt x="318" y="715" on="0"/>
        <pt x="274" y="697" on="1"/>
        <pt x="274" y="636" on="0"/>
        <pt x="221" y="144" on="0"/>
      </contour>
    </TTGlyph>
    <TTGlyph name="Delta" xMin="31" yMin="-14" xMax="641" yMax="733">
      <contour>
        <pt x="302" y="722" on="1"/>
        <pt x="340" y="733" on="0"/>
        <pt x="435" y="733" on="0"/>
        <pt x="501" y="635" on="0"/>
        <pt x="518" y="569" on="1"/>
        <pt x="634" y="114" on="1"/>
        <pt x="641" y="88" on="0"/>
        <pt x="641" y="62" on="1"/>
        <pt x="641" y="18" on="0"/>
        <pt x="613" y="0" on="1"/>
        <pt x="502" y="0" on="0"/>
        <pt x="200" y="-14" on="0"/>
        <pt x="153" y="-14" on="1"/>
        <pt x="54" y="-14" on="0"/>
        <pt x="31" y="42" on="1"/>
        <pt x="74" y="141" on="0"/>
        <pt x="301" y="605" on="0"/>
        <pt x="333" y="688" on="1"/>
        <pt x="322" y="702" on="0"/>
      </contour>
      <contour>
        <pt x="382" y="571" on="1"/>
        <pt x="368" y="540" on="0"/>
        <pt x="318" y="434" on="1"/>
        <pt x="211" y="202" on="0"/>
        <pt x="167" y="85" on="1"/>
        <pt x="214" y="83" on="0"/>
        <pt x="342" y="83" on="0"/>
        <pt x="474" y="94" on="0"/>
        <pt x="502" y="95" on="1"/>
        <pt x="499" y="107" on="0"/>
        <pt x="408" y="488" on="0"/>
      </contour>
    </TTGlyph>
    <TTGlyph name="E" xMin="42" yMin="-12" xMax="616" yMax="799">
      <contour>
        <pt x="412" y="334" on="1"/>
        <pt x="316" y="335" on="1"/>
        <pt x="272" y="335" on="0"/>
        <pt x="249" y="334" on="1"/>
        <pt x="234" y="201" on="0"/>
        <pt x="233" y="106" on="1"/>
        <pt x="468" y="106" on="0"/>
        <pt x="582" y="144" on="1"/>
        <pt x="573" y="70" on="0"/>
        <pt x="501" y="-12" on="0"/>
        <pt x="447" y="-12" on="1"/>
        <pt x="431" y="-12" on="0"/>
        <pt x="284" y="5" on="0"/>
        <pt x="120" y="5" on="0"/>
        <pt x="42" y="-12" on="1"/>
        <pt x="53" y="35" on="0"/>
        <pt x="90" y="65" on="1"/>
        <pt x="90" y="69" on="1"/>
        <pt x="90" y="123" on="0"/>
        <pt x="118" y="315" on="1"/>
        <pt x="93" y="306" on="0"/>
        <pt x="75" y="299" on="1"/>
        <pt x="73" y="321" on="0"/>
        <pt x="73" y="332" on="1"/>
        <pt x="73" y="399" on="0"/>
        <pt x="132" y="417" on="1"/>
        <pt x="150" y="549" on="0"/>
        <pt x="156" y="655" on="1"/>
        <pt x="119" y="657" on="0"/>
        <pt x="99" y="687" on="0"/>
        <pt x="99" y="731" on="1"/>
        <pt x="102" y="776" on="0"/>
        <pt x="107" y="790" on="1"/>
        <pt x="219" y="775" on="0"/>
        <pt x="490" y="775" on="0"/>
        <pt x="616" y="799" on="1"/>
        <pt x="602" y="694" on="0"/>
        <pt x="488" y="673" on="1"/>
        <pt x="421" y="660" on="0"/>
        <pt x="289" y="656" on="1"/>
        <pt x="288" y="645" on="0"/>
        <pt x="260" y="424" on="1"/>
        <pt x="320" y="422" on="0"/>
        <pt x="343" y="422" on="1"/>
        <pt x="438" y="422" on="0"/>
        <pt x="478" y="455" on="1"/>
        <pt x="480" y="435" on="0"/>
        <pt x="480" y="425" on="1"/>
        <pt x="480" y="334" on="0"/>
      </contour>
    </TTGlyph>
    <TTGlyph name="Eacute" xMin="42" yMin="-12" xMax="616" yMax="1096">
      <component glyphName="E" x="0" y="0" flags="0x1004"/>
      <component glyphName="acute" x="198" y="229" flags="0x1004"/>
    </TTGlyph>
    <TTGlyph name="Ecircumflex" xMin="42" yMin="-12" xMax="616" yMax="1102">
      <contour>
        <pt x="412" y="334" on="1"/>
        <pt x="316" y="335" on="1"/>
        <pt x="272" y="335" on="0"/>
        <pt x="249" y="334" on="1"/>
        <pt x="234" y="201" on="0"/>
        <pt x="233" y="106" on="1"/>
        <pt x="468" y="106" on="0"/>
        <pt x="582" y="144" on="1"/>
        <pt x="573" y="70" on="0"/>
        <pt x="501" y="-12" on="0"/>
        <pt x="447" y="-12" on="1"/>
        <pt x="431" y="-12" on="0"/>
        <pt x="284" y="5" on="0"/>
        <pt x="120" y="5" on="0"/>
        <pt x="42" y="-12" on="1"/>
        <pt x="53" y="35" on="0"/>
        <pt x="90" y="65" on="1"/>
        <pt x="90" y="69" on="1"/>
        <pt x="90" y="123" on="0"/>
        <pt x="118" y="315" on="1"/>
        <pt x="93" y="306" on="0"/>
        <pt x="75" y="299" on="1"/>
        <pt x="73" y="321" on="0"/>
        <pt x="73" y="332" on="1"/>
        <pt x="73" y="399" on="0"/>
        <pt x="132" y="417" on="1"/>
        <pt x="150" y="549" on="0"/>
        <pt x="156" y="655" on="1"/>
        <pt x="119" y="657" on="0"/>
        <pt x="99" y="687" on="0"/>
        <pt x="99" y="731" on="1"/>
        <pt x="102" y="776" on="0"/>
        <pt x="107" y="790" on="1"/>
        <pt x="219" y="775" on="0"/>
        <pt x="490" y="775" on="0"/>
        <pt x="616" y="799" on="1"/>
        <pt x="602" y="694" on="0"/>
        <pt x="488" y="673" on="1"/>
        <pt x="421" y="660" on="0"/>
        <pt x="289" y="656" on="1"/>
        <pt x="288" y="645" on="0"/>
        <pt x="260" y="424" on="1"/>
        <pt x="320" y="422" on="0"/>
        <pt x="343" y="422" on="1"/>
        <pt x="438" y="422" on="0"/>
        <pt x="478" y="455" on="1"/>
        <pt x="480" y="435" on="0"/>
        <pt x="480" y="425" on="1"/>
        <pt x="480" y="334" on="0"/>
      </contour>
      <contour>
        <pt x="550" y="877" on="1"/>
        <pt x="513" y="866" on="0"/>
        <pt x="434" y="866" on="0"/>
        <pt x="400" y="909" on="0"/>
        <pt x="383" y="976" on="1"/>
        <pt x="331" y="896" on="0"/>
        <pt x="249" y="849" on="1"/>
        <pt x="199" y="883" on="0"/>
        <pt x="198" y="938" on="1"/>
        <pt x="280" y="989" on="0"/>
        <pt x="321" y="1030" on="1"/>
        <pt x="344" y="1053" on="1"/>
        <pt x="350" y="1059" on="0"/>
        <pt x="382" y="1098" on="0"/>
        <pt x="386" y="1102" on="1"/>
        <pt x="422" y="1102" on="0"/>
        <pt x="460" y="1062" on="0"/>
        <pt x="474" y="1006" on="0"/>
        <pt x="516" y="914" on="0"/>
      </contour>
    </TTGlyph>
    <TTGlyph name="Edieresis" xMin="42" yMin="-12" xMax="616" yMax="1043">
      <component glyphName="E" x="0" y="0" flags="0x1004"/>
      <component glyphName="dieresis" x="130" y="229" flags="0x1004"/>
    </TTGlyph>
    <TTGlyph name="Egrave" xMin="42" yMin="-12" xMax="616" yMax="1096">
      <contour>
        <pt x="412" y="334" on="1"/>
        <pt x="316" y="335" on="1"/>
        <pt x="272" y="335" on="0"/>
        <pt x="249" y="334" on="1"/>
        <pt x="234" y="201" on="0"/>
        <pt x="233" y="106" on="1"/>
        <pt x="468" y="106" on="0"/>
        <pt x="582" y="144" on="1"/>
        <pt x="573" y="70" on="0"/>
        <pt x="501" y="-12" on="0"/>
        <pt x="447" y="-12" on="1"/>
        <pt x="431" y="-12" on="0"/>
        <pt x="284" y="5" on="0"/>
        <pt x="120" y="5" on="0"/>
        <pt x="42" y="-12" on="1"/>
        <pt x="53" y="35" on="0"/>
        <pt x="90" y="65" on="1"/>
        <pt x="90" y="69" on="1"/>
        <pt x="90" y="123" on="0"/>
        <pt x="118" y="315" on="1"/>
        <pt x="93" y="306" on="0"/>
        <pt x="75" y="299" on="1"/>
        <pt x="73" y="321" on="0"/>
        <pt x="73" y="332" on="1"/>
        <pt x="73" y="399" on="0"/>
        <pt x="132" y="417" on="1"/>
        <pt x="150" y="549" on="0"/>
        <pt x="156" y="655" on="1"/>
        <pt x="119" y="657" on="0"/>
        <pt x="99" y="687" on="0"/>
        <pt x="99" y="731" on="1"/>
        <pt x="102" y="776" on="0"/>
        <pt x="107" y="790" on="1"/>
        <pt x="219" y="775" on="0"/>
        <pt x="490" y="775" on="0"/>
        <pt x="616" y="799" on="1"/>
        <pt x="602" y="694" on="0"/>
        <pt x="488" y="673" on="1"/>
        <pt x="421" y="660" on="0"/>
        <pt x="289" y="656" on="1"/>
        <pt x="288" y="645" on="0"/>
        <pt x="260" y="424" on="1"/>
        <pt x="320" y="422" on="0"/>
        <pt x="343" y="422" on="1"/>
        <pt x="438" y="422" on="0"/>
        <pt x="478" y="455" on="1"/>
        <pt x="480" y="435" on="0"/>
        <pt x="480" y="425" on="1"/>
        <pt x="480" y="334" on="0"/>
      </contour>
      <contour>
        <pt x="506" y="881" on="1"/>
        <pt x="504" y="870" on="0"/>
        <pt x="480" y="851" on="0"/>
        <pt x="464" y="848" on="1"/>
        <pt x="426" y="891" on="0"/>
        <pt x="305" y="972" on="0"/>
        <pt x="242" y="989" on="1"/>
        <pt x="245" y="1058" on="0"/>
        <pt x="305" y="1096" on="1"/>
        <pt x="361" y="1073" on="0"/>
        <pt x="479" y="942" on="0"/>
      </contour>
    </TTGlyph>
    <TTGlyph name="Eth" xMin="17" yMin="-15" xMax="724" yMax="847">
      <contour>
        <pt x="195" y="450" on="0"/>
        <pt x="340" y="464" on="0"/>
        <pt x="442" y="464" on="0"/>
        <pt x="480" y="409" on="0"/>
        <pt x="480" y="355" on="1"/>
        <pt x="480" y="351" on="0"/>
        <pt x="479" y="336" on="0"/>
        <pt x="479" y="332" on="1"/>
        <pt x="409" y="343" on="0"/>
        <pt x="302" y="343" on="0"/>
        <pt x="157" y="329" on="0"/>
        <pt x="55" y="329" on="0"/>
        <pt x="17" y="384" on="0"/>
        <pt x="17" y="438" on="1"/>
        <pt x="17" y="442" on="0"/>
        <pt x="18" y="457" on="0"/>
        <pt x="18" y="461" on="1"/>
        <pt x="88" y="450" on="0"/>
      </contour>
      <contour>
        <pt x="261" y="759" on="1"/>
        <pt x="350" y="802" on="0"/>
        <pt x="428" y="802" on="1"/>
        <pt x="566" y="802" on="0"/>
        <pt x="724" y="584" on="0"/>
        <pt x="724" y="419" on="1"/>
        <pt x="724" y="282" on="0"/>
        <pt x="663" y="175" on="1"/>
        <pt x="595" y="56" on="0"/>
        <pt x="472" y="10" on="1"/>
        <pt x="405" y="-15" on="0"/>
        <pt x="257" y="-15" on="0"/>
        <pt x="132" y="19" on="0"/>
        <pt x="104" y="36" on="1"/>
        <pt x="75" y="53" on="1"/>
        <pt x="76" y="61" on="0"/>
        <pt x="97" y="202" on="1"/>
        <pt x="141" y="496" on="0"/>
        <pt x="141" y="735" on="1"/>
        <pt x="141" y="814" on="0"/>
        <pt x="127" y="847" on="1"/>
        <pt x="234" y="819" on="0"/>
      </contour>
      <contour>
        <pt x="221" y="75" on="1"/>
        <pt x="260" y="60" on="0"/>
        <pt x="308" y="60" on="1"/>
        <pt x="395" y="60" on="0"/>
        <pt x="522" y="172" on="0"/>
        <pt x="579" y="334" on="0"/>
        <pt x="579" y="425" on="1"/>
        <pt x="579" y="553" on="0"/>
        <pt x="469" y="715" on="0"/>
        <pt x="376" y="715" on="1"/>
        <pt x="318" y="715" on="0"/>
        <pt x="274" y="697" on="1"/>
        <pt x="274" y="636" on="0"/>
        <pt x="221" y="144" on="0"/>
      </contour>
    </TTGlyph>
    <TTGlyph name="Euro" xMin="-38" yMin="-27" xMax="580" yMax="719">
      <contour>
        <pt x="-38" y="407" on="1"/>
        <pt x="-2" y="406" on="1"/>
        <pt x="33" y="406" on="0"/>
        <pt x="80" y="411" on="1"/>
        <pt x="110" y="548" on="0"/>
        <pt x="295" y="719" on="0"/>
        <pt x="436" y="719" on="1"/>
        <pt x="509" y="719" on="0"/>
        <pt x="580" y="653" on="0"/>
        <pt x="580" y="559" on="0"/>
        <pt x="518" y="493" on="0"/>
        <pt x="465" y="493" on="1"/>
        <pt x="444" y="493" on="0"/>
        <pt x="424" y="500" on="1"/>
        <pt x="445" y="514" on="0"/>
        <pt x="474" y="563" on="0"/>
        <pt x="474" y="610" on="0"/>
        <pt x="449" y="641" on="0"/>
        <pt x="425" y="641" on="1"/>
        <pt x="355" y="641" on="0"/>
        <pt x="249" y="524" on="0"/>
        <pt x="223" y="433" on="1"/>
        <pt x="296" y="444" on="0"/>
        <pt x="375" y="444" on="0"/>
        <pt x="420" y="406" on="0"/>
        <pt x="431" y="355" on="1"/>
        <pt x="414" y="364" on="0"/>
        <pt x="312" y="364" on="0"/>
        <pt x="206" y="347" on="1"/>
        <pt x="203" y="320" on="0"/>
        <pt x="203" y="294" on="1"/>
        <pt x="203" y="282" on="1"/>
        <pt x="303" y="299" on="0"/>
        <pt x="391" y="299" on="0"/>
        <pt x="436" y="261" on="0"/>
        <pt x="447" y="210" on="1"/>
        <pt x="430" y="219" on="0"/>
        <pt x="324" y="219" on="0"/>
        <pt x="212" y="200" on="1"/>
        <pt x="228" y="129" on="0"/>
        <pt x="306" y="57" on="0"/>
        <pt x="354" y="57" on="1"/>
        <pt x="450" y="57" on="0"/>
        <pt x="535" y="173" on="1"/>
        <pt x="569" y="164" on="0"/>
        <pt x="569" y="140" on="1"/>
        <pt x="480" y="-27" on="0"/>
        <pt x="313" y="-27" on="1"/>
        <pt x="230" y="-27" on="0"/>
        <pt x="103" y="78" on="0"/>
        <pt x="79" y="180" on="1"/>
        <pt x="57" y="178" on="0"/>
        <pt x="51" y="178" on="1"/>
        <pt x="-15" y="178" on="0"/>
        <pt x="-22" y="262" on="1"/>
        <pt x="14" y="261" on="1"/>
        <pt x="30" y="261" on="0"/>
        <pt x="68" y="263" on="1"/>
        <pt x="67" y="273" on="0"/>
        <pt x="67" y="314" on="0"/>
        <pt x="68" y="325" on="1"/>
        <pt x="42" y="323" on="0"/>
        <pt x="35" y="323" on="1"/>
        <pt x="-31" y="323" on="0"/>
      </contour>
    </TTGlyph>
    <TTGlyph name="F" xMin="70" yMin="-17" xMax="595" yMax="799">
      <contour>
        <pt x="409" y="334" on="1"/>
        <pt x="313" y="335" on="1"/>
        <pt x="272" y="335" on="0"/>
        <pt x="250" y="334" on="1"/>
        <pt x="234" y="194" on="0"/>
        <pt x="234" y="20" on="0"/>
        <pt x="240" y="-15" on="1"/>
        <pt x="208" y="-17" on="0"/>
        <pt x="198" y="-17" on="1"/>
        <pt x="141" y="-17" on="0"/>
        <pt x="91" y="23" on="0"/>
        <pt x="91" y="124" on="0"/>
        <pt x="119" y="316" on="1"/>
        <pt x="87" y="306" on="0"/>
        <pt x="72" y="299" on="1"/>
        <pt x="70" y="321" on="0"/>
        <pt x="70" y="332" on="1"/>
        <pt x="70" y="401" on="0"/>
        <pt x="133" y="418" on="1"/>
        <pt x="152" y="555" on="0"/>
        <pt x="156" y="655" on="1"/>
        <pt x="105" y="655" on="0"/>
        <pt x="78" y="683" on="0"/>
        <pt x="78" y="731" on="1"/>
        <pt x="82" y="776" on="0"/>
        <pt x="86" y="790" on="1"/>
        <pt x="199" y="775" on="0"/>
        <pt x="469" y="775" on="0"/>
        <pt x="595" y="799" on="1"/>
        <pt x="581" y="694" on="0"/>
        <pt x="467" y="673" on="1"/>
        <pt x="405" y="661" on="0"/>
        <pt x="290" y="657" on="1"/>
        <pt x="289" y="644" on="0"/>
        <pt x="261" y="424" on="1"/>
        <pt x="319" y="422" on="0"/>
        <pt x="340" y="422" on="1"/>
        <pt x="435" y="422" on="0"/>
        <pt x="475" y="455" on="1"/>
        <pt x="477" y="435" on="0"/>
        <pt x="477" y="425" on="1"/>
        <pt x="477" y="334" on="0"/>
      </contour>
    </TTGlyph>
    <TTGlyph name="G" xMin="40" yMin="-329" xMax="637" yMax="806">
      <contour>
        <pt x="280" y="-256" on="1"/>
        <pt x="447" y="-256" on="0"/>
        <pt x="470" y="137" on="1"/>
        <pt x="433" y="84" on="0"/>
        <pt x="329" y="29" on="0"/>
        <pt x="274" y="29" on="1"/>
        <pt x="178" y="29" on="0"/>
        <pt x="40" y="185" on="0"/>
        <pt x="40" y="324" on="1"/>
        <pt x="40" y="515" on="0"/>
        <pt x="139" y="656" on="1"/>
        <pt x="187" y="725" on="0"/>
        <pt x="339" y="806" on="0"/>
        <pt x="534" y="806" on="0"/>
        <pt x="637" y="705" on="0"/>
        <pt x="637" y="557" on="0"/>
        <pt x="545" y="471" on="0"/>
        <pt x="482" y="471" on="1"/>
        <pt x="441" y="471" on="0"/>
        <pt x="367" y="511" on="0"/>
        <pt x="347" y="549" on="1"/>
        <pt x="374" y="542" on="0"/>
        <pt x="398" y="542" on="1"/>
        <pt x="452" y="542" on="0"/>
        <pt x="515" y="604" on="0"/>
        <pt x="515" y="682" on="0"/>
        <pt x="463" y="733" on="0"/>
        <pt x="415" y="733" on="1"/>
        <pt x="352" y="733" on="0"/>
        <pt x="249" y="604" on="0"/>
        <pt x="197" y="421" on="0"/>
        <pt x="197" y="225" on="0"/>
        <pt x="274" y="114" on="0"/>
        <pt x="384" y="114" on="0"/>
        <pt x="465" y="222" on="0"/>
        <pt x="465" y="314" on="1"/>
        <pt x="465" y="337" on="0"/>
        <pt x="462" y="361" on="1"/>
        <pt x="462" y="364" on="1"/>
        <pt x="484" y="366" on="0"/>
        <pt x="508" y="366" on="1"/>
        <pt x="566" y="366" on="0"/>
        <pt x="611" y="327" on="0"/>
        <pt x="611" y="280" on="1"/>
        <pt x="611" y="-25" on="0"/>
        <pt x="502" y="-196" on="1"/>
        <pt x="464" y="-255" on="0"/>
        <pt x="342" y="-329" on="0"/>
        <pt x="265" y="-329" on="1"/>
        <pt x="160" y="-329" on="0"/>
        <pt x="55" y="-222" on="0"/>
        <pt x="55" y="-84" on="0"/>
        <pt x="129" y="-1" on="0"/>
        <pt x="184" y="-1" on="1"/>
        <pt x="214" y="-1" on="0"/>
        <pt x="250" y="-18" on="1"/>
        <pt x="197" y="-85" on="0"/>
        <pt x="197" y="-159" on="1"/>
        <pt x="197" y="-202" on="0"/>
        <pt x="237" y="-256" on="0"/>
      </contour>
    </TTGlyph>
    <TTGlyph name="H" xMin="75" yMin="-31" xMax="721" yMax="802">
      <contour>
        <pt x="477" y="346" on="1"/>
        <pt x="381" y="347" on="1"/>
        <pt x="330" y="347" on="0"/>
        <pt x="259" y="344" on="1"/>
        <pt x="236" y="172" on="0"/>
        <pt x="236" y="2" on="0"/>
        <pt x="250" y="-31" on="1"/>
        <pt x="165" y="-9" on="0"/>
        <pt x="103" y="64" on="0"/>
        <pt x="103" y="129" on="1"/>
        <pt x="103" y="167" on="0"/>
        <pt x="124" y="322" on="1"/>
        <pt x="125" y="326" on="0"/>
        <pt x="125" y="327" on="1"/>
        <pt x="95" y="319" on="0"/>
        <pt x="77" y="311" on="1"/>
        <pt x="75" y="333" on="0"/>
        <pt x="75" y="344" on="1"/>
        <pt x="75" y="414" on="0"/>
        <pt x="139" y="430" on="1"/>
        <pt x="160" y="608" on="0"/>
        <pt x="160" y="720" on="1"/>
        <pt x="160" y="750" on="0"/>
        <pt x="156" y="802" on="1"/>
        <pt x="256" y="798" on="0"/>
        <pt x="282" y="766" on="1"/>
        <pt x="295" y="748" on="0"/>
        <pt x="302" y="715" on="0"/>
        <pt x="302" y="642" on="0"/>
        <pt x="274" y="455" on="0"/>
        <pt x="272" y="437" on="1"/>
        <pt x="438" y="437" on="0"/>
        <pt x="558" y="439" on="1"/>
        <pt x="579" y="611" on="0"/>
        <pt x="579" y="720" on="1"/>
        <pt x="579" y="750" on="0"/>
        <pt x="575" y="802" on="1"/>
        <pt x="675" y="798" on="0"/>
        <pt x="700" y="766" on="1"/>
        <pt x="714" y="748" on="0"/>
        <pt x="721" y="715" on="0"/>
        <pt x="721" y="642" on="0"/>
        <pt x="654" y="183" on="0"/>
        <pt x="654" y="2" on="0"/>
        <pt x="668" y="-31" on="1"/>
        <pt x="583" y="-9" on="0"/>
        <pt x="522" y="63" on="0"/>
        <pt x="522" y="175" on="0"/>
        <pt x="542" y="322" on="1"/>
        <pt x="548" y="365" on="1"/>
        <pt x="526" y="346" on="0"/>
      </contour>
    </TTGlyph>
    <TTGlyph name="I" xMin="75" yMin="-31" xMax="274" yMax="802">
      <contour>
        <pt x="271" y="737" on="0"/>
        <pt x="274" y="709" on="0"/>
        <pt x="274" y="635" on="0"/>
        <pt x="208" y="183" on="0"/>
        <pt x="208" y="2" on="0"/>
        <pt x="222" y="-31" on="1"/>
        <pt x="137" y="-9" on="0"/>
        <pt x="75" y="64" on="0"/>
        <pt x="75" y="129" on="1"/>
        <pt x="75" y="167" on="0"/>
        <pt x="96" y="322" on="1"/>
        <pt x="133" y="579" on="0"/>
        <pt x="133" y="720" on="1"/>
        <pt x="133" y="750" on="0"/>
        <pt x="129" y="802" on="1"/>
        <pt x="205" y="798" on="0"/>
        <pt x="240" y="778" on="1"/>
        <pt x="255" y="770" on="0"/>
      </contour>
    </TTGlyph>
    <TTGlyph name="Iacute" xMin="75" yMin="-31" xMax="353" yMax="1096">
      <component glyphName="I" x="0" y="0" flags="0x1004"/>
      <component glyphName="acute" x="1" y="229" flags="0x1004"/>
    </TTGlyph>
    <TTGlyph name="Icircumflex" xMin="32" yMin="-31" xMax="384" yMax="1102">
      <contour>
        <pt x="271" y="737" on="0"/>
        <pt x="274" y="709" on="0"/>
        <pt x="274" y="635" on="0"/>
        <pt x="208" y="183" on="0"/>
        <pt x="208" y="2" on="0"/>
        <pt x="222" y="-31" on="1"/>
        <pt x="137" y="-9" on="0"/>
        <pt x="75" y="64" on="0"/>
        <pt x="75" y="129" on="1"/>
        <pt x="75" y="167" on="0"/>
        <pt x="96" y="322" on="1"/>
        <pt x="133" y="579" on="0"/>
        <pt x="133" y="720" on="1"/>
        <pt x="133" y="750" on="0"/>
        <pt x="129" y="802" on="1"/>
        <pt x="205" y="798" on="0"/>
        <pt x="240" y="778" on="1"/>
        <pt x="255" y="770" on="0"/>
      </contour>
      <contour>
        <pt x="384" y="877" on="1"/>
        <pt x="347" y="866" on="0"/>
        <pt x="268" y="866" on="0"/>
        <pt x="234" y="909" on="0"/>
        <pt x="217" y="976" on="1"/>
        <pt x="165" y="896" on="0"/>
        <pt x="83" y="849" on="1"/>
        <pt x="33" y="883" on="0"/>
        <pt x="32" y="938" on="1"/>
        <pt x="114" y="989" on="0"/>
        <pt x="155" y="1030" on="1"/>
        <pt x="178" y="1053" on="1"/>
        <pt x="184" y="1059" on="0"/>
        <pt x="216" y="1098" on="0"/>
        <pt x="220" y="1102" on="1"/>
        <pt x="256" y="1102" on="0"/>
        <pt x="294" y="1062" on="0"/>
        <pt x="308" y="1006" on="0"/>
        <pt x="350" y="914" on="0"/>
      </contour>
    </TTGlyph>
    <TTGlyph name="Idieresis" xMin="35" yMin="-31" xMax="412" yMax="1043">
      <component glyphName="I" x="0" y="0" flags="0x1004"/>
      <component glyphName="dieresis" x="-30" y="229" flags="0x1004"/>
    </TTGlyph>
    <TTGlyph name="Igrave" xMin="75" yMin="-31" xMax="340" yMax="1096">
      <contour>
        <pt x="271" y="737" on="0"/>
        <pt x="274" y="709" on="0"/>
        <pt x="274" y="635" on="0"/>
        <pt x="208" y="183" on="0"/>
        <pt x="208" y="2" on="0"/>
        <pt x="222" y="-31" on="1"/>
        <pt x="137" y="-9" on="0"/>
        <pt x="75" y="64" on="0"/>
        <pt x="75" y="129" on="1"/>
        <pt x="75" y="167" on="0"/>
        <pt x="96" y="322" on="1"/>
        <pt x="133" y="579" on="0"/>
        <pt x="133" y="720" on="1"/>
        <pt x="133" y="750" on="0"/>
        <pt x="129" y="802" on="1"/>
        <pt x="205" y="798" on="0"/>
        <pt x="240" y="778" on="1"/>
        <pt x="255" y="770" on="0"/>
      </contour>
      <contour>
        <pt x="340" y="881" on="1"/>
        <pt x="338" y="870" on="0"/>
        <pt x="314" y="851" on="0"/>
        <pt x="298" y="848" on="1"/>
        <pt x="260" y="891" on="0"/>
        <pt x="139" y="972" on="0"/>
        <pt x="76" y="989" on="1"/>
        <pt x="79" y="1058" on="0"/>
        <pt x="139" y="1096" on="1"/>
        <pt x="195" y="1073" on="0"/>
        <pt x="313" y="942" on="0"/>
      </contour>
    </TTGlyph>
    <TTGlyph name="J" xMin="-58" yMin="-36" xMax="558" yMax="799">
      <contour>
        <pt x="230" y="115" on="0"/>
        <pt x="244" y="212" on="0"/>
        <pt x="251" y="281" on="0"/>
        <pt x="257" y="384" on="0"/>
        <pt x="259" y="426" on="1"/>
        <pt x="267" y="594" on="0"/>
        <pt x="270" y="645" on="1"/>
        <pt x="246" y="643" on="0"/>
        <pt x="209" y="643" on="1"/>
        <pt x="149" y="643" on="0"/>
        <pt x="149" y="721" on="1"/>
        <pt x="149" y="755" on="0"/>
        <pt x="155" y="781" on="1"/>
        <pt x="231" y="763" on="0"/>
        <pt x="443" y="763" on="0"/>
        <pt x="558" y="799" on="1"/>
        <pt x="552" y="738" on="0"/>
        <pt x="478" y="671" on="0"/>
        <pt x="440" y="664" on="1"/>
        <pt x="409" y="658" on="1"/>
        <pt x="390" y="459" on="0"/>
        <pt x="374" y="237" on="0"/>
        <pt x="341" y="107" on="0"/>
        <pt x="295" y="29" on="0"/>
        <pt x="233" y="-19" on="0"/>
        <pt x="171" y="-36" on="0"/>
        <pt x="133" y="-36" on="1"/>
        <pt x="40" y="-36" on="0"/>
        <pt x="-58" y="72" on="0"/>
        <pt x="-58" y="195" on="0"/>
        <pt x="9" y="266" on="0"/>
        <pt x="71" y="266" on="1"/>
        <pt x="102" y="266" on="0"/>
        <pt x="129" y="250" on="1"/>
        <pt x="103" y="228" on="0"/>
        <pt x="74" y="158" on="0"/>
        <pt x="74" y="86" on="0"/>
        <pt x="111" y="36" on="0"/>
        <pt x="185" y="36" on="0"/>
      </contour>
    </TTGlyph>
    <TTGlyph name="K" xMin="75" yMin="-33" xMax="656" yMax="802">
      <contour>
        <pt x="271" y="737" on="0"/>
        <pt x="274" y="709" on="0"/>
        <pt x="274" y="635" on="0"/>
        <pt x="249" y="464" on="1"/>
        <pt x="240" y="406" on="1"/>
        <pt x="375" y="517" on="0"/>
        <pt x="561" y="726" on="0"/>
        <pt x="599" y="799" on="1"/>
        <pt x="632" y="741" on="0"/>
        <pt x="632" y="630" on="0"/>
        <pt x="519" y="514" on="0"/>
        <pt x="405" y="430" on="1"/>
        <pt x="475" y="209" on="0"/>
        <pt x="562" y="88" on="1"/>
        <pt x="599" y="37" on="0"/>
        <pt x="656" y="-23" on="1"/>
        <pt x="619" y="-33" on="0"/>
        <pt x="545" y="-33" on="0"/>
        <pt x="467" y="13" on="0"/>
        <pt x="410" y="79" on="0"/>
        <pt x="380" y="134" on="1"/>
        <pt x="337" y="215" on="0"/>
        <pt x="287" y="347" on="1"/>
        <pt x="259" y="326" on="0"/>
        <pt x="226" y="304" on="1"/>
        <pt x="208" y="155" on="0"/>
        <pt x="208" y="2" on="0"/>
        <pt x="222" y="-31" on="1"/>
        <pt x="137" y="-9" on="0"/>
        <pt x="75" y="64" on="0"/>
        <pt x="75" y="129" on="1"/>
        <pt x="75" y="167" on="0"/>
        <pt x="96" y="322" on="1"/>
        <pt x="133" y="579" on="0"/>
        <pt x="133" y="720" on="1"/>
        <pt x="133" y="750" on="0"/>
        <pt x="129" y="802" on="1"/>
        <pt x="205" y="798" on="0"/>
        <pt x="240" y="778" on="1"/>
        <pt x="255" y="770" on="0"/>
      </contour>
    </TTGlyph>
    <TTGlyph name="L" xMin="28" yMin="-12" xMax="568" yMax="802">
      <contour>
        <pt x="28" y="-12" on="1"/>
        <pt x="43" y="46" on="0"/>
        <pt x="89" y="76" on="1"/>
        <pt x="84" y="96" on="0"/>
        <pt x="84" y="167" on="0"/>
        <pt x="105" y="322" on="1"/>
        <pt x="142" y="579" on="0"/>
        <pt x="142" y="720" on="1"/>
        <pt x="142" y="750" on="0"/>
        <pt x="138" y="802" on="1"/>
        <pt x="214" y="798" on="0"/>
        <pt x="249" y="778" on="1"/>
        <pt x="264" y="770" on="0"/>
        <pt x="280" y="737" on="0"/>
        <pt x="283" y="709" on="0"/>
        <pt x="283" y="635" on="0"/>
        <pt x="222" y="224" on="0"/>
        <pt x="217" y="106" on="1"/>
        <pt x="454" y="106" on="0"/>
        <pt x="568" y="144" on="1"/>
        <pt x="559" y="70" on="0"/>
        <pt x="487" y="-12" on="0"/>
        <pt x="433" y="-12" on="1"/>
        <pt x="417" y="-12" on="0"/>
        <pt x="270" y="5" on="0"/>
        <pt x="106" y="5" on="0"/>
      </contour>
    </TTGlyph>
    <TTGlyph name="Lslash" xMin="-43" yMin="-12" xMax="568" yMax="802">
      <contour>
        <pt x="-43" y="361" on="1"/>
        <pt x="35" y="388" on="0"/>
        <pt x="132" y="433" on="0"/>
        <pt x="190" y="465" on="1"/>
        <pt x="324" y="539" on="0"/>
        <pt x="367" y="539" on="1"/>
        <pt x="396" y="539" on="0"/>
        <pt x="429" y="502" on="0"/>
        <pt x="444" y="465" on="1"/>
        <pt x="366" y="438" on="0"/>
        <pt x="269" y="393" on="0"/>
        <pt x="212" y="361" on="1"/>
        <pt x="77" y="286" on="0"/>
        <pt x="34" y="286" on="1"/>
        <pt x="5" y="286" on="0"/>
        <pt x="-29" y="324" on="0"/>
      </contour>
      <contour>
        <pt x="28" y="-12" on="1"/>
        <pt x="43" y="46" on="0"/>
        <pt x="89" y="76" on="1"/>
        <pt x="84" y="96" on="0"/>
        <pt x="84" y="167" on="0"/>
        <pt x="105" y="322" on="1"/>
        <pt x="142" y="579" on="0"/>
        <pt x="142" y="720" on="1"/>
        <pt x="142" y="750" on="0"/>
        <pt x="138" y="802" on="1"/>
        <pt x="214" y="798" on="0"/>
        <pt x="249" y="778" on="1"/>
        <pt x="264" y="770" on="0"/>
        <pt x="280" y="737" on="0"/>
        <pt x="283" y="709" on="0"/>
        <pt x="283" y="635" on="0"/>
        <pt x="222" y="224" on="0"/>
        <pt x="217" y="106" on="1"/>
        <pt x="454" y="106" on="0"/>
        <pt x="568" y="144" on="1"/>
        <pt x="559" y="70" on="0"/>
        <pt x="487" y="-12" on="0"/>
        <pt x="433" y="-12" on="1"/>
        <pt x="417" y="-12" on="0"/>
        <pt x="270" y="5" on="0"/>
        <pt x="106" y="5" on="0"/>
      </contour>
    </TTGlyph>
    <TTGlyph name="M" xMin="70" yMin="-31" xMax="857" yMax="803">
      <contour>
        <pt x="483" y="188" on="1"/>
        <pt x="447" y="174" on="0"/>
        <pt x="427" y="174" on="1"/>
        <pt x="367" y="174" on="0"/>
        <pt x="360" y="191" on="1"/>
        <pt x="260" y="448" on="0"/>
        <pt x="228" y="522" on="1"/>
        <pt x="225" y="495" on="0"/>
        <pt x="212" y="397" on="1"/>
        <pt x="185" y="205" on="0"/>
        <pt x="185" y="78" on="1"/>
        <pt x="185" y="47" on="0"/>
        <pt x="189" y="-5" on="1"/>
        <pt x="119" y="-5" on="0"/>
        <pt x="70" y="28" on="0"/>
        <pt x="70" y="58" on="1"/>
        <pt x="70" y="68" on="0"/>
        <pt x="137" y="592" on="0"/>
        <pt x="137" y="695" on="1"/>
        <pt x="137" y="700" on="1"/>
        <pt x="108" y="747" on="0"/>
        <pt x="76" y="777" on="1"/>
        <pt x="113" y="803" on="0"/>
        <pt x="165" y="803" on="1"/>
        <pt x="231" y="803" on="0"/>
        <pt x="303" y="680" on="0"/>
        <pt x="408" y="404" on="1"/>
        <pt x="454" y="286" on="1"/>
        <pt x="460" y="296" on="0"/>
        <pt x="472" y="313" on="1"/>
        <pt x="716" y="674" on="0"/>
        <pt x="723" y="803" on="1"/>
        <pt x="723" y="802" on="0"/>
        <pt x="771" y="799" on="0"/>
        <pt x="826" y="782" on="0"/>
        <pt x="851" y="747" on="0"/>
        <pt x="857" y="714" on="0"/>
        <pt x="857" y="635" on="0"/>
        <pt x="791" y="183" on="0"/>
        <pt x="791" y="2" on="0"/>
        <pt x="805" y="-31" on="1"/>
        <pt x="720" y="-9" on="0"/>
        <pt x="658" y="64" on="0"/>
        <pt x="658" y="129" on="1"/>
        <pt x="658" y="167" on="0"/>
        <pt x="699" y="465" on="0"/>
        <pt x="707" y="554" on="1"/>
        <pt x="667" y="485" on="0"/>
        <pt x="520" y="245" on="0"/>
        <pt x="490" y="200" on="0"/>
      </contour>
    </TTGlyph>
    <TTGlyph name="N" xMin="60" yMin="-21" xMax="751" yMax="802">
      <contour>
        <pt x="506" y="38" on="1"/>
        <pt x="488" y="64" on="0"/>
        <pt x="283" y="457" on="0"/>
        <pt x="240" y="534" on="1"/>
        <pt x="236" y="500" on="0"/>
        <pt x="222" y="404" on="1"/>
        <pt x="195" y="210" on="0"/>
        <pt x="195" y="78" on="1"/>
        <pt x="195" y="47" on="0"/>
        <pt x="199" y="-5" on="1"/>
        <pt x="129" y="-5" on="0"/>
        <pt x="80" y="28" on="0"/>
        <pt x="80" y="58" on="1"/>
        <pt x="80" y="67" on="0"/>
        <pt x="146" y="586" on="0"/>
        <pt x="147" y="690" on="1"/>
        <pt x="138" y="703" on="1"/>
        <pt x="113" y="740" on="0"/>
        <pt x="72" y="765" on="1"/>
        <pt x="62" y="771" on="0"/>
        <pt x="60" y="773" on="1"/>
        <pt x="108" y="802" on="0"/>
        <pt x="152" y="802" on="1"/>
        <pt x="240" y="802" on="0"/>
        <pt x="322" y="687" on="0"/>
        <pt x="434" y="461" on="1"/>
        <pt x="446" y="436" on="0"/>
        <pt x="495" y="335" on="0"/>
        <pt x="510" y="304" on="1"/>
        <pt x="545" y="229" on="0"/>
        <pt x="585" y="163" on="1"/>
        <pt x="588" y="202" on="0"/>
        <pt x="637" y="603" on="0"/>
        <pt x="637" y="720" on="1"/>
        <pt x="637" y="751" on="0"/>
        <pt x="633" y="801" on="1"/>
        <pt x="703" y="801" on="0"/>
        <pt x="751" y="769" on="0"/>
        <pt x="751" y="740" on="1"/>
        <pt x="751" y="729" on="0"/>
        <pt x="685" y="193" on="0"/>
        <pt x="685" y="90" on="1"/>
        <pt x="685" y="53" on="0"/>
        <pt x="687" y="36" on="1"/>
        <pt x="695" y="29" on="0"/>
        <pt x="713" y="19" on="1"/>
        <pt x="651" y="-21" on="0"/>
        <pt x="545" y="-21" on="0"/>
      </contour>
    </TTGlyph>
    <TTGlyph name="Ntilde" xMin="60" yMin="-21" xMax="751" yMax="1047">
      <component glyphName="N" x="0" y="0" flags="0x1004"/>
      <component glyphName="tilde" x="187" y="229" flags="0x1004"/>
    </TTGlyph>
    <TTGlyph name="O" xMin="50" yMin="-25" xMax="752" yMax="830">
      <contour>
        <pt x="601" y="590" on="0"/>
        <pt x="524" y="716" on="0"/>
        <pt x="391" y="716" on="0"/>
        <pt x="272" y="599" on="0"/>
        <pt x="205" y="421" on="0"/>
        <pt x="205" y="330" on="1"/>
        <pt x="205" y="205" on="0"/>
        <pt x="288" y="45" on="0"/>
        <pt x="372" y="45" on="1"/>
        <pt x="442" y="45" on="0"/>
        <pt x="549" y="168" on="0"/>
        <pt x="601" y="350" on="0"/>
        <pt x="601" y="450" on="1"/>
      </contour>
      <contour>
        <pt x="574" y="35" on="0"/>
        <pt x="439" y="-25" on="0"/>
        <pt x="279" y="-25" on="0"/>
        <pt x="158" y="47" on="0"/>
        <pt x="122" y="107" on="1"/>
        <pt x="50" y="227" on="0"/>
        <pt x="50" y="547" on="0"/>
        <pt x="209" y="797" on="0"/>
        <pt x="342" y="830" on="1"/>
        <pt x="350" y="828" on="0"/>
        <pt x="365" y="816" on="0"/>
        <pt x="366" y="809" on="1"/>
        <pt x="237" y="715" on="0"/>
        <pt x="210" y="553" on="1"/>
        <pt x="252" y="671" on="0"/>
        <pt x="421" y="804" on="0"/>
        <pt x="615" y="804" on="0"/>
        <pt x="752" y="637" on="0"/>
        <pt x="752" y="479" on="1"/>
        <pt x="752" y="324" on="0"/>
        <pt x="694" y="200" on="1"/>
        <pt x="664" y="134" on="0"/>
      </contour>
    </TTGlyph>
    <TTGlyph name="OE" xMin="50" yMin="-25" xMax="1032" yMax="830">
      <contour>
        <pt x="845" y="-11" on="1"/>
        <pt x="681" y="0" on="1"/>
        <pt x="605" y="0" on="0"/>
        <pt x="420" y="-25" on="0"/>
        <pt x="279" y="-25" on="0"/>
        <pt x="158" y="47" on="0"/>
        <pt x="122" y="107" on="1"/>
        <pt x="50" y="227" on="0"/>
        <pt x="50" y="547" on="0"/>
        <pt x="209" y="797" on="0"/>
        <pt x="342" y="830" on="1"/>
        <pt x="350" y="828" on="0"/>
        <pt x="365" y="816" on="0"/>
        <pt x="366" y="809" on="1"/>
        <pt x="237" y="715" on="0"/>
        <pt x="210" y="553" on="1"/>
        <pt x="252" y="671" on="0"/>
        <pt x="421" y="804" on="0"/>
        <pt x="513" y="804" on="1"/>
        <pt x="539" y="804" on="0"/>
        <pt x="751" y="780" on="0"/>
        <pt x="933" y="780" on="0"/>
        <pt x="1032" y="799" on="1"/>
        <pt x="1026" y="719" on="0"/>
        <pt x="891" y="646" on="0"/>
        <pt x="792" y="646" on="1"/>
        <pt x="754" y="646" on="0"/>
        <pt x="705" y="653" on="1"/>
        <pt x="705" y="652" on="0"/>
        <pt x="676" y="423" on="1"/>
        <pt x="706" y="422" on="0"/>
        <pt x="759" y="422" on="1"/>
        <pt x="854" y="422" on="0"/>
        <pt x="894" y="455" on="1"/>
        <pt x="896" y="435" on="0"/>
        <pt x="896" y="425" on="1"/>
        <pt x="896" y="334" on="0"/>
        <pt x="828" y="334" on="1"/>
        <pt x="732" y="335" on="1"/>
        <pt x="688" y="335" on="0"/>
        <pt x="665" y="334" on="1"/>
        <pt x="650" y="201" on="0"/>
        <pt x="649" y="106" on="1"/>
        <pt x="884" y="106" on="0"/>
        <pt x="998" y="144" on="1"/>
        <pt x="990" y="54" on="0"/>
        <pt x="912" y="-11" on="0"/>
      </contour>
      <contour>
        <pt x="575" y="691" on="1"/>
        <pt x="526" y="716" on="0"/>
        <pt x="391" y="716" on="0"/>
        <pt x="272" y="599" on="0"/>
        <pt x="205" y="421" on="0"/>
        <pt x="205" y="330" on="1"/>
        <pt x="205" y="205" on="0"/>
        <pt x="288" y="45" on="0"/>
        <pt x="372" y="45" on="1"/>
        <pt x="411" y="45" on="0"/>
        <pt x="489" y="72" on="0"/>
        <pt x="507" y="91" on="1"/>
        <pt x="510" y="124" on="0"/>
        <pt x="570" y="588" on="0"/>
      </contour>
    </TTGlyph>
    <TTGlyph name="Oacute" xMin="50" yMin="-25" xMax="752" yMax="1096">
      <component glyphName="O" x="0" y="0" flags="0x1004"/>
      <component glyphName="acute" x="293" y="229" flags="0x1004"/>
    </TTGlyph>
    <TTGlyph name="Ocircumflex" xMin="50" yMin="-25" xMax="752" yMax="1102">
      <contour>
        <pt x="601" y="590" on="0"/>
        <pt x="524" y="716" on="0"/>
        <pt x="391" y="716" on="0"/>
        <pt x="272" y="599" on="0"/>
        <pt x="205" y="421" on="0"/>
        <pt x="205" y="330" on="1"/>
        <pt x="205" y="205" on="0"/>
        <pt x="288" y="45" on="0"/>
        <pt x="372" y="45" on="1"/>
        <pt x="442" y="45" on="0"/>
        <pt x="549" y="168" on="0"/>
        <pt x="601" y="350" on="0"/>
        <pt x="601" y="450" on="1"/>
      </contour>
      <contour>
        <pt x="574" y="35" on="0"/>
        <pt x="439" y="-25" on="0"/>
        <pt x="279" y="-25" on="0"/>
        <pt x="158" y="47" on="0"/>
        <pt x="122" y="107" on="1"/>
        <pt x="50" y="227" on="0"/>
        <pt x="50" y="547" on="0"/>
        <pt x="209" y="797" on="0"/>
        <pt x="342" y="830" on="1"/>
        <pt x="350" y="828" on="0"/>
        <pt x="365" y="816" on="0"/>
        <pt x="366" y="809" on="1"/>
        <pt x="237" y="715" on="0"/>
        <pt x="210" y="553" on="1"/>
        <pt x="252" y="671" on="0"/>
        <pt x="421" y="804" on="0"/>
        <pt x="615" y="804" on="0"/>
        <pt x="752" y="637" on="0"/>
        <pt x="752" y="479" on="1"/>
        <pt x="752" y="324" on="0"/>
        <pt x="694" y="200" on="1"/>
        <pt x="664" y="134" on="0"/>
      </contour>
      <contour>
        <pt x="696" y="877" on="1"/>
        <pt x="659" y="866" on="0"/>
        <pt x="580" y="866" on="0"/>
        <pt x="546" y="909" on="0"/>
        <pt x="529" y="976" on="1"/>
        <pt x="477" y="896" on="0"/>
        <pt x="395" y="849" on="1"/>
        <pt x="345" y="883" on="0"/>
        <pt x="344" y="938" on="1"/>
        <pt x="426" y="989" on="0"/>
        <pt x="467" y="1030" on="1"/>
        <pt x="490" y="1053" on="1"/>
        <pt x="496" y="1059" on="0"/>
        <pt x="528" y="1098" on="0"/>
        <pt x="532" y="1102" on="1"/>
        <pt x="568" y="1102" on="0"/>
        <pt x="606" y="1062" on="0"/>
        <pt x="620" y="1006" on="0"/>
        <pt x="662" y="914" on="0"/>
      </contour>
    </TTGlyph>
    <TTGlyph name="Odieresis" xMin="50" yMin="-25" xMax="752" yMax="1043">
      <component glyphName="O" x="0" y="0" flags="0x1004"/>
      <component glyphName="dieresis" x="262" y="229" flags="0x1004"/>
    </TTGlyph>
    <TTGlyph name="Ograve" xMin="50" yMin="-25" xMax="752" yMax="1096">
      <contour>
        <pt x="601" y="590" on="0"/>
        <pt x="524" y="716" on="0"/>
        <pt x="391" y="716" on="0"/>
        <pt x="272" y="599" on="0"/>
        <pt x="205" y="421" on="0"/>
        <pt x="205" y="330" on="1"/>
        <pt x="205" y="205" on="0"/>
        <pt x="288" y="45" on="0"/>
        <pt x="372" y="45" on="1"/>
        <pt x="442" y="45" on="0"/>
        <pt x="549" y="168" on="0"/>
        <pt x="601" y="350" on="0"/>
        <pt x="601" y="450" on="1"/>
      </contour>
      <contour>
        <pt x="574" y="35" on="0"/>
        <pt x="439" y="-25" on="0"/>
        <pt x="279" y="-25" on="0"/>
        <pt x="158" y="47" on="0"/>
        <pt x="122" y="107" on="1"/>
        <pt x="50" y="227" on="0"/>
        <pt x="50" y="547" on="0"/>
        <pt x="209" y="797" on="0"/>
        <pt x="342" y="830" on="1"/>
        <pt x="350" y="828" on="0"/>
        <pt x="365" y="816" on="0"/>
        <pt x="366" y="809" on="1"/>
        <pt x="237" y="715" on="0"/>
        <pt x="210" y="553" on="1"/>
        <pt x="252" y="671" on="0"/>
        <pt x="421" y="804" on="0"/>
        <pt x="615" y="804" on="0"/>
        <pt x="752" y="637" on="0"/>
        <pt x="752" y="479" on="1"/>
        <pt x="752" y="324" on="0"/>
        <pt x="694" y="200" on="1"/>
        <pt x="664" y="134" on="0"/>
      </contour>
      <contour>
        <pt x="591" y="881" on="1"/>
        <pt x="589" y="870" on="0"/>
        <pt x="565" y="851" on="0"/>
        <pt x="549" y="848" on="1"/>
        <pt x="511" y="891" on="0"/>
        <pt x="390" y="972" on="0"/>
        <pt x="327" y="989" on="1"/>
        <pt x="330" y="1058" on="0"/>
        <pt x="390" y="1096" on="1"/>
        <pt x="446" y="1073" on="0"/>
        <pt x="564" y="942" on="0"/>
      </contour>
    </TTGlyph>
    <TTGlyph name="Omega" xMin="35" yMin="-11" xMax="750" yMax="720">
      <contour>
        <pt x="36" y="-11" on="1"/>
        <pt x="35" y="12" on="1"/>
        <pt x="35" y="67" on="0"/>
        <pt x="57" y="121" on="0"/>
        <pt x="123" y="121" on="0"/>
        <pt x="214" y="109" on="0"/>
        <pt x="266" y="109" on="0"/>
        <pt x="294" y="113" on="1"/>
        <pt x="296" y="129" on="1"/>
        <pt x="220" y="133" on="0"/>
        <pt x="156" y="185" on="1"/>
        <pt x="123" y="212" on="0"/>
        <pt x="84" y="312" on="0"/>
        <pt x="84" y="378" on="1"/>
        <pt x="84" y="506" on="0"/>
        <pt x="245" y="694" on="0"/>
        <pt x="378" y="720" on="1"/>
        <pt x="410" y="720" on="0"/>
        <pt x="412" y="684" on="1"/>
        <pt x="482" y="706" on="0"/>
        <pt x="538" y="706" on="1"/>
        <pt x="640" y="706" on="0"/>
        <pt x="750" y="582" on="0"/>
        <pt x="750" y="485" on="1"/>
        <pt x="750" y="348" on="0"/>
        <pt x="590" y="137" on="0"/>
        <pt x="456" y="128" on="1"/>
        <pt x="455" y="113" on="1"/>
        <pt x="480" y="109" on="0"/>
        <pt x="531" y="109" on="0"/>
        <pt x="621" y="121" on="0"/>
        <pt x="684" y="121" on="0"/>
        <pt x="706" y="67" on="0"/>
        <pt x="706" y="12" on="1"/>
        <pt x="706" y="8" on="0"/>
        <pt x="705" y="-7" on="0"/>
        <pt x="705" y="-11" on="1"/>
        <pt x="664" y="0" on="0"/>
        <pt x="620" y="0" on="1"/>
        <pt x="482" y="0" on="1"/>
        <pt x="439" y="0" on="0"/>
        <pt x="412" y="13" on="0"/>
        <pt x="405" y="39" on="0"/>
        <pt x="405" y="96" on="0"/>
        <pt x="414" y="179" on="1"/>
        <pt x="484" y="186" on="0"/>
        <pt x="594" y="337" on="0"/>
        <pt x="594" y="539" on="0"/>
        <pt x="514" y="641" on="0"/>
        <pt x="447" y="641" on="1"/>
        <pt x="361" y="641" on="0"/>
        <pt x="235" y="493" on="0"/>
        <pt x="235" y="377" on="1"/>
        <pt x="235" y="298" on="0"/>
        <pt x="294" y="200" on="0"/>
        <pt x="347" y="184" on="1"/>
        <pt x="341" y="92" on="0"/>
        <pt x="328" y="40" on="1"/>
        <pt x="319" y="8" on="0"/>
        <pt x="282" y="2" on="1"/>
        <pt x="271" y="0" on="0"/>
        <pt x="242" y="0" on="1"/>
        <pt x="121" y="0" on="1"/>
        <pt x="77" y="0" on="0"/>
      </contour>
    </TTGlyph>
    <TTGlyph name="Oslash" xMin="50" yMin="-120" xMax="752" yMax="930">
      <component glyphName="O" x="0" y="0" flags="0x1004"/>
      <component glyphName="slash" x="174" y="62" flags="0x1004"/>
    </TTGlyph>
    <TTGlyph name="Otilde" xMin="50" yMin="-25" xMax="752" yMax="1047">
      <component glyphName="O" x="0" y="0" flags="0x1004"/>
      <component glyphName="tilde" x="232" y="229" flags="0x1004"/>
    </TTGlyph>
    <TTGlyph name="P" xMin="80" yMin="-17" xMax="636" yMax="826">
      <contour>
        <pt x="130" y="-17" on="0"/>
        <pt x="80" y="23" on="0"/>
        <pt x="80" y="117" on="0"/>
        <pt x="147" y="592" on="0"/>
        <pt x="147" y="795" on="0"/>
        <pt x="133" y="826" on="1"/>
        <pt x="235" y="818" on="0"/>
        <pt x="267" y="746" on="1"/>
        <pt x="344" y="788" on="0"/>
        <pt x="529" y="788" on="0"/>
        <pt x="636" y="673" on="0"/>
        <pt x="636" y="589" on="1"/>
        <pt x="636" y="485" on="0"/>
        <pt x="560" y="401" on="1"/>
        <pt x="523" y="361" on="0"/>
        <pt x="406" y="311" on="0"/>
        <pt x="335" y="311" on="1"/>
        <pt x="305" y="311" on="0"/>
        <pt x="278" y="315" on="1"/>
        <pt x="275" y="357" on="1"/>
        <pt x="279" y="357" on="0"/>
        <pt x="283" y="357" on="1"/>
        <pt x="396" y="357" on="0"/>
        <pt x="463" y="441" on="1"/>
        <pt x="509" y="501" on="0"/>
        <pt x="509" y="567" on="1"/>
        <pt x="509" y="664" on="0"/>
        <pt x="430" y="695" on="1"/>
        <pt x="363" y="720" on="0"/>
        <pt x="280" y="685" on="1"/>
        <pt x="280" y="683" on="1"/>
        <pt x="280" y="645" on="0"/>
        <pt x="223" y="224" on="0"/>
        <pt x="223" y="83" on="1"/>
        <pt x="223" y="20" on="0"/>
        <pt x="229" y="-15" on="1"/>
        <pt x="197" y="-17" on="0"/>
        <pt x="187" y="-17" on="1"/>
      </contour>
    </TTGlyph>
    <TTGlyph name="Q" xMin="53" yMin="-312" xMax="789" yMax="800">
      <contour>
        <pt x="247" y="-156" on="1"/>
        <pt x="132" y="-121" on="0"/>
        <pt x="53" y="-119" on="1"/>
        <pt x="96" y="-46" on="0"/>
        <pt x="186" y="-46" on="1"/>
        <pt x="187" y="-46" on="1"/>
        <pt x="281" y="-35" on="0"/>
        <pt x="430" y="39" on="0"/>
        <pt x="521" y="138" on="0"/>
        <pt x="551" y="200" on="1"/>
        <pt x="604" y="311" on="0"/>
        <pt x="604" y="437" on="1"/>
        <pt x="604" y="604" on="0"/>
        <pt x="534" y="678" on="1"/>
        <pt x="497" y="717" on="0"/>
        <pt x="379" y="717" on="0"/>
        <pt x="269" y="603" on="0"/>
        <pt x="208" y="431" on="0"/>
        <pt x="208" y="341" on="1"/>
        <pt x="208" y="163" on="0"/>
        <pt x="285" y="163" on="1"/>
        <pt x="318" y="163" on="0"/>
        <pt x="359" y="220" on="0"/>
        <pt x="359" y="312" on="0"/>
        <pt x="334" y="370" on="0"/>
        <pt x="322" y="381" on="1"/>
        <pt x="309" y="392" on="1"/>
        <pt x="340" y="404" on="0"/>
        <pt x="423" y="404" on="0"/>
        <pt x="503" y="343" on="0"/>
        <pt x="503" y="279" on="1"/>
        <pt x="503" y="182" on="0"/>
        <pt x="376" y="69" on="0"/>
        <pt x="204" y="69" on="0"/>
        <pt x="67" y="214" on="0"/>
        <pt x="67" y="346" on="1"/>
        <pt x="67" y="474" on="0"/>
        <pt x="129" y="588" on="1"/>
        <pt x="162" y="648" on="0"/>
        <pt x="258" y="742" on="0"/>
        <pt x="403" y="800" on="0"/>
        <pt x="491" y="800" on="1"/>
        <pt x="601" y="800" on="0"/>
        <pt x="752" y="632" on="0"/>
        <pt x="752" y="475" on="1"/>
        <pt x="752" y="336" on="0"/>
        <pt x="696" y="216" on="1"/>
        <pt x="664" y="150" on="0"/>
        <pt x="568" y="41" on="0"/>
        <pt x="412" y="-50" on="0"/>
        <pt x="313" y="-74" on="1"/>
        <pt x="699" y="-195" on="0"/>
        <pt x="789" y="-195" on="1"/>
        <pt x="765" y="-252" on="0"/>
        <pt x="692" y="-312" on="0"/>
        <pt x="612" y="-312" on="0"/>
        <pt x="304" y="-173" on="0"/>
      </contour>
    </TTGlyph>
    <TTGlyph name="R" xMin="75" yMin="-48" xMax="675" yMax="826">
      <contour>
        <pt x="125" y="-17" on="0"/>
        <pt x="75" y="23" on="0"/>
        <pt x="75" y="117" on="0"/>
        <pt x="142" y="592" on="0"/>
        <pt x="142" y="795" on="0"/>
        <pt x="128" y="826" on="1"/>
        <pt x="229" y="818" on="0"/>
        <pt x="262" y="747" on="1"/>
        <pt x="334" y="787" on="0"/>
        <pt x="517" y="787" on="0"/>
        <pt x="634" y="682" on="0"/>
        <pt x="634" y="544" on="0"/>
        <pt x="540" y="407" on="0"/>
        <pt x="447" y="372" on="1"/>
        <pt x="460" y="333" on="1"/>
        <pt x="496" y="221" on="0"/>
        <pt x="632" y="2" on="0"/>
        <pt x="675" y="-38" on="1"/>
        <pt x="638" y="-48" on="0"/>
        <pt x="565" y="-48" on="0"/>
        <pt x="491" y="-1" on="0"/>
        <pt x="442" y="55" on="0"/>
        <pt x="382" y="177" on="0"/>
        <pt x="356" y="245" on="0"/>
        <pt x="325" y="327" on="0"/>
        <pt x="323" y="333" on="0"/>
        <pt x="319" y="342" on="0"/>
        <pt x="318" y="346" on="1"/>
        <pt x="296" y="346" on="0"/>
        <pt x="275" y="346" on="1"/>
        <pt x="272" y="392" on="1"/>
        <pt x="399" y="397" on="0"/>
        <pt x="461" y="483" on="1"/>
        <pt x="495" y="531" on="0"/>
        <pt x="495" y="581" on="1"/>
        <pt x="495" y="600" on="0"/>
        <pt x="491" y="618" on="1"/>
        <pt x="474" y="683" on="0"/>
        <pt x="410" y="699" on="1"/>
        <pt x="392" y="704" on="0"/>
        <pt x="328" y="704" on="0"/>
        <pt x="275" y="683" on="1"/>
        <pt x="275" y="645" on="0"/>
        <pt x="218" y="224" on="0"/>
        <pt x="218" y="83" on="1"/>
        <pt x="218" y="20" on="0"/>
        <pt x="224" y="-15" on="1"/>
        <pt x="192" y="-17" on="0"/>
        <pt x="182" y="-17" on="1"/>
      </contour>
    </TTGlyph>
    <TTGlyph name="S" xMin="28" yMin="-25" xMax="580" yMax="812">
      <contour>
        <pt x="290" y="738" on="0"/>
        <pt x="230" y="683" on="0"/>
        <pt x="230" y="583" on="0"/>
        <pt x="281" y="504" on="0"/>
        <pt x="356" y="449" on="0"/>
        <pt x="445" y="385" on="0"/>
        <pt x="520" y="328" on="0"/>
        <pt x="571" y="244" on="0"/>
        <pt x="571" y="197" on="1"/>
        <pt x="571" y="104" on="0"/>
        <pt x="419" y="-25" on="0"/>
        <pt x="172" y="-25" on="0"/>
        <pt x="28" y="81" on="0"/>
        <pt x="28" y="215" on="0"/>
        <pt x="108" y="290" on="0"/>
        <pt x="171" y="290" on="1"/>
        <pt x="189" y="290" on="0"/>
        <pt x="205" y="286" on="1"/>
        <pt x="174" y="240" on="0"/>
        <pt x="174" y="133" on="0"/>
        <pt x="240" y="56" on="0"/>
        <pt x="349" y="56" on="0"/>
        <pt x="423" y="113" on="0"/>
        <pt x="423" y="202" on="0"/>
        <pt x="373" y="270" on="0"/>
        <pt x="299" y="319" on="0"/>
        <pt x="211" y="382" on="0"/>
        <pt x="137" y="446" on="0"/>
        <pt x="87" y="545" on="0"/>
        <pt x="87" y="604" on="1"/>
        <pt x="87" y="699" on="0"/>
        <pt x="225" y="812" on="0"/>
        <pt x="459" y="812" on="0"/>
        <pt x="580" y="707" on="0"/>
        <pt x="580" y="588" on="0"/>
        <pt x="504" y="507" on="0"/>
        <pt x="439" y="507" on="1"/>
        <pt x="417" y="507" on="0"/>
        <pt x="396" y="511" on="1"/>
        <pt x="445" y="563" on="0"/>
        <pt x="445" y="678" on="0"/>
        <pt x="381" y="738" on="0"/>
      </contour>
    </TTGlyph>
    <TTGlyph name="Scaron" xMin="28" yMin="-25" xMax="580" yMax="1101">
      <component glyphName="S" x="0" y="0" flags="0x1004"/>
      <component glyphName="caron" x="122" y="229" flags="0x1004"/>
    </TTGlyph>
    <TTGlyph name="T" xMin="20" yMin="-31" xMax="603" yMax="799">
      <contour>
        <pt x="20" y="721" on="1"/>
        <pt x="22" y="760" on="0"/>
        <pt x="28" y="781" on="1"/>
        <pt x="136" y="763" on="0"/>
        <pt x="438" y="763" on="0"/>
        <pt x="603" y="799" on="1"/>
        <pt x="586" y="672" on="0"/>
        <pt x="474" y="660" on="1"/>
        <pt x="439" y="655" on="0"/>
        <pt x="366" y="650" on="1"/>
        <pt x="364" y="621" on="0"/>
        <pt x="302" y="172" on="0"/>
        <pt x="302" y="2" on="0"/>
        <pt x="316" y="-31" on="1"/>
        <pt x="231" y="-9" on="0"/>
        <pt x="169" y="64" on="0"/>
        <pt x="169" y="172" on="0"/>
        <pt x="220" y="533" on="0"/>
        <pt x="225" y="643" on="1"/>
        <pt x="144" y="639" on="0"/>
        <pt x="66" y="639" on="1"/>
        <pt x="20" y="639" on="0"/>
      </contour>
    </TTGlyph>
    <TTGlyph name="Thorn" xMin="80" yMin="-17" xMax="627" yMax="826">
      <contour>
        <pt x="130" y="-17" on="0"/>
        <pt x="80" y="23" on="0"/>
        <pt x="80" y="117" on="0"/>
        <pt x="147" y="592" on="0"/>
        <pt x="147" y="795" on="0"/>
        <pt x="133" y="826" on="1"/>
        <pt x="203" y="821" on="0"/>
        <pt x="280" y="746" on="0"/>
        <pt x="280" y="683" on="1"/>
        <pt x="280" y="657" on="0"/>
        <pt x="275" y="610" on="1"/>
        <pt x="347" y="643" on="0"/>
        <pt x="421" y="643" on="1"/>
        <pt x="520" y="643" on="0"/>
        <pt x="627" y="528" on="0"/>
        <pt x="627" y="444" on="1"/>
        <pt x="627" y="340" on="0"/>
        <pt x="550" y="256" on="1"/>
        <pt x="514" y="216" on="0"/>
        <pt x="397" y="166" on="0"/>
        <pt x="326" y="166" on="1"/>
        <pt x="296" y="166" on="0"/>
        <pt x="269" y="170" on="1"/>
        <pt x="266" y="212" on="1"/>
        <pt x="372" y="212" on="0"/>
        <pt x="500" y="342" on="0"/>
        <pt x="500" y="425" on="1"/>
        <pt x="500" y="483" on="0"/>
        <pt x="429" y="559" on="0"/>
        <pt x="362" y="560" on="1"/>
        <pt x="317" y="560" on="0"/>
        <pt x="266" y="538" on="1"/>
        <pt x="265" y="530" on="0"/>
        <pt x="252" y="439" on="0"/>
        <pt x="248" y="404" on="0"/>
        <pt x="237" y="319" on="0"/>
        <pt x="232" y="265" on="0"/>
        <pt x="229" y="226" on="1"/>
        <pt x="223" y="150" on="0"/>
        <pt x="223" y="20" on="0"/>
        <pt x="229" y="-15" on="1"/>
        <pt x="197" y="-17" on="0"/>
        <pt x="187" y="-17" on="1"/>
      </contour>
    </TTGlyph>
    <TTGlyph name="U" xMin="70" yMin="-31" xMax="685" yMax="802">
      <contour>
        <pt x="682" y="737" on="0"/>
        <pt x="685" y="709" on="0"/>
        <pt x="685" y="635" on="0"/>
        <pt x="619" y="183" on="0"/>
        <pt x="619" y="2" on="0"/>
        <pt x="633" y="-31" on="1"/>
        <pt x="548" y="-9" on="0"/>
        <pt x="486" y="64" on="0"/>
        <pt x="486" y="129" on="1"/>
        <pt x="486" y="149" on="0"/>
        <pt x="487" y="160" on="1"/>
        <pt x="396" y="-20" on="0"/>
        <pt x="238" y="-20" on="1"/>
        <pt x="154" y="-20" on="0"/>
        <pt x="70" y="95" on="0"/>
        <pt x="70" y="220" on="1"/>
        <pt x="70" y="291" on="0"/>
        <pt x="115" y="661" on="0"/>
        <pt x="115" y="772" on="0"/>
        <pt x="104" y="802" on="1"/>
        <pt x="187" y="781" on="0"/>
        <pt x="250" y="712" on="0"/>
        <pt x="250" y="587" on="0"/>
        <pt x="210" y="314" on="0"/>
        <pt x="210" y="147" on="0"/>
        <pt x="258" y="77" on="0"/>
        <pt x="301" y="77" on="1"/>
        <pt x="352" y="77" on="0"/>
        <pt x="400" y="122" on="1"/>
        <pt x="498" y="215" on="0"/>
        <pt x="528" y="479" on="1"/>
        <pt x="528" y="481" on="1"/>
        <pt x="544" y="620" on="0"/>
        <pt x="544" y="750" on="0"/>
        <pt x="540" y="802" on="1"/>
        <pt x="616" y="798" on="0"/>
        <pt x="651" y="778" on="1"/>
        <pt x="666" y="770" on="0"/>
      </contour>
    </TTGlyph>
    <TTGlyph name="Uacute" xMin="70" yMin="-31" xMax="685" yMax="1096">
      <component glyphName="U" x="0" y="0" flags="0x1004"/>
      <component glyphName="acute" x="209" y="229" flags="0x1004"/>
    </TTGlyph>
    <TTGlyph name="Ucircumflex" xMin="70" yMin="-31" xMax="685" yMax="1102">
      <contour>
        <pt x="682" y="737" on="0"/>
        <pt x="685" y="709" on="0"/>
        <pt x="685" y="635" on="0"/>
        <pt x="619" y="183" on="0"/>
        <pt x="619" y="2" on="0"/>
        <pt x="633" y="-31" on="1"/>
        <pt x="548" y="-9" on="0"/>
        <pt x="486" y="64" on="0"/>
        <pt x="486" y="129" on="1"/>
        <pt x="486" y="149" on="0"/>
        <pt x="487" y="160" on="1"/>
        <pt x="396" y="-20" on="0"/>
        <pt x="238" y="-20" on="1"/>
        <pt x="154" y="-20" on="0"/>
        <pt x="70" y="95" on="0"/>
        <pt x="70" y="220" on="1"/>
        <pt x="70" y="291" on="0"/>
        <pt x="115" y="661" on="0"/>
        <pt x="115" y="772" on="0"/>
        <pt x="104" y="802" on="1"/>
        <pt x="187" y="781" on="0"/>
        <pt x="250" y="712" on="0"/>
        <pt x="250" y="587" on="0"/>
        <pt x="210" y="314" on="0"/>
        <pt x="210" y="147" on="0"/>
        <pt x="258" y="77" on="0"/>
        <pt x="301" y="77" on="1"/>
        <pt x="352" y="77" on="0"/>
        <pt x="400" y="122" on="1"/>
        <pt x="498" y="215" on="0"/>
        <pt x="528" y="479" on="1"/>
        <pt x="528" y="481" on="1"/>
        <pt x="544" y="620" on="0"/>
        <pt x="544" y="750" on="0"/>
        <pt x="540" y="802" on="1"/>
        <pt x="616" y="798" on="0"/>
        <pt x="651" y="778" on="1"/>
        <pt x="666" y="770" on="0"/>
      </contour>
      <contour>
        <pt x="592" y="877" on="1"/>
        <pt x="555" y="866" on="0"/>
        <pt x="476" y="866" on="0"/>
        <pt x="442" y="909" on="0"/>
        <pt x="425" y="976" on="1"/>
        <pt x="373" y="896" on="0"/>
        <pt x="291" y="849" on="1"/>
        <pt x="241" y="883" on="0"/>
        <pt x="240" y="938" on="1"/>
        <pt x="322" y="989" on="0"/>
        <pt x="363" y="1030" on="1"/>
        <pt x="386" y="1053" on="1"/>
        <pt x="392" y="1059" on="0"/>
        <pt x="424" y="1098" on="0"/>
        <pt x="428" y="1102" on="1"/>
        <pt x="464" y="1102" on="0"/>
        <pt x="502" y="1062" on="0"/>
        <pt x="516" y="1006" on="0"/>
        <pt x="558" y="914" on="0"/>
      </contour>
    </TTGlyph>
    <TTGlyph name="Udieresis" xMin="70" yMin="-31" xMax="685" yMax="1043">
      <component glyphName="U" x="0" y="0" flags="0x1004"/>
      <component glyphName="dieresis" x="173" y="229" flags="0x1004"/>
    </TTGlyph>
    <TTGlyph name="Ugrave" xMin="70" yMin="-31" xMax="685" yMax="1096">
      <contour>
        <pt x="682" y="737" on="0"/>
        <pt x="685" y="709" on="0"/>
        <pt x="685" y="635" on="0"/>
        <pt x="619" y="183" on="0"/>
        <pt x="619" y="2" on="0"/>
        <pt x="633" y="-31" on="1"/>
        <pt x="548" y="-9" on="0"/>
        <pt x="486" y="64" on="0"/>
        <pt x="486" y="129" on="1"/>
        <pt x="486" y="149" on="0"/>
        <pt x="487" y="160" on="1"/>
        <pt x="396" y="-20" on="0"/>
        <pt x="238" y="-20" on="1"/>
        <pt x="154" y="-20" on="0"/>
        <pt x="70" y="95" on="0"/>
        <pt x="70" y="220" on="1"/>
        <pt x="70" y="291" on="0"/>
        <pt x="115" y="661" on="0"/>
        <pt x="115" y="772" on="0"/>
        <pt x="104" y="802" on="1"/>
        <pt x="187" y="781" on="0"/>
        <pt x="250" y="712" on="0"/>
        <pt x="250" y="587" on="0"/>
        <pt x="210" y="314" on="0"/>
        <pt x="210" y="147" on="0"/>
        <pt x="258" y="77" on="0"/>
        <pt x="301" y="77" on="1"/>
        <pt x="352" y="77" on="0"/>
        <pt x="400" y="122" on="1"/>
        <pt x="498" y="215" on="0"/>
        <pt x="528" y="479" on="1"/>
        <pt x="528" y="481" on="1"/>
        <pt x="544" y="620" on="0"/>
        <pt x="544" y="750" on="0"/>
        <pt x="540" y="802" on="1"/>
        <pt x="616" y="798" on="0"/>
        <pt x="651" y="778" on="1"/>
        <pt x="666" y="770" on="0"/>
      </contour>
      <contour>
        <pt x="509" y="881" on="1"/>
        <pt x="507" y="870" on="0"/>
        <pt x="483" y="851" on="0"/>
        <pt x="467" y="848" on="1"/>
        <pt x="429" y="891" on="0"/>
        <pt x="308" y="972" on="0"/>
        <pt x="245" y="989" on="1"/>
        <pt x="248" y="1058" on="0"/>
        <pt x="308" y="1096" on="1"/>
        <pt x="364" y="1073" on="0"/>
        <pt x="482" y="942" on="0"/>
      </contour>
    </TTGlyph>
    <TTGlyph name="V" xMin="16" yMin="-14" xMax="644" yMax="807">
      <contour>
        <pt x="342" y="0" on="1"/>
        <pt x="334" y="-3" on="0"/>
        <pt x="270" y="-14" on="0"/>
        <pt x="217" y="-14" on="0"/>
        <pt x="213" y="1" on="1"/>
        <pt x="195" y="63" on="0"/>
        <pt x="123" y="424" on="0"/>
        <pt x="50" y="718" on="0"/>
        <pt x="16" y="766" on="1"/>
        <pt x="71" y="792" on="0"/>
        <pt x="135" y="792" on="0"/>
        <pt x="163" y="778" on="0"/>
        <pt x="190" y="730" on="0"/>
        <pt x="200" y="690" on="1"/>
        <pt x="215" y="630" on="0"/>
        <pt x="259" y="394" on="0"/>
        <pt x="262" y="382" on="1"/>
        <pt x="297" y="204" on="0"/>
        <pt x="308" y="138" on="1"/>
        <pt x="373" y="277" on="0"/>
        <pt x="531" y="738" on="0"/>
        <pt x="531" y="807" on="1"/>
        <pt x="644" y="788" on="0"/>
        <pt x="644" y="733" on="1"/>
        <pt x="644" y="692" on="0"/>
        <pt x="531" y="427" on="0"/>
        <pt x="372" y="82" on="0"/>
      </contour>
    </TTGlyph>
    <TTGlyph name="W" xMin="34" yMin="-14" xMax="972" yMax="807">
      <contour>
        <pt x="670" y="0" on="1"/>
        <pt x="663" y="-3" on="0"/>
        <pt x="600" y="-14" on="0"/>
        <pt x="545" y="-14" on="0"/>
        <pt x="545" y="1" on="1"/>
        <pt x="532" y="54" on="0"/>
        <pt x="481" y="380" on="1"/>
        <pt x="343" y="73" on="0"/>
        <pt x="317" y="0" on="1"/>
        <pt x="310" y="-3" on="0"/>
        <pt x="246" y="-14" on="0"/>
        <pt x="192" y="-14" on="0"/>
        <pt x="192" y="1" on="1"/>
        <pt x="177" y="64" on="0"/>
        <pt x="123" y="424" on="0"/>
        <pt x="65" y="718" on="0"/>
        <pt x="34" y="766" on="1"/>
        <pt x="89" y="792" on="0"/>
        <pt x="160" y="792" on="0"/>
        <pt x="192" y="766" on="0"/>
        <pt x="219" y="679" on="0"/>
        <pt x="241" y="524" on="0"/>
        <pt x="258" y="387" on="0"/>
        <pt x="258" y="385" on="0"/>
        <pt x="260" y="368" on="0"/>
        <pt x="289" y="167" on="0"/>
        <pt x="293" y="138" on="1"/>
        <pt x="370" y="303" on="0"/>
        <pt x="452" y="546" on="1"/>
        <pt x="420" y="712" on="0"/>
        <pt x="387" y="766" on="1"/>
        <pt x="442" y="792" on="0"/>
        <pt x="513" y="792" on="0"/>
        <pt x="545" y="766" on="0"/>
        <pt x="572" y="679" on="0"/>
        <pt x="594" y="524" on="0"/>
        <pt x="611" y="387" on="0"/>
        <pt x="611" y="385" on="0"/>
        <pt x="613" y="368" on="0"/>
        <pt x="642" y="167" on="0"/>
        <pt x="646" y="138" on="1"/>
        <pt x="716" y="320" on="0"/>
        <pt x="860" y="742" on="0"/>
        <pt x="864" y="807" on="1"/>
        <pt x="972" y="785" on="0"/>
        <pt x="972" y="737" on="1"/>
        <pt x="972" y="672" on="0"/>
        <pt x="766" y="220" on="1"/>
        <pt x="686" y="43" on="0"/>
      </contour>
    </TTGlyph>
    <TTGlyph name="X" xMin="16" yMin="-33" xMax="655" yMax="809">
      <contour>
        <pt x="571" y="-33" on="1"/>
        <pt x="489" y="-33" on="0"/>
        <pt x="359" y="139" on="0"/>
        <pt x="293" y="296" on="1"/>
        <pt x="156" y="137" on="0"/>
        <pt x="99" y="-31" on="1"/>
        <pt x="17" y="22" on="0"/>
        <pt x="15" y="138" on="0"/>
        <pt x="135" y="286" on="0"/>
        <pt x="252" y="398" on="1"/>
        <pt x="246" y="414" on="0"/>
        <pt x="214" y="494" on="0"/>
        <pt x="190" y="555" on="0"/>
        <pt x="179" y="579" on="0"/>
        <pt x="157" y="631" on="0"/>
        <pt x="143" y="658" on="0"/>
        <pt x="122" y="702" on="0"/>
        <pt x="114" y="716" on="1"/>
        <pt x="89" y="757" on="0"/>
        <pt x="75" y="776" on="1"/>
        <pt x="132" y="803" on="0"/>
        <pt x="204" y="803" on="0"/>
        <pt x="247" y="766" on="0"/>
        <pt x="298" y="657" on="0"/>
        <pt x="320" y="601" on="0"/>
        <pt x="355" y="502" on="0"/>
        <pt x="357" y="497" on="1"/>
        <pt x="458" y="596" on="0"/>
        <pt x="572" y="746" on="0"/>
        <pt x="575" y="809" on="1"/>
        <pt x="615" y="792" on="0"/>
        <pt x="655" y="738" on="0"/>
        <pt x="655" y="689" on="0"/>
        <pt x="630" y="634" on="0"/>
        <pt x="571" y="568" on="0"/>
        <pt x="520" y="518" on="0"/>
        <pt x="422" y="428" on="0"/>
        <pt x="393" y="400" on="1"/>
        <pt x="505" y="110" on="0"/>
        <pt x="635" y="-28" on="1"/>
        <pt x="609" y="-33" on="0"/>
      </contour>
    </TTGlyph>
    <TTGlyph name="Y" xMin="8" yMin="-31" xMax="580" yMax="833">
      <contour>
        <pt x="281" y="404" on="1"/>
        <pt x="288" y="365" on="1"/>
        <pt x="380" y="508" on="0"/>
        <pt x="495" y="762" on="0"/>
        <pt x="505" y="833" on="1"/>
        <pt x="580" y="791" on="0"/>
        <pt x="580" y="722" on="1"/>
        <pt x="580" y="648" on="0"/>
        <pt x="327" y="283" on="1"/>
        <pt x="311" y="148" on="0"/>
        <pt x="311" y="2" on="0"/>
        <pt x="325" y="-31" on="1"/>
        <pt x="240" y="-9" on="0"/>
        <pt x="178" y="64" on="0"/>
        <pt x="178" y="175" on="0"/>
        <pt x="193" y="278" on="1"/>
        <pt x="86" y="660" on="0"/>
        <pt x="8" y="777" on="1"/>
        <pt x="49" y="803" on="0"/>
        <pt x="94" y="803" on="1"/>
        <pt x="118" y="803" on="0"/>
        <pt x="151" y="794" on="0"/>
        <pt x="183" y="762" on="0"/>
        <pt x="206" y="712" on="0"/>
        <pt x="220" y="664" on="1"/>
        <pt x="244" y="588" on="0"/>
      </contour>
    </TTGlyph>
    <TTGlyph name="Yacute" xMin="8" yMin="-31" xMax="580" yMax="1096">
      <component glyphName="Y" x="0" y="0" flags="0x1004"/>
      <component glyphName="acute" x="160" y="229" flags="0x1004"/>
    </TTGlyph>
    <TTGlyph name="Ydieresis" xMin="8" yMin="-31" xMax="580" yMax="1043">
      <contour>
        <pt x="281" y="404" on="1"/>
        <pt x="288" y="365" on="1"/>
        <pt x="380" y="508" on="0"/>
        <pt x="495" y="762" on="0"/>
        <pt x="505" y="833" on="1"/>
        <pt x="580" y="791" on="0"/>
        <pt x="580" y="722" on="1"/>
        <pt x="580" y="648" on="0"/>
        <pt x="327" y="283" on="1"/>
        <pt x="311" y="148" on="0"/>
        <pt x="311" y="2" on="0"/>
        <pt x="325" y="-31" on="1"/>
        <pt x="240" y="-9" on="0"/>
        <pt x="178" y="64" on="0"/>
        <pt x="178" y="175" on="0"/>
        <pt x="193" y="278" on="1"/>
        <pt x="86" y="660" on="0"/>
        <pt x="8" y="777" on="1"/>
        <pt x="49" y="803" on="0"/>
        <pt x="94" y="803" on="1"/>
        <pt x="118" y="803" on="0"/>
        <pt x="151" y="794" on="0"/>
        <pt x="183" y="762" on="0"/>
        <pt x="206" y="712" on="0"/>
        <pt x="220" y="664" on="1"/>
        <pt x="244" y="588" on="0"/>
      </contour>
      <contour>
        <pt x="299" y="900" on="1"/>
        <pt x="271" y="896" on="0"/>
        <pt x="250" y="896" on="1"/>
        <pt x="147" y="896" on="0"/>
        <pt x="147" y="968" on="1"/>
        <pt x="147" y="994" on="0"/>
        <pt x="162" y="1039" on="1"/>
        <pt x="190" y="1043" on="0"/>
        <pt x="211" y="1043" on="1"/>
        <pt x="314" y="1043" on="0"/>
        <pt x="314" y="971" on="1"/>
        <pt x="314" y="945" on="0"/>
      </contour>
      <contour>
        <pt x="509" y="900" on="1"/>
        <pt x="481" y="896" on="0"/>
        <pt x="460" y="896" on="1"/>
        <pt x="357" y="896" on="0"/>
        <pt x="357" y="968" on="1"/>
        <pt x="357" y="994" on="0"/>
        <pt x="372" y="1039" on="1"/>
        <pt x="400" y="1043" on="0"/>
        <pt x="421" y="1043" on="1"/>
        <pt x="524" y="1043" on="0"/>
        <pt x="524" y="971" on="1"/>
        <pt x="524" y="945" on="0"/>
      </contour>
    </TTGlyph>
    <TTGlyph name="Z" xMin="-21" yMin="-12" xMax="631" yMax="838">
      <contour>
        <pt x="105" y="719" on="1"/>
        <pt x="107" y="765" on="0"/>
        <pt x="113" y="784" on="1"/>
        <pt x="236" y="767" on="0"/>
        <pt x="490" y="767" on="0"/>
        <pt x="543" y="773" on="1"/>
        <pt x="560" y="813" on="0"/>
        <pt x="565" y="838" on="1"/>
        <pt x="631" y="772" on="0"/>
        <pt x="631" y="706" on="1"/>
        <pt x="631" y="641" on="0"/>
        <pt x="530" y="516" on="1"/>
        <pt x="483" y="457" on="0"/>
        <pt x="431" y="396" on="1"/>
        <pt x="287" y="229" on="0"/>
        <pt x="208" y="106" on="1"/>
        <pt x="223" y="106" on="1"/>
        <pt x="466" y="106" on="0"/>
        <pt x="582" y="144" on="1"/>
        <pt x="573" y="70" on="0"/>
        <pt x="501" y="-12" on="0"/>
        <pt x="447" y="-12" on="1"/>
        <pt x="419" y="-12" on="0"/>
        <pt x="243" y="10" on="0"/>
        <pt x="57" y="10" on="0"/>
        <pt x="-21" y="-10" on="1"/>
        <pt x="-1" y="67" on="0"/>
        <pt x="74" y="94" on="1"/>
        <pt x="362" y="434" on="0"/>
        <pt x="499" y="683" on="1"/>
        <pt x="238" y="627" on="0"/>
        <pt x="153" y="627" on="1"/>
        <pt x="105" y="627" on="0"/>
      </contour>
    </TTGlyph>
    <TTGlyph name="Zcaron" xMin="-21" yMin="-12" xMax="631" yMax="1101">
      <component glyphName="Z" x="0" y="0" flags="0x1004"/>
      <component glyphName="caron" x="152" y="229" flags="0x1004"/>
    </TTGlyph>
    <TTGlyph name="a" xMin="38" yMin="-33" xMax="575" yMax="570">
      <contour>
        <pt x="186" y="189" on="1"/>
        <pt x="186" y="142" on="0"/>
        <pt x="221" y="83" on="0"/>
        <pt x="253" y="83" on="1"/>
        <pt x="300" y="83" on="0"/>
        <pt x="385" y="193" on="0"/>
        <pt x="436" y="365" on="0"/>
        <pt x="436" y="520" on="0"/>
        <pt x="430" y="568" on="1"/>
        <pt x="460" y="570" on="0"/>
        <pt x="472" y="570" on="1"/>
        <pt x="523" y="570" on="0"/>
        <pt x="575" y="532" on="0"/>
        <pt x="575" y="483" on="1"/>
        <pt x="575" y="464" on="0"/>
        <pt x="527" y="193" on="0"/>
        <pt x="527" y="30" on="0"/>
        <pt x="558" y="-33" on="1"/>
        <pt x="483" y="-20" on="0"/>
        <pt x="413" y="65" on="0"/>
        <pt x="413" y="145" on="1"/>
        <pt x="413" y="159" on="0"/>
        <pt x="417" y="199" on="1"/>
        <pt x="390" y="104" on="0"/>
        <pt x="252" y="-12" on="0"/>
        <pt x="119" y="-12" on="0"/>
        <pt x="38" y="87" on="0"/>
        <pt x="38" y="269" on="0"/>
        <pt x="103" y="440" on="0"/>
        <pt x="233" y="559" on="0"/>
        <pt x="313" y="559" on="1"/>
        <pt x="359" y="559" on="0"/>
        <pt x="407" y="537" on="1"/>
        <pt x="306" y="501" on="0"/>
        <pt x="186" y="290" on="0"/>
      </contour>
    </TTGlyph>
    <TTGlyph name="aacute" xMin="38" yMin="-33" xMax="575" yMax="867">
      <contour>
        <pt x="280" y="652" on="1"/>
        <pt x="307" y="713" on="0"/>
        <pt x="425" y="844" on="0"/>
        <pt x="481" y="867" on="1"/>
        <pt x="541" y="829" on="0"/>
        <pt x="544" y="760" on="1"/>
        <pt x="481" y="743" on="0"/>
        <pt x="360" y="662" on="0"/>
        <pt x="322" y="619" on="1"/>
        <pt x="306" y="622" on="0"/>
        <pt x="282" y="641" on="0"/>
      </contour>
      <contour>
        <pt x="186" y="189" on="1"/>
        <pt x="186" y="142" on="0"/>
        <pt x="221" y="83" on="0"/>
        <pt x="253" y="83" on="1"/>
        <pt x="300" y="83" on="0"/>
        <pt x="385" y="193" on="0"/>
        <pt x="436" y="365" on="0"/>
        <pt x="436" y="520" on="0"/>
        <pt x="430" y="568" on="1"/>
        <pt x="460" y="570" on="0"/>
        <pt x="472" y="570" on="1"/>
        <pt x="523" y="570" on="0"/>
        <pt x="575" y="532" on="0"/>
        <pt x="575" y="483" on="1"/>
        <pt x="575" y="464" on="0"/>
        <pt x="527" y="193" on="0"/>
        <pt x="527" y="30" on="0"/>
        <pt x="558" y="-33" on="1"/>
        <pt x="483" y="-20" on="0"/>
        <pt x="413" y="65" on="0"/>
        <pt x="413" y="145" on="1"/>
        <pt x="413" y="159" on="0"/>
        <pt x="417" y="199" on="1"/>
        <pt x="390" y="104" on="0"/>
        <pt x="252" y="-12" on="0"/>
        <pt x="119" y="-12" on="0"/>
        <pt x="38" y="87" on="0"/>
        <pt x="38" y="269" on="0"/>
        <pt x="103" y="440" on="0"/>
        <pt x="233" y="559" on="0"/>
        <pt x="313" y="559" on="1"/>
        <pt x="359" y="559" on="0"/>
        <pt x="407" y="537" on="1"/>
        <pt x="306" y="501" on="0"/>
        <pt x="186" y="290" on="0"/>
      </contour>
    </TTGlyph>
    <TTGlyph name="acircumflex" xMin="38" yMin="-33" xMax="582" yMax="873">
      <contour>
        <pt x="582" y="648" on="1"/>
        <pt x="545" y="637" on="0"/>
        <pt x="466" y="637" on="0"/>
        <pt x="432" y="680" on="0"/>
        <pt x="415" y="747" on="1"/>
        <pt x="363" y="667" on="0"/>
        <pt x="281" y="620" on="1"/>
        <pt x="231" y="654" on="0"/>
        <pt x="230" y="709" on="1"/>
        <pt x="312" y="760" on="0"/>
        <pt x="353" y="801" on="1"/>
        <pt x="353" y="801" on="0"/>
        <pt x="376" y="824" on="1"/>
        <pt x="382" y="830" on="0"/>
        <pt x="414" y="869" on="0"/>
        <pt x="418" y="873" on="1"/>
        <pt x="454" y="873" on="0"/>
        <pt x="492" y="833" on="0"/>
        <pt x="506" y="777" on="0"/>
        <pt x="548" y="685" on="0"/>
      </contour>
      <contour>
        <pt x="186" y="189" on="1"/>
        <pt x="186" y="142" on="0"/>
        <pt x="221" y="83" on="0"/>
        <pt x="253" y="83" on="1"/>
        <pt x="300" y="83" on="0"/>
        <pt x="385" y="193" on="0"/>
        <pt x="436" y="365" on="0"/>
        <pt x="436" y="520" on="0"/>
        <pt x="430" y="568" on="1"/>
        <pt x="460" y="570" on="0"/>
        <pt x="472" y="570" on="1"/>
        <pt x="523" y="570" on="0"/>
        <pt x="575" y="532" on="0"/>
        <pt x="575" y="483" on="1"/>
        <pt x="575" y="464" on="0"/>
        <pt x="527" y="193" on="0"/>
        <pt x="527" y="30" on="0"/>
        <pt x="558" y="-33" on="1"/>
        <pt x="483" y="-20" on="0"/>
        <pt x="413" y="65" on="0"/>
        <pt x="413" y="145" on="1"/>
        <pt x="413" y="159" on="0"/>
        <pt x="417" y="199" on="1"/>
        <pt x="390" y="104" on="0"/>
        <pt x="252" y="-12" on="0"/>
        <pt x="119" y="-12" on="0"/>
        <pt x="38" y="87" on="0"/>
        <pt x="38" y="269" on="0"/>
        <pt x="103" y="440" on="0"/>
        <pt x="233" y="559" on="0"/>
        <pt x="313" y="559" on="1"/>
        <pt x="359" y="559" on="0"/>
        <pt x="407" y="537" on="1"/>
        <pt x="306" y="501" on="0"/>
        <pt x="186" y="290" on="0"/>
      </contour>
    </TTGlyph>
    <TTGlyph name="acute" xMin="88" yMin="619" xMax="352" yMax="867">
      <contour>
        <pt x="88" y="652" on="1"/>
        <pt x="115" y="713" on="0"/>
        <pt x="233" y="844" on="0"/>
        <pt x="289" y="867" on="1"/>
        <pt x="349" y="829" on="0"/>
        <pt x="352" y="760" on="1"/>
        <pt x="289" y="743" on="0"/>
        <pt x="168" y="662" on="0"/>
        <pt x="130" y="619" on="1"/>
        <pt x="114" y="622" on="0"/>
        <pt x="90" y="641" on="0"/>
      </contour>
    </TTGlyph>
    <TTGlyph name="adieresis" xMin="38" yMin="-33" xMax="613" yMax="814">
      <contour>
        <pt x="388" y="671" on="1"/>
        <pt x="360" y="667" on="0"/>
        <pt x="339" y="667" on="1"/>
        <pt x="236" y="667" on="0"/>
        <pt x="236" y="739" on="1"/>
        <pt x="236" y="765" on="0"/>
        <pt x="251" y="810" on="1"/>
        <pt x="279" y="814" on="0"/>
        <pt x="300" y="814" on="1"/>
        <pt x="403" y="814" on="0"/>
        <pt x="403" y="742" on="1"/>
        <pt x="403" y="716" on="0"/>
      </contour>
      <contour>
        <pt x="598" y="671" on="1"/>
        <pt x="570" y="667" on="0"/>
        <pt x="549" y="667" on="1"/>
        <pt x="446" y="667" on="0"/>
        <pt x="446" y="739" on="1"/>
        <pt x="446" y="765" on="0"/>
        <pt x="461" y="810" on="1"/>
        <pt x="489" y="814" on="0"/>
        <pt x="510" y="814" on="1"/>
        <pt x="613" y="814" on="0"/>
        <pt x="613" y="742" on="1"/>
        <pt x="613" y="716" on="0"/>
      </contour>
      <contour>
        <pt x="186" y="189" on="1"/>
        <pt x="186" y="142" on="0"/>
        <pt x="221" y="83" on="0"/>
        <pt x="253" y="83" on="1"/>
        <pt x="300" y="83" on="0"/>
        <pt x="385" y="193" on="0"/>
        <pt x="436" y="365" on="0"/>
        <pt x="436" y="520" on="0"/>
        <pt x="430" y="568" on="1"/>
        <pt x="460" y="570" on="0"/>
        <pt x="472" y="570" on="1"/>
        <pt x="523" y="570" on="0"/>
        <pt x="575" y="532" on="0"/>
        <pt x="575" y="483" on="1"/>
        <pt x="575" y="464" on="0"/>
        <pt x="527" y="193" on="0"/>
        <pt x="527" y="30" on="0"/>
        <pt x="558" y="-33" on="1"/>
        <pt x="483" y="-20" on="0"/>
        <pt x="413" y="65" on="0"/>
        <pt x="413" y="145" on="1"/>
        <pt x="413" y="159" on="0"/>
        <pt x="417" y="199" on="1"/>
        <pt x="390" y="104" on="0"/>
        <pt x="252" y="-12" on="0"/>
        <pt x="119" y="-12" on="0"/>
        <pt x="38" y="87" on="0"/>
        <pt x="38" y="269" on="0"/>
        <pt x="103" y="440" on="0"/>
        <pt x="233" y="559" on="0"/>
        <pt x="313" y="559" on="1"/>
        <pt x="359" y="559" on="0"/>
        <pt x="407" y="537" on="1"/>
        <pt x="306" y="501" on="0"/>
        <pt x="186" y="290" on="0"/>
      </contour>
    </TTGlyph>
    <TTGlyph name="ae" xMin="38" yMin="-15" xMax="863" yMax="577">
      <contour>
        <pt x="405" y="163" on="1"/>
        <pt x="372" y="83" on="0"/>
        <pt x="244" y="-12" on="0"/>
        <pt x="119" y="-12" on="0"/>
        <pt x="38" y="87" on="0"/>
        <pt x="38" y="269" on="0"/>
        <pt x="103" y="440" on="0"/>
        <pt x="233" y="559" on="0"/>
        <pt x="313" y="559" on="1"/>
        <pt x="359" y="559" on="0"/>
        <pt x="407" y="537" on="1"/>
        <pt x="306" y="501" on="0"/>
        <pt x="186" y="290" on="0"/>
        <pt x="186" y="189" on="1"/>
        <pt x="186" y="142" on="0"/>
        <pt x="221" y="83" on="0"/>
        <pt x="253" y="83" on="1"/>
        <pt x="300" y="83" on="0"/>
        <pt x="385" y="193" on="0"/>
        <pt x="436" y="365" on="0"/>
        <pt x="436" y="520" on="0"/>
        <pt x="430" y="568" on="1"/>
        <pt x="460" y="570" on="0"/>
        <pt x="501" y="570" on="0"/>
        <pt x="509" y="540" on="0"/>
        <pt x="509" y="483" on="1"/>
        <pt x="570" y="577" on="0"/>
        <pt x="703" y="577" on="1"/>
        <pt x="781" y="577" on="0"/>
        <pt x="863" y="497" on="0"/>
        <pt x="863" y="432" on="1"/>
        <pt x="863" y="338" on="0"/>
        <pt x="732" y="246" on="0"/>
        <pt x="637" y="246" on="1"/>
        <pt x="589" y="246" on="0"/>
        <pt x="543" y="257" on="1"/>
        <pt x="542" y="247" on="0"/>
        <pt x="542" y="226" on="1"/>
        <pt x="542" y="143" on="0"/>
        <pt x="604" y="59" on="0"/>
        <pt x="690" y="59" on="0"/>
        <pt x="768" y="111" on="0"/>
        <pt x="797" y="157" on="1"/>
        <pt x="833" y="149" on="0"/>
        <pt x="833" y="120" on="1"/>
        <pt x="745" y="-15" on="0"/>
        <pt x="606" y="-15" on="1"/>
        <pt x="526" y="-15" on="0"/>
        <pt x="420" y="74" on="0"/>
      </contour>
      <contour>
        <pt x="679" y="515" on="1"/>
        <pt x="628" y="515" on="0"/>
        <pt x="558" y="389" on="0"/>
        <pt x="547" y="299" on="1"/>
        <pt x="562" y="299" on="1"/>
        <pt x="649" y="299" on="0"/>
        <pt x="732" y="389" on="0"/>
        <pt x="732" y="452" on="1"/>
        <pt x="732" y="478" on="0"/>
        <pt x="705" y="515" on="0"/>
      </contour>
    </TTGlyph>
    <TTGlyph name="agrave" xMin="38" yMin="-33" xMax="575" yMax="867">
      <contour>
        <pt x="503" y="652" on="1"/>
        <pt x="501" y="641" on="0"/>
        <pt x="477" y="622" on="0"/>
        <pt x="461" y="619" on="1"/>
        <pt x="423" y="662" on="0"/>
        <pt x="302" y="743" on="0"/>
        <pt x="239" y="760" on="1"/>
        <pt x="242" y="829" on="0"/>
        <pt x="302" y="867" on="1"/>
        <pt x="358" y="844" on="0"/>
        <pt x="476" y="713" on="0"/>
      </contour>
      <contour>
        <pt x="186" y="189" on="1"/>
        <pt x="186" y="142" on="0"/>
        <pt x="221" y="83" on="0"/>
        <pt x="253" y="83" on="1"/>
        <pt x="300" y="83" on="0"/>
        <pt x="385" y="193" on="0"/>
        <pt x="436" y="365" on="0"/>
        <pt x="436" y="520" on="0"/>
        <pt x="430" y="568" on="1"/>
        <pt x="460" y="570" on="0"/>
        <pt x="472" y="570" on="1"/>
        <pt x="523" y="570" on="0"/>
        <pt x="575" y="532" on="0"/>
        <pt x="575" y="483" on="1"/>
        <pt x="575" y="464" on="0"/>
        <pt x="527" y="193" on="0"/>
        <pt x="527" y="30" on="0"/>
        <pt x="558" y="-33" on="1"/>
        <pt x="483" y="-20" on="0"/>
        <pt x="413" y="65" on="0"/>
        <pt x="413" y="145" on="1"/>
        <pt x="413" y="159" on="0"/>
        <pt x="417" y="199" on="1"/>
        <pt x="390" y="104" on="0"/>
        <pt x="252" y="-12" on="0"/>
        <pt x="119" y="-12" on="0"/>
        <pt x="38" y="87" on="0"/>
        <pt x="38" y="269" on="0"/>
        <pt x="103" y="440" on="0"/>
        <pt x="233" y="559" on="0"/>
        <pt x="313" y="559" on="1"/>
        <pt x="359" y="559" on="0"/>
        <pt x="407" y="537" on="1"/>
        <pt x="306" y="501" on="0"/>
        <pt x="186" y="290" on="0"/>
      </contour>
    </TTGlyph>
    <TTGlyph name="ampersand" xMin="9" yMin="-230" xMax="682" yMax="781">
      <contour>
        <pt x="216" y="590" on="1"/>
        <pt x="216" y="513" on="0"/>
        <pt x="341" y="432" on="0"/>
        <pt x="573" y="432" on="0"/>
        <pt x="682" y="478" on="1"/>
        <pt x="682" y="386" on="0"/>
        <pt x="648" y="362" on="1"/>
        <pt x="632" y="351" on="0"/>
        <pt x="607" y="351" on="1"/>
        <pt x="541" y="351" on="1"/>
        <pt x="537" y="323" on="0"/>
        <pt x="513" y="169" on="0"/>
        <pt x="506" y="122" on="1"/>
        <pt x="488" y="-10" on="0"/>
        <pt x="488" y="-174" on="0"/>
        <pt x="512" y="-230" on="1"/>
        <pt x="432" y="-209" on="0"/>
        <pt x="376" y="-123" on="0"/>
        <pt x="376" y="-42" on="1"/>
        <pt x="376" y="0" on="0"/>
        <pt x="381" y="48" on="1"/>
        <pt x="354" y="6" on="0"/>
        <pt x="264" y="-33" on="0"/>
        <pt x="219" y="-33" on="1"/>
        <pt x="134" y="-33" on="0"/>
        <pt x="9" y="73" on="0"/>
        <pt x="9" y="248" on="0"/>
        <pt x="132" y="381" on="0"/>
        <pt x="239" y="397" on="1"/>
        <pt x="157" y="424" on="0"/>
        <pt x="85" y="527" on="0"/>
        <pt x="85" y="587" on="1"/>
        <pt x="85" y="664" on="0"/>
        <pt x="214" y="781" on="0"/>
        <pt x="409" y="781" on="0"/>
        <pt x="513" y="701" on="0"/>
        <pt x="513" y="584" on="0"/>
        <pt x="439" y="506" on="0"/>
        <pt x="377" y="506" on="1"/>
        <pt x="356" y="506" on="0"/>
        <pt x="335" y="511" on="1"/>
        <pt x="390" y="572" on="0"/>
        <pt x="390" y="655" on="0"/>
        <pt x="347" y="695" on="0"/>
        <pt x="318" y="695" on="1"/>
        <pt x="271" y="695" on="0"/>
        <pt x="216" y="634" on="0"/>
      </contour>
      <contour>
        <pt x="267" y="50" on="1"/>
        <pt x="335" y="50" on="0"/>
        <pt x="392" y="143" on="0"/>
        <pt x="404" y="229" on="1"/>
        <pt x="421" y="352" on="1"/>
        <pt x="346" y="352" on="0"/>
        <pt x="242" y="322" on="0"/>
        <pt x="186" y="285" on="0"/>
        <pt x="146" y="218" on="0"/>
        <pt x="146" y="114" on="0"/>
        <pt x="216" y="50" on="0"/>
      </contour>
    </TTGlyph>
    <TTGlyph name="approxequal" xMin="44" yMin="125" xMax="576" yMax="551">
      <contour>
        <pt x="576" y="551" on="1"/>
        <pt x="576" y="375" on="0"/>
        <pt x="421" y="375" on="1"/>
        <pt x="377" y="375" on="0"/>
        <pt x="216" y="416" on="0"/>
        <pt x="186" y="416" on="1"/>
        <pt x="84" y="416" on="0"/>
        <pt x="44" y="363" on="1"/>
        <pt x="44" y="539" on="0"/>
        <pt x="199" y="539" on="1"/>
        <pt x="243" y="539" on="0"/>
        <pt x="404" y="498" on="0"/>
        <pt x="434" y="498" on="1"/>
        <pt x="536" y="498" on="0"/>
      </contour>
      <contour>
        <pt x="576" y="313" on="1"/>
        <pt x="576" y="137" on="0"/>
        <pt x="421" y="137" on="1"/>
        <pt x="377" y="137" on="0"/>
        <pt x="216" y="178" on="0"/>
        <pt x="186" y="178" on="1"/>
        <pt x="84" y="178" on="0"/>
        <pt x="44" y="125" on="1"/>
        <pt x="44" y="301" on="0"/>
        <pt x="199" y="301" on="1"/>
        <pt x="243" y="301" on="0"/>
        <pt x="404" y="260" on="0"/>
        <pt x="434" y="260" on="1"/>
        <pt x="536" y="260" on="0"/>
      </contour>
    </TTGlyph>
    <TTGlyph name="aring" xMin="38" yMin="-33" xMax="575" yMax="862">
      <contour>
        <pt x="439" y="703" on="1"/>
        <pt x="449" y="743" on="0"/>
        <pt x="449" y="748" on="1"/>
        <pt x="449" y="781" on="0"/>
        <pt x="410" y="781" on="1"/>
        <pt x="391" y="781" on="0"/>
        <pt x="374" y="776" on="1"/>
        <pt x="364" y="736" on="0"/>
        <pt x="364" y="731" on="1"/>
        <pt x="364" y="698" on="0"/>
        <pt x="403" y="698" on="1"/>
        <pt x="422" y="698" on="0"/>
      </contour>
      <contour>
        <pt x="504" y="634" on="1"/>
        <pt x="444" y="617" on="0"/>
        <pt x="394" y="617" on="1"/>
        <pt x="281" y="617" on="0"/>
        <pt x="281" y="714" on="1"/>
        <pt x="281" y="761" on="0"/>
        <pt x="309" y="845" on="1"/>
        <pt x="369" y="862" on="0"/>
        <pt x="419" y="862" on="1"/>
        <pt x="532" y="862" on="0"/>
        <pt x="532" y="765" on="1"/>
        <pt x="532" y="718" on="0"/>
      </contour>
      <contour>
        <pt x="186" y="189" on="1"/>
        <pt x="186" y="142" on="0"/>
        <pt x="221" y="83" on="0"/>
        <pt x="253" y="83" on="1"/>
        <pt x="300" y="83" on="0"/>
        <pt x="385" y="193" on="0"/>
        <pt x="436" y="365" on="0"/>
        <pt x="436" y="520" on="0"/>
        <pt x="430" y="568" on="1"/>
        <pt x="460" y="570" on="0"/>
        <pt x="472" y="570" on="1"/>
        <pt x="523" y="570" on="0"/>
        <pt x="575" y="532" on="0"/>
        <pt x="575" y="483" on="1"/>
        <pt x="575" y="464" on="0"/>
        <pt x="527" y="193" on="0"/>
        <pt x="527" y="30" on="0"/>
        <pt x="558" y="-33" on="1"/>
        <pt x="483" y="-20" on="0"/>
        <pt x="413" y="65" on="0"/>
        <pt x="413" y="145" on="1"/>
        <pt x="413" y="159" on="0"/>
        <pt x="417" y="199" on="1"/>
        <pt x="390" y="104" on="0"/>
        <pt x="252" y="-12" on="0"/>
        <pt x="119" y="-12" on="0"/>
        <pt x="38" y="87" on="0"/>
        <pt x="38" y="269" on="0"/>
        <pt x="103" y="440" on="0"/>
        <pt x="233" y="559" on="0"/>
        <pt x="313" y="559" on="1"/>
        <pt x="359" y="559" on="0"/>
        <pt x="407" y="537" on="1"/>
        <pt x="306" y="501" on="0"/>
        <pt x="186" y="290" on="0"/>
      </contour>
    </TTGlyph>
    <TTGlyph name="asciicircum" xMin="71" yMin="327" xMax="569" yMax="776">
      <contour>
        <pt x="301" y="759" on="1"/>
        <pt x="338" y="776" on="0"/>
        <pt x="424" y="776" on="0"/>
        <pt x="428" y="758" on="1"/>
        <pt x="459" y="613" on="0"/>
        <pt x="518" y="442" on="0"/>
        <pt x="569" y="352" on="1"/>
        <pt x="540" y="327" on="0"/>
        <pt x="473" y="327" on="1"/>
        <pt x="423" y="327" on="0"/>
        <pt x="363" y="475" on="0"/>
        <pt x="332" y="674" on="1"/>
        <pt x="218" y="494" on="0"/>
        <pt x="149" y="328" on="1"/>
        <pt x="105" y="341" on="0"/>
        <pt x="71" y="377" on="0"/>
        <pt x="71" y="442" on="0"/>
        <pt x="188" y="615" on="0"/>
      </contour>
    </TTGlyph>
    <TTGlyph name="asciitilde" xMin="44" yMin="269" xMax="576" yMax="457">
      <contour>
        <pt x="420" y="281" on="1"/>
        <pt x="377" y="281" on="0"/>
        <pt x="216" y="312" on="0"/>
        <pt x="186" y="312" on="1"/>
        <pt x="90" y="312" on="0"/>
        <pt x="44" y="269" on="1"/>
        <pt x="44" y="376" on="0"/>
        <pt x="80" y="410" on="1"/>
        <pt x="117" y="445" on="0"/>
        <pt x="199" y="445" on="1"/>
        <pt x="243" y="445" on="0"/>
        <pt x="404" y="414" on="0"/>
        <pt x="434" y="414" on="1"/>
        <pt x="530" y="414" on="0"/>
        <pt x="576" y="457" on="1"/>
        <pt x="576" y="350" on="0"/>
        <pt x="540" y="316" on="1"/>
        <pt x="503" y="281" on="0"/>
      </contour>
    </TTGlyph>
    <TTGlyph name="asterisk" xMin="70" yMin="493" xMax="492" yMax="917">
      <contour>
        <pt x="428" y="562" on="1"/>
        <pt x="348" y="644" on="0"/>
        <pt x="330" y="658" on="1"/>
        <pt x="332" y="643" on="0"/>
        <pt x="332" y="610" on="1"/>
        <pt x="332" y="493" on="0"/>
        <pt x="269" y="493" on="1"/>
        <pt x="230" y="493" on="0"/>
        <pt x="180" y="542" on="1"/>
        <pt x="227" y="591" on="0"/>
        <pt x="250" y="656" on="1"/>
        <pt x="184" y="625" on="0"/>
        <pt x="137" y="625" on="1"/>
        <pt x="70" y="625" on="0"/>
        <pt x="70" y="689" on="1"/>
        <pt x="70" y="722" on="0"/>
        <pt x="92" y="763" on="1"/>
        <pt x="162" y="732" on="0"/>
        <pt x="224" y="732" on="1"/>
        <pt x="154" y="810" on="0"/>
        <pt x="154" y="860" on="1"/>
        <pt x="154" y="917" on="0"/>
        <pt x="239" y="917" on="1"/>
        <pt x="258" y="917" on="0"/>
        <pt x="276" y="914" on="1"/>
        <pt x="272" y="883" on="0"/>
        <pt x="272" y="823" on="0"/>
        <pt x="289" y="779" on="1"/>
        <pt x="352" y="887" on="0"/>
        <pt x="405" y="887" on="1"/>
        <pt x="423" y="887" on="0"/>
        <pt x="468" y="830" on="0"/>
        <pt x="477" y="784" on="1"/>
        <pt x="401" y="770" on="0"/>
        <pt x="351" y="733" on="1"/>
        <pt x="492" y="696" on="0"/>
        <pt x="492" y="644" on="1"/>
        <pt x="492" y="625" on="0"/>
        <pt x="459" y="579" on="0"/>
      </contour>
    </TTGlyph>
    <TTGlyph name="at" xMin="50" yMin="-149" xMax="977" yMax="720">
      <contour>
        <pt x="580" y="-12" on="1"/>
        <pt x="587" y="-37" on="0"/>
        <pt x="587" y="-58" on="1"/>
        <pt x="587" y="-109" on="0"/>
        <pt x="501" y="-149" on="0"/>
        <pt x="354" y="-149" on="0"/>
        <pt x="226" y="-106" on="0"/>
        <pt x="117" y="-22" on="0"/>
        <pt x="50" y="124" on="0"/>
        <pt x="50" y="311" on="0"/>
        <pt x="125" y="489" on="0"/>
        <pt x="262" y="633" on="0"/>
        <pt x="477" y="720" on="0"/>
        <pt x="605" y="720" on="1"/>
        <pt x="745" y="720" on="0"/>
        <pt x="854" y="643" on="1"/>
        <pt x="910" y="604" on="0"/>
        <pt x="977" y="462" on="0"/>
        <pt x="977" y="284" on="0"/>
        <pt x="921" y="139" on="0"/>
        <pt x="836" y="50" on="0"/>
        <pt x="743" y="0" on="0"/>
        <pt x="701" y="0" on="1"/>
        <pt x="573" y="0" on="0"/>
        <pt x="573" y="187" on="1"/>
        <pt x="543" y="141" on="0"/>
        <pt x="457" y="89" on="0"/>
        <pt x="362" y="89" on="0"/>
        <pt x="295" y="168" on="0"/>
        <pt x="295" y="311" on="0"/>
        <pt x="341" y="436" on="0"/>
        <pt x="444" y="527" on="0"/>
        <pt x="512" y="527" on="1"/>
        <pt x="550" y="527" on="0"/>
        <pt x="584" y="509" on="1"/>
        <pt x="584" y="535" on="1"/>
        <pt x="627" y="535" on="1"/>
        <pt x="672" y="535" on="0"/>
        <pt x="717" y="504" on="0"/>
        <pt x="717" y="463" on="1"/>
        <pt x="717" y="458" on="0"/>
        <pt x="706" y="408" on="1"/>
        <pt x="674" y="251" on="0"/>
        <pt x="674" y="174" on="1"/>
        <pt x="674" y="77" on="0"/>
        <pt x="720" y="77" on="1"/>
        <pt x="762" y="77" on="0"/>
        <pt x="843" y="230" on="0"/>
        <pt x="843" y="365" on="1"/>
        <pt x="843" y="442" on="0"/>
        <pt x="800" y="558" on="0"/>
        <pt x="764" y="590" on="1"/>
        <pt x="692" y="653" on="0"/>
        <pt x="493" y="653" on="0"/>
        <pt x="333" y="578" on="0"/>
        <pt x="284" y="516" on="1"/>
        <pt x="182" y="387" on="0"/>
        <pt x="182" y="222" on="1"/>
        <pt x="182" y="145" on="0"/>
        <pt x="225" y="30" on="0"/>
        <pt x="262" y="-2" on="1"/>
        <pt x="335" y="-65" on="0"/>
        <pt x="513" y="-65" on="0"/>
      </contour>
      <contour>
        <pt x="514" y="459" on="0"/>
        <pt x="431" y="313" on="0"/>
        <pt x="431" y="176" on="0"/>
        <pt x="468" y="176" on="1"/>
        <pt x="513" y="176" on="0"/>
        <pt x="588" y="343" on="0"/>
        <pt x="588" y="440" on="1"/>
        <pt x="588" y="464" on="0"/>
        <pt x="585" y="491" on="1"/>
      </contour>
    </TTGlyph>
    <TTGlyph name="atilde" xMin="38" yMin="-33" xMax="586" yMax="818">
      <contour>
        <pt x="578" y="725" on="0"/>
        <pt x="521" y="665" on="0"/>
        <pt x="455" y="665" on="0"/>
        <pt x="360" y="693" on="0"/>
        <pt x="341" y="693" on="1"/>
        <pt x="293" y="693" on="0"/>
        <pt x="266" y="650" on="1"/>
        <pt x="243" y="654" on="0"/>
        <pt x="239" y="674" on="1"/>
        <pt x="247" y="743" on="0"/>
        <pt x="304" y="803" on="0"/>
        <pt x="370" y="803" on="0"/>
        <pt x="465" y="775" on="0"/>
        <pt x="484" y="775" on="1"/>
        <pt x="532" y="775" on="0"/>
        <pt x="559" y="818" on="1"/>
        <pt x="582" y="814" on="0"/>
        <pt x="586" y="794" on="1"/>
      </contour>
      <contour>
        <pt x="186" y="189" on="1"/>
        <pt x="186" y="142" on="0"/>
        <pt x="221" y="83" on="0"/>
        <pt x="253" y="83" on="1"/>
        <pt x="300" y="83" on="0"/>
        <pt x="385" y="193" on="0"/>
        <pt x="436" y="365" on="0"/>
        <pt x="436" y="520" on="0"/>
        <pt x="430" y="568" on="1"/>
        <pt x="460" y="570" on="0"/>
        <pt x="472" y="570" on="1"/>
        <pt x="523" y="570" on="0"/>
        <pt x="575" y="532" on="0"/>
        <pt x="575" y="483" on="1"/>
        <pt x="575" y="464" on="0"/>
        <pt x="527" y="193" on="0"/>
        <pt x="527" y="30" on="0"/>
        <pt x="558" y="-33" on="1"/>
        <pt x="483" y="-20" on="0"/>
        <pt x="413" y="65" on="0"/>
        <pt x="413" y="145" on="1"/>
        <pt x="413" y="159" on="0"/>
        <pt x="417" y="199" on="1"/>
        <pt x="390" y="104" on="0"/>
        <pt x="252" y="-12" on="0"/>
        <pt x="119" y="-12" on="0"/>
        <pt x="38" y="87" on="0"/>
        <pt x="38" y="269" on="0"/>
        <pt x="103" y="440" on="0"/>
        <pt x="233" y="559" on="0"/>
        <pt x="313" y="559" on="1"/>
        <pt x="359" y="559" on="0"/>
        <pt x="407" y="537" on="1"/>
        <pt x="306" y="501" on="0"/>
        <pt x="186" y="290" on="0"/>
      </contour>
    </TTGlyph>
    <TTGlyph name="b" xMin="86" yMin="-18" xMax="585" yMax="957">
      <contour>
        <pt x="215" y="938" on="0"/>
        <pt x="268" y="839" on="0"/>
        <pt x="268" y="719" on="0"/>
        <pt x="230" y="430" on="0"/>
        <pt x="223" y="344" on="1"/>
        <pt x="253" y="451" on="0"/>
        <pt x="364" y="577" on="0"/>
        <pt x="492" y="577" on="0"/>
        <pt x="585" y="455" on="0"/>
        <pt x="585" y="360" on="1"/>
        <pt x="585" y="213" on="0"/>
        <pt x="428" y="0" on="0"/>
        <pt x="327" y="0" on="1"/>
        <pt x="292" y="0" on="0"/>
        <pt x="257" y="16" on="1"/>
        <pt x="300" y="28" on="0"/>
        <pt x="370" y="102" on="0"/>
        <pt x="392" y="150" on="1"/>
        <pt x="437" y="250" on="0"/>
        <pt x="437" y="350" on="1"/>
        <pt x="437" y="399" on="0"/>
        <pt x="400" y="473" on="0"/>
        <pt x="369" y="473" on="1"/>
        <pt x="319" y="473" on="0"/>
        <pt x="216" y="269" on="0"/>
        <pt x="213" y="117" on="1"/>
        <pt x="213" y="98" on="1"/>
        <pt x="215" y="63" on="0"/>
        <pt x="230" y="-18" on="1"/>
        <pt x="86" y="15" on="0"/>
        <pt x="86" y="189" on="1"/>
        <pt x="86" y="260" on="0"/>
        <pt x="153" y="690" on="0"/>
        <pt x="153" y="888" on="0"/>
        <pt x="144" y="957" on="1"/>
      </contour>
    </TTGlyph>
    <TTGlyph name="backslash" xMin="-38" yMin="-182" xMax="405" yMax="868">
      <contour>
        <pt x="41" y="868" on="1"/>
        <pt x="56" y="779" on="0"/>
        <pt x="239" y="344" on="0"/>
        <pt x="405" y="-41" on="0"/>
        <pt x="405" y="-124" on="0"/>
        <pt x="348" y="-172" on="0"/>
        <pt x="320" y="-177" on="1"/>
        <pt x="291" y="-182" on="1"/>
        <pt x="277" y="-80" on="0"/>
        <pt x="112" y="355" on="0"/>
        <pt x="-38" y="727" on="0"/>
        <pt x="-38" y="796" on="0"/>
        <pt x="2" y="848" on="0"/>
        <pt x="22" y="858" on="1"/>
      </contour>
    </TTGlyph>
    <TTGlyph name="bar" xMin="154" yMin="-186" xMax="302" yMax="867">
      <contour>
        <pt x="154" y="-122" on="1"/>
        <pt x="154" y="-65" on="0"/>
        <pt x="169" y="276" on="0"/>
        <pt x="169" y="383" on="1"/>
        <pt x="169" y="751" on="0"/>
        <pt x="155" y="867" on="1"/>
        <pt x="232" y="867" on="0"/>
        <pt x="302" y="836" on="0"/>
        <pt x="302" y="803" on="1"/>
        <pt x="302" y="747" on="0"/>
        <pt x="287" y="491" on="0"/>
        <pt x="287" y="383" on="1"/>
        <pt x="287" y="-78" on="0"/>
        <pt x="301" y="-186" on="1"/>
        <pt x="224" y="-186" on="0"/>
        <pt x="154" y="-155" on="0"/>
      </contour>
    </TTGlyph>
    <TTGlyph name="braceleft" xMin="45" yMin="-139" xMax="402" yMax="783">
      <contour>
        <pt x="204" y="324" on="0"/>
        <pt x="252" y="230" on="0"/>
        <pt x="252" y="139" on="0"/>
        <pt x="239" y="28" on="0"/>
        <pt x="239" y="-31" on="0"/>
        <pt x="268" y="-69" on="0"/>
        <pt x="329" y="-69" on="0"/>
        <pt x="350" y="-65" on="1"/>
        <pt x="350" y="-108" on="0"/>
        <pt x="320" y="-139" on="0"/>
        <pt x="277" y="-139" on="1"/>
        <pt x="178" y="-139" on="0"/>
        <pt x="99" y="-74" on="0"/>
        <pt x="99" y="-10" on="1"/>
        <pt x="99" y="13" on="0"/>
        <pt x="113" y="132" on="0"/>
        <pt x="113" y="168" on="1"/>
        <pt x="113" y="309" on="0"/>
        <pt x="45" y="312" on="1"/>
        <pt x="47" y="348" on="1"/>
        <pt x="101" y="357" on="0"/>
        <pt x="121" y="418" on="1"/>
        <pt x="138" y="471" on="0"/>
        <pt x="138" y="548" on="1"/>
        <pt x="138" y="595" on="1"/>
        <pt x="138" y="694" on="0"/>
        <pt x="227" y="783" on="0"/>
        <pt x="336" y="783" on="1"/>
        <pt x="372" y="783" on="0"/>
        <pt x="402" y="747" on="0"/>
        <pt x="402" y="709" on="1"/>
        <pt x="378" y="712" on="0"/>
        <pt x="360" y="712" on="1"/>
        <pt x="312" y="712" on="0"/>
        <pt x="282" y="666" on="0"/>
        <pt x="282" y="610" on="1"/>
        <pt x="282" y="503" on="0"/>
        <pt x="230" y="348" on="0"/>
        <pt x="174" y="330" on="1"/>
      </contour>
    </TTGlyph>
    <TTGlyph name="braceright" xMin="-30" yMin="-139" xMax="327" yMax="783">
      <contour>
        <pt x="168" y="320" on="0"/>
        <pt x="120" y="414" on="0"/>
        <pt x="120" y="505" on="0"/>
        <pt x="133" y="616" on="0"/>
        <pt x="133" y="675" on="0"/>
        <pt x="104" y="713" on="0"/>
        <pt x="43" y="713" on="0"/>
        <pt x="22" y="709" on="1"/>
        <pt x="22" y="752" on="0"/>
        <pt x="52" y="783" on="0"/>
        <pt x="95" y="783" on="1"/>
        <pt x="194" y="783" on="0"/>
        <pt x="278" y="717" on="0"/>
        <pt x="278" y="654" on="1"/>
        <pt x="278" y="631" on="0"/>
        <pt x="259" y="512" on="0"/>
        <pt x="259" y="476" on="1"/>
        <pt x="259" y="335" on="0"/>
        <pt x="327" y="332" on="1"/>
        <pt x="325" y="296" on="1"/>
        <pt x="271" y="287" on="0"/>
        <pt x="251" y="226" on="1"/>
        <pt x="234" y="173" on="0"/>
        <pt x="234" y="96" on="1"/>
        <pt x="234" y="49" on="1"/>
        <pt x="234" y="-50" on="0"/>
        <pt x="145" y="-139" on="0"/>
        <pt x="36" y="-139" on="1"/>
        <pt x="0" y="-139" on="0"/>
        <pt x="-30" y="-103" on="0"/>
        <pt x="-30" y="-65" on="1"/>
        <pt x="-6" y="-68" on="0"/>
        <pt x="12" y="-68" on="1"/>
        <pt x="60" y="-68" on="0"/>
        <pt x="90" y="-22" on="0"/>
        <pt x="90" y="34" on="1"/>
        <pt x="90" y="141" on="0"/>
        <pt x="142" y="296" on="0"/>
        <pt x="198" y="314" on="1"/>
      </contour>
    </TTGlyph>
    <TTGlyph name="bracketleft" xMin="115" yMin="-139" xMax="439" yMax="783">
      <contour>
        <pt x="262" y="-139" on="1"/>
        <pt x="115" y="-139" on="0"/>
        <pt x="115" y="-74" on="1"/>
        <pt x="115" y="-54" on="0"/>
        <pt x="120" y="-4" on="1"/>
        <pt x="150" y="295" on="0"/>
        <pt x="168" y="649" on="0"/>
        <pt x="172" y="713" on="1"/>
        <pt x="176" y="783" on="0"/>
        <pt x="329" y="783" on="1"/>
        <pt x="326" y="766" on="1"/>
        <pt x="329" y="783" on="1"/>
        <pt x="399" y="783" on="1"/>
        <pt x="435" y="783" on="0"/>
        <pt x="439" y="709" on="1"/>
        <pt x="381" y="714" on="0"/>
        <pt x="318" y="715" on="1"/>
        <pt x="284" y="484" on="0"/>
        <pt x="261" y="171" on="0"/>
        <pt x="261" y="-61" on="1"/>
        <pt x="261" y="-71" on="1"/>
        <pt x="318" y="-70" on="0"/>
        <pt x="372" y="-65" on="1"/>
        <pt x="368" y="-139" on="0"/>
        <pt x="332" y="-139" on="1"/>
      </contour>
    </TTGlyph>
    <TTGlyph name="bracketright" xMin="-60" yMin="-139" xMax="264" yMax="783">
      <contour>
        <pt x="117" y="783" on="1"/>
        <pt x="264" y="783" on="0"/>
        <pt x="264" y="718" on="1"/>
        <pt x="264" y="698" on="0"/>
        <pt x="259" y="648" on="1"/>
        <pt x="229" y="349" on="0"/>
        <pt x="211" y="-5" on="0"/>
        <pt x="207" y="-69" on="1"/>
        <pt x="203" y="-139" on="0"/>
        <pt x="50" y="-139" on="1"/>
        <pt x="-20" y="-139" on="1"/>
        <pt x="-56" y="-139" on="0"/>
        <pt x="-60" y="-65" on="1"/>
        <pt x="-1" y="-70" on="0"/>
        <pt x="61" y="-71" on="1"/>
        <pt x="93" y="157" on="0"/>
        <pt x="118" y="473" on="0"/>
        <pt x="118" y="705" on="1"/>
        <pt x="118" y="715" on="1"/>
        <pt x="62" y="714" on="0"/>
        <pt x="7" y="709" on="1"/>
        <pt x="11" y="783" on="0"/>
        <pt x="47" y="783" on="1"/>
      </contour>
      <contour>
        <pt x="50" y="-139" on="1"/>
        <pt x="55" y="-109" on="1"/>
      </contour>
      <contour>
        <pt x="55" y="-109" on="1"/>
        <pt x="55" y="-105" on="0"/>
        <pt x="57" y="-99" on="1"/>
      </contour>
    </TTGlyph>
    <TTGlyph name="breve" xMin="20" yMin="644" xMax="335" yMax="827">
      <contour>
        <pt x="20" y="798" on="1"/>
        <pt x="39" y="812" on="0"/>
        <pt x="78" y="812" on="0"/>
        <pt x="90" y="799" on="1"/>
        <pt x="90" y="770" on="0"/>
        <pt x="129" y="739" on="0"/>
        <pt x="195" y="739" on="0"/>
        <pt x="260" y="791" on="0"/>
        <pt x="263" y="827" on="1"/>
        <pt x="291" y="827" on="0"/>
        <pt x="335" y="785" on="0"/>
        <pt x="335" y="761" on="1"/>
        <pt x="318" y="707" on="0"/>
        <pt x="227" y="644" on="0"/>
        <pt x="107" y="644" on="0"/>
        <pt x="20" y="722" on="0"/>
      </contour>
    </TTGlyph>
    <TTGlyph name="brokenbar" xMin="154" yMin="-186" xMax="302" yMax="867">
      <contour>
        <pt x="287" y="430" on="1"/>
        <pt x="216" y="430" on="0"/>
        <pt x="169" y="491" on="0"/>
        <pt x="169" y="547" on="1"/>
        <pt x="169" y="751" on="0"/>
        <pt x="155" y="867" on="1"/>
        <pt x="232" y="867" on="0"/>
        <pt x="302" y="836" on="0"/>
        <pt x="302" y="768" on="0"/>
        <pt x="287" y="488" on="0"/>
      </contour>
      <contour>
        <pt x="169" y="251" on="1"/>
        <pt x="240" y="251" on="0"/>
        <pt x="287" y="190" on="0"/>
        <pt x="287" y="134" on="1"/>
        <pt x="287" y="-70" on="0"/>
        <pt x="301" y="-186" on="1"/>
        <pt x="224" y="-186" on="0"/>
        <pt x="154" y="-155" on="0"/>
        <pt x="154" y="-87" on="0"/>
        <pt x="169" y="193" on="0"/>
      </contour>
    </TTGlyph>
    <TTGlyph name="bullet" xMin="70" yMin="224" xMax="266" yMax="412">
      <contour>
        <pt x="244" y="236" on="1"/>
        <pt x="201" y="224" on="0"/>
        <pt x="159" y="224" on="1"/>
        <pt x="70" y="224" on="0"/>
        <pt x="70" y="298" on="1"/>
        <pt x="70" y="323" on="0"/>
        <pt x="92" y="400" on="1"/>
        <pt x="135" y="412" on="0"/>
        <pt x="177" y="412" on="1"/>
        <pt x="266" y="412" on="0"/>
        <pt x="266" y="338" on="1"/>
        <pt x="266" y="313" on="0"/>
      </contour>
    </TTGlyph>
    <TTGlyph name="c" xMin="50" yMin="-15" xMax="505" yMax="577">
      <contour>
        <pt x="193" y="226" on="1"/>
        <pt x="193" y="59" on="0"/>
        <pt x="291" y="59" on="1"/>
        <pt x="329" y="59" on="0"/>
        <pt x="407" y="111" on="0"/>
        <pt x="436" y="157" on="1"/>
        <pt x="472" y="149" on="0"/>
        <pt x="472" y="120" on="1"/>
        <pt x="430" y="47" on="0"/>
        <pt x="308" y="-15" on="0"/>
        <pt x="247" y="-15" on="1"/>
        <pt x="165" y="-15" on="0"/>
        <pt x="50" y="106" on="0"/>
        <pt x="50" y="221" on="1"/>
        <pt x="50" y="368" on="0"/>
        <pt x="212" y="577" on="0"/>
        <pt x="350" y="577" on="1"/>
        <pt x="427" y="577" on="0"/>
        <pt x="505" y="502" on="0"/>
        <pt x="505" y="399" on="0"/>
        <pt x="442" y="323" on="0"/>
        <pt x="393" y="323" on="1"/>
        <pt x="369" y="323" on="0"/>
        <pt x="345" y="333" on="1"/>
        <pt x="360" y="350" on="0"/>
        <pt x="386" y="423" on="0"/>
        <pt x="386" y="454" on="1"/>
        <pt x="386" y="515" on="0"/>
        <pt x="333" y="515" on="1"/>
        <pt x="271" y="515" on="0"/>
        <pt x="193" y="333" on="0"/>
      </contour>
    </TTGlyph>
    <TTGlyph name="caron" xMin="100" yMin="619" xMax="452" yMax="872">
      <contour>
        <pt x="100" y="844" on="1"/>
        <pt x="137" y="855" on="0"/>
        <pt x="216" y="855" on="0"/>
        <pt x="250" y="812" on="0"/>
        <pt x="267" y="745" on="1"/>
        <pt x="319" y="825" on="0"/>
        <pt x="401" y="872" on="1"/>
        <pt x="451" y="838" on="0"/>
        <pt x="452" y="783" on="1"/>
        <pt x="370" y="732" on="0"/>
        <pt x="329" y="691" on="1"/>
        <pt x="329" y="691" on="0"/>
        <pt x="306" y="668" on="1"/>
        <pt x="300" y="662" on="0"/>
        <pt x="268" y="623" on="0"/>
        <pt x="264" y="619" on="1"/>
        <pt x="228" y="619" on="0"/>
        <pt x="190" y="659" on="0"/>
        <pt x="176" y="715" on="0"/>
        <pt x="134" y="807" on="0"/>
      </contour>
    </TTGlyph>
    <TTGlyph name="ccedilla" xMin="50" yMin="-323" xMax="505" yMax="577">
      <component glyphName="c" x="0" y="0" flags="0x1004"/>
      <component glyphName="cedilla" x="67" y="0" flags="0x1004"/>
    </TTGlyph>
    <TTGlyph name="cedilla" xMin="50" yMin="-323" xMax="242" yMax="-40">
      <contour>
        <pt x="110" y="-40" on="1"/>
        <pt x="178" y="-44" on="0"/>
        <pt x="242" y="-105" on="0"/>
        <pt x="242" y="-209" on="0"/>
        <pt x="167" y="-305" on="0"/>
        <pt x="104" y="-323" on="1"/>
        <pt x="50" y="-303" on="0"/>
        <pt x="50" y="-238" on="1"/>
        <pt x="98" y="-229" on="0"/>
        <pt x="153" y="-178" on="0"/>
        <pt x="153" y="-146" on="1"/>
        <pt x="153" y="-98" on="0"/>
        <pt x="94" y="-77" on="1"/>
        <pt x="95" y="-58" on="0"/>
      </contour>
    </TTGlyph>
    <TTGlyph name="cent" xMin="94" yMin="-98" xMax="549" yMax="832">
      <contour>
        <pt x="237" y="313" on="1"/>
        <pt x="237" y="146" on="0"/>
        <pt x="335" y="146" on="1"/>
        <pt x="373" y="146" on="0"/>
        <pt x="451" y="198" on="0"/>
        <pt x="480" y="244" on="1"/>
        <pt x="516" y="236" on="0"/>
        <pt x="516" y="207" on="1"/>
        <pt x="457" y="105" on="0"/>
        <pt x="352" y="79" on="1"/>
        <pt x="332" y="-28" on="0"/>
        <pt x="332" y="-98" on="1"/>
        <pt x="311" y="-98" on="0"/>
        <pt x="284" y="-90" on="1"/>
        <pt x="231" y="-75" on="0"/>
        <pt x="231" y="-21" on="1"/>
        <pt x="231" y="13" on="0"/>
        <pt x="245" y="77" on="1"/>
        <pt x="179" y="92" on="0"/>
        <pt x="94" y="209" on="0"/>
        <pt x="94" y="308" on="1"/>
        <pt x="94" y="441" on="0"/>
        <pt x="229" y="642" on="0"/>
        <pt x="347" y="660" on="1"/>
        <pt x="375" y="781" on="0"/>
        <pt x="379" y="832" on="1"/>
        <pt x="407" y="832" on="0"/>
        <pt x="453" y="788" on="0"/>
        <pt x="453" y="722" on="0"/>
        <pt x="440" y="659" on="1"/>
        <pt x="494" y="648" on="0"/>
        <pt x="549" y="580" on="0"/>
        <pt x="549" y="486" on="0"/>
        <pt x="486" y="410" on="0"/>
        <pt x="437" y="410" on="1"/>
        <pt x="413" y="410" on="0"/>
        <pt x="389" y="420" on="1"/>
        <pt x="404" y="437" on="0"/>
        <pt x="430" y="510" on="0"/>
        <pt x="430" y="541" on="1"/>
        <pt x="430" y="602" on="0"/>
        <pt x="377" y="602" on="1"/>
        <pt x="315" y="602" on="0"/>
        <pt x="237" y="420" on="0"/>
      </contour>
    </TTGlyph>
    <TTGlyph name="circumflex" xMin="90" yMin="620" xMax="442" yMax="873">
      <contour>
        <pt x="442" y="648" on="1"/>
        <pt x="405" y="637" on="0"/>
        <pt x="326" y="637" on="0"/>
        <pt x="292" y="680" on="0"/>
        <pt x="275" y="747" on="1"/>
        <pt x="223" y="667" on="0"/>
        <pt x="141" y="620" on="1"/>
        <pt x="91" y="654" on="0"/>
        <pt x="90" y="709" on="1"/>
        <pt x="172" y="760" on="0"/>
        <pt x="213" y="801" on="1"/>
        <pt x="213" y="801" on="0"/>
        <pt x="236" y="824" on="1"/>
        <pt x="242" y="830" on="0"/>
        <pt x="274" y="869" on="0"/>
        <pt x="278" y="873" on="1"/>
        <pt x="314" y="873" on="0"/>
        <pt x="352" y="833" on="0"/>
        <pt x="366" y="777" on="0"/>
        <pt x="408" y="685" on="0"/>
      </contour>
    </TTGlyph>
    <TTGlyph name="colon" xMin="60" yMin="-11" xMax="256" yMax="554">
      <contour>
        <pt x="205" y="-1" on="1"/>
        <pt x="170" y="-11" on="0"/>
        <pt x="134" y="-11" on="1"/>
        <pt x="60" y="-11" on="0"/>
        <pt x="60" y="51" on="1"/>
        <pt x="60" y="71" on="0"/>
        <pt x="78" y="136" on="1"/>
        <pt x="113" y="146" on="0"/>
        <pt x="149" y="146" on="1"/>
        <pt x="223" y="146" on="0"/>
        <pt x="223" y="84" on="1"/>
        <pt x="223" y="64" on="0"/>
      </contour>
      <contour>
        <pt x="238" y="407" on="1"/>
        <pt x="203" y="397" on="0"/>
        <pt x="167" y="397" on="1"/>
        <pt x="93" y="397" on="0"/>
        <pt x="93" y="459" on="1"/>
        <pt x="93" y="479" on="0"/>
        <pt x="111" y="544" on="1"/>
        <pt x="146" y="554" on="0"/>
        <pt x="182" y="554" on="1"/>
        <pt x="256" y="554" on="0"/>
        <pt x="256" y="492" on="1"/>
        <pt x="256" y="472" on="0"/>
      </contour>
    </TTGlyph>
    <TTGlyph name="comma" xMin="-19" yMin="-147" xMax="194" yMax="146">
      <contour>
        <pt x="45" y="135" on="1"/>
        <pt x="84" y="146" on="0"/>
        <pt x="120" y="146" on="1"/>
        <pt x="194" y="146" on="0"/>
        <pt x="194" y="84" on="1"/>
        <pt x="194" y="19" on="0"/>
        <pt x="100" y="-100" on="0"/>
        <pt x="10" y="-147" on="1"/>
        <pt x="-19" y="-102" on="1"/>
        <pt x="60" y="-32" on="0"/>
        <pt x="60" y="60" on="1"/>
        <pt x="60" y="93" on="0"/>
      </contour>
    </TTGlyph>
    <TTGlyph name="copyright" xMin="32" yMin="273" xMax="635" yMax="861">
      <contour>
        <pt x="421" y="485" on="1"/>
        <pt x="453" y="485" on="0"/>
        <pt x="453" y="465" on="1"/>
        <pt x="405" y="378" on="0"/>
        <pt x="312" y="378" on="1"/>
        <pt x="255" y="378" on="0"/>
        <pt x="178" y="462" on="0"/>
        <pt x="178" y="633" on="0"/>
        <pt x="276" y="758" on="0"/>
        <pt x="364" y="758" on="1"/>
        <pt x="415" y="758" on="0"/>
        <pt x="467" y="707" on="0"/>
        <pt x="467" y="637" on="0"/>
        <pt x="427" y="592" on="0"/>
        <pt x="394" y="592" on="1"/>
        <pt x="384" y="592" on="0"/>
        <pt x="360" y="599" on="1"/>
        <pt x="371" y="611" on="0"/>
        <pt x="387" y="658" on="0"/>
        <pt x="387" y="677" on="1"/>
        <pt x="387" y="715" on="0"/>
        <pt x="358" y="715" on="1"/>
        <pt x="317" y="715" on="0"/>
        <pt x="266" y="608" on="0"/>
        <pt x="266" y="487" on="0"/>
        <pt x="306" y="431" on="0"/>
        <pt x="337" y="431" on="1"/>
        <pt x="384" y="431" on="0"/>
      </contour>
      <contour>
        <pt x="370" y="861" on="1"/>
        <pt x="472" y="861" on="0"/>
        <pt x="550" y="800" on="1"/>
        <pt x="589" y="768" on="0"/>
        <pt x="635" y="655" on="0"/>
        <pt x="635" y="579" on="1"/>
        <pt x="635" y="454" on="0"/>
        <pt x="455" y="273" on="0"/>
        <pt x="297" y="273" on="1"/>
        <pt x="195" y="273" on="0"/>
        <pt x="118" y="334" on="1"/>
        <pt x="78" y="366" on="0"/>
        <pt x="32" y="479" on="0"/>
        <pt x="32" y="555" on="1"/>
        <pt x="32" y="680" on="0"/>
        <pt x="212" y="861" on="0"/>
      </contour>
      <contour>
        <pt x="368" y="814" on="1"/>
        <pt x="241" y="814" on="0"/>
        <pt x="97" y="661" on="0"/>
        <pt x="97" y="555" on="1"/>
        <pt x="97" y="492" on="0"/>
        <pt x="132" y="397" on="0"/>
        <pt x="162" y="371" on="1"/>
        <pt x="221" y="320" on="0"/>
        <pt x="299" y="320" on="1"/>
        <pt x="426" y="320" on="0"/>
        <pt x="570" y="473" on="0"/>
        <pt x="570" y="579" on="1"/>
        <pt x="570" y="642" on="0"/>
        <pt x="535" y="737" on="0"/>
        <pt x="505" y="763" on="1"/>
        <pt x="446" y="814" on="0"/>
      </contour>
    </TTGlyph>
    <TTGlyph name="d" xMin="36" yMin="-18" xMax="588" yMax="957">
      <contour>
        <pt x="184" y="202" on="1"/>
        <pt x="184" y="83" on="0"/>
        <pt x="256" y="83" on="1"/>
        <pt x="294" y="83" on="0"/>
        <pt x="366" y="165" on="0"/>
        <pt x="411" y="303" on="0"/>
        <pt x="444" y="460" on="0"/>
        <pt x="452" y="548" on="1"/>
        <pt x="466" y="718" on="0"/>
        <pt x="466" y="909" on="0"/>
        <pt x="458" y="957" on="1"/>
        <pt x="530" y="941" on="0"/>
        <pt x="588" y="837" on="0"/>
        <pt x="588" y="679" on="0"/>
        <pt x="521" y="249" on="0"/>
        <pt x="521" y="51" on="0"/>
        <pt x="530" y="-18" on="1"/>
        <pt x="459" y="1" on="0"/>
        <pt x="406" y="100" on="0"/>
        <pt x="406" y="175" on="1"/>
        <pt x="375" y="89" on="0"/>
        <pt x="251" y="-11" on="0"/>
        <pt x="119" y="-11" on="0"/>
        <pt x="36" y="90" on="0"/>
        <pt x="36" y="188" on="1"/>
        <pt x="36" y="343" on="0"/>
        <pt x="206" y="566" on="0"/>
        <pt x="322" y="566" on="1"/>
        <pt x="355" y="566" on="0"/>
        <pt x="426" y="550" on="1"/>
        <pt x="364" y="534" on="0"/>
        <pt x="267" y="455" on="0"/>
        <pt x="240" y="404" on="1"/>
        <pt x="184" y="303" on="0"/>
      </contour>
    </TTGlyph>
    <TTGlyph name="dagger" xMin="-35" yMin="-186" xMax="491" yMax="867">
      <contour>
        <pt x="73" y="-132" on="0"/>
        <pt x="66" y="-99" on="0"/>
        <pt x="66" y="-33" on="0"/>
        <pt x="95" y="151" on="0"/>
        <pt x="139" y="425" on="0"/>
        <pt x="151" y="526" on="1"/>
        <pt x="44" y="524" on="0"/>
        <pt x="-31" y="491" on="1"/>
        <pt x="-35" y="535" on="0"/>
        <pt x="-35" y="542" on="1"/>
        <pt x="-35" y="597" on="0"/>
        <pt x="34" y="635" on="0"/>
        <pt x="99" y="635" on="1"/>
        <pt x="162" y="635" on="1"/>
        <pt x="170" y="720" on="0"/>
        <pt x="170" y="815" on="0"/>
        <pt x="166" y="867" on="1"/>
        <pt x="266" y="863" on="0"/>
        <pt x="292" y="830" on="1"/>
        <pt x="305" y="813" on="0"/>
        <pt x="312" y="780" on="0"/>
        <pt x="312" y="719" on="0"/>
        <pt x="300" y="635" on="1"/>
        <pt x="491" y="635" on="1"/>
        <pt x="491" y="577" on="0"/>
        <pt x="430" y="526" on="0"/>
        <pt x="392" y="526" on="1"/>
        <pt x="285" y="526" on="1"/>
        <pt x="283" y="506" on="0"/>
        <pt x="262" y="352" on="1"/>
        <pt x="208" y="-33" on="0"/>
        <pt x="208" y="-160" on="0"/>
        <pt x="212" y="-186" on="1"/>
        <pt x="112" y="-182" on="0"/>
        <pt x="86" y="-150" on="1"/>
      </contour>
    </TTGlyph>
    <TTGlyph name="daggerdbl" xMin="-95" yMin="-186" xMax="491" yMax="867">
      <contour>
        <pt x="4" y="133" on="1"/>
        <pt x="92" y="132" on="1"/>
        <pt x="142" y="449" on="0"/>
        <pt x="151" y="526" on="1"/>
        <pt x="46" y="524" on="0"/>
        <pt x="-29" y="491" on="1"/>
        <pt x="-35" y="524" on="0"/>
        <pt x="-35" y="542" on="1"/>
        <pt x="-35" y="598" on="0"/>
        <pt x="54" y="635" on="0"/>
        <pt x="139" y="635" on="1"/>
        <pt x="162" y="635" on="1"/>
        <pt x="170" y="720" on="0"/>
        <pt x="170" y="815" on="0"/>
        <pt x="166" y="867" on="1"/>
        <pt x="266" y="863" on="0"/>
        <pt x="292" y="830" on="1"/>
        <pt x="305" y="813" on="0"/>
        <pt x="312" y="780" on="0"/>
        <pt x="312" y="718" on="0"/>
        <pt x="300" y="632" on="1"/>
        <pt x="328" y="631" on="0"/>
        <pt x="456" y="631" on="0"/>
        <pt x="491" y="648" on="1"/>
        <pt x="491" y="526" on="0"/>
        <pt x="392" y="526" on="1"/>
        <pt x="285" y="526" on="1"/>
        <pt x="282" y="498" on="0"/>
        <pt x="242" y="213" on="0"/>
        <pt x="232" y="132" on="1"/>
        <pt x="350" y="134" on="0"/>
        <pt x="425" y="168" on="1"/>
        <pt x="431" y="135" on="0"/>
        <pt x="431" y="117" on="1"/>
        <pt x="431" y="61" on="0"/>
        <pt x="342" y="24" on="0"/>
        <pt x="257" y="24" on="1"/>
        <pt x="219" y="24" on="1"/>
        <pt x="208" y="-66" on="0"/>
        <pt x="208" y="-160" on="0"/>
        <pt x="212" y="-186" on="1"/>
        <pt x="112" y="-182" on="0"/>
        <pt x="86" y="-150" on="1"/>
        <pt x="73" y="-132" on="0"/>
        <pt x="66" y="-99" on="0"/>
        <pt x="66" y="-34" on="0"/>
        <pt x="75" y="27" on="1"/>
        <pt x="54" y="28" on="0"/>
        <pt x="-60" y="28" on="0"/>
        <pt x="-95" y="11" on="1"/>
        <pt x="-95" y="133" on="0"/>
      </contour>
    </TTGlyph>
    <TTGlyph name="degree" xMin="30" yMin="450" xMax="374" yMax="784">
      <contour>
        <pt x="231" y="784" on="1"/>
        <pt x="291" y="784" on="0"/>
        <pt x="374" y="713" on="0"/>
        <pt x="374" y="561" on="0"/>
        <pt x="267" y="450" on="0"/>
        <pt x="173" y="450" on="1"/>
        <pt x="113" y="450" on="0"/>
        <pt x="30" y="521" on="0"/>
        <pt x="30" y="672" on="0"/>
        <pt x="137" y="784" on="0"/>
      </contour>
      <contour>
        <pt x="212" y="719" on="1"/>
        <pt x="175" y="719" on="0"/>
        <pt x="135" y="656" on="0"/>
        <pt x="135" y="561" on="0"/>
        <pt x="168" y="515" on="0"/>
        <pt x="230" y="515" on="0"/>
        <pt x="270" y="578" on="0"/>
        <pt x="270" y="671" on="0"/>
        <pt x="236" y="719" on="0"/>
      </contour>
    </TTGlyph>
    <TTGlyph name="dieresis" xMin="65" yMin="667" xMax="442" yMax="814">
      <contour>
        <pt x="217" y="671" on="1"/>
        <pt x="189" y="667" on="0"/>
        <pt x="168" y="667" on="1"/>
        <pt x="65" y="667" on="0"/>
        <pt x="65" y="739" on="1"/>
        <pt x="65" y="765" on="0"/>
        <pt x="80" y="810" on="1"/>
        <pt x="108" y="814" on="0"/>
        <pt x="129" y="814" on="1"/>
        <pt x="232" y="814" on="0"/>
        <pt x="232" y="742" on="1"/>
        <pt x="232" y="716" on="0"/>
      </contour>
      <contour>
        <pt x="427" y="671" on="1"/>
        <pt x="399" y="667" on="0"/>
        <pt x="378" y="667" on="1"/>
        <pt x="275" y="667" on="0"/>
        <pt x="275" y="739" on="1"/>
        <pt x="275" y="765" on="0"/>
        <pt x="290" y="810" on="1"/>
        <pt x="318" y="814" on="0"/>
        <pt x="339" y="814" on="1"/>
        <pt x="442" y="814" on="0"/>
        <pt x="442" y="742" on="1"/>
        <pt x="442" y="716" on="0"/>
      </contour>
    </TTGlyph>
    <TTGlyph name="divide" xMin="45" yMin="91" xMax="575" yMax="621">
      <contour>
        <pt x="251" y="410" on="0"/>
        <pt x="414" y="424" on="0"/>
        <pt x="531" y="424" on="0"/>
        <pt x="575" y="369" on="0"/>
        <pt x="575" y="315" on="1"/>
        <pt x="575" y="311" on="0"/>
        <pt x="574" y="296" on="0"/>
        <pt x="574" y="292" on="1"/>
        <pt x="493" y="303" on="0"/>
        <pt x="369" y="303" on="0"/>
        <pt x="206" y="289" on="0"/>
        <pt x="89" y="289" on="0"/>
        <pt x="45" y="344" on="0"/>
        <pt x="45" y="398" on="1"/>
        <pt x="45" y="402" on="0"/>
        <pt x="46" y="417" on="0"/>
        <pt x="46" y="421" on="1"/>
        <pt x="127" y="410" on="0"/>
      </contour>
      <contour>
        <pt x="367" y="489" on="1"/>
        <pt x="338" y="480" on="0"/>
        <pt x="303" y="480" on="1"/>
        <pt x="236" y="480" on="0"/>
        <pt x="236" y="536" on="1"/>
        <pt x="236" y="553" on="0"/>
        <pt x="252" y="612" on="1"/>
        <pt x="280" y="621" on="0"/>
        <pt x="316" y="621" on="1"/>
        <pt x="383" y="621" on="0"/>
        <pt x="383" y="565" on="1"/>
        <pt x="383" y="548" on="0"/>
      </contour>
      <contour>
        <pt x="367" y="100" on="1"/>
        <pt x="338" y="91" on="0"/>
        <pt x="303" y="91" on="1"/>
        <pt x="236" y="91" on="0"/>
        <pt x="236" y="147" on="1"/>
        <pt x="236" y="164" on="0"/>
        <pt x="252" y="223" on="1"/>
        <pt x="280" y="232" on="0"/>
        <pt x="316" y="232" on="1"/>
        <pt x="383" y="232" on="0"/>
        <pt x="383" y="176" on="1"/>
        <pt x="383" y="159" on="0"/>
      </contour>
    </TTGlyph>
    <TTGlyph name="dollar" xMin="61" yMin="-190" xMax="545" yMax="875">
      <contour>
        <pt x="389" y="469" on="1"/>
        <pt x="437" y="502" on="0"/>
        <pt x="437" y="567" on="1"/>
        <pt x="437" y="603" on="0"/>
        <pt x="394" y="653" on="0"/>
        <pt x="310" y="653" on="0"/>
        <pt x="249" y="603" on="0"/>
        <pt x="249" y="521" on="0"/>
        <pt x="281" y="460" on="0"/>
        <pt x="332" y="414" on="0"/>
        <pt x="393" y="369" on="0"/>
        <pt x="454" y="323" on="0"/>
        <pt x="480" y="298" on="1"/>
        <pt x="537" y="243" on="0"/>
        <pt x="537" y="96" on="0"/>
        <pt x="420" y="-14" on="0"/>
        <pt x="323" y="-23" on="1"/>
        <pt x="305" y="-123" on="0"/>
        <pt x="305" y="-190" on="1"/>
        <pt x="284" y="-190" on="0"/>
        <pt x="257" y="-182" on="1"/>
        <pt x="204" y="-167" on="0"/>
        <pt x="204" y="-113" on="1"/>
        <pt x="204" y="-80" on="0"/>
        <pt x="218" y="-18" on="1"/>
        <pt x="143" y="-4" on="0"/>
        <pt x="61" y="81" on="0"/>
        <pt x="61" y="189" on="0"/>
        <pt x="126" y="255" on="0"/>
        <pt x="181" y="255" on="1"/>
        <pt x="198" y="255" on="0"/>
        <pt x="211" y="251" on="1"/>
        <pt x="184" y="210" on="0"/>
        <pt x="184" y="115" on="0"/>
        <pt x="242" y="47" on="0"/>
        <pt x="340" y="47" on="0"/>
        <pt x="405" y="98" on="0"/>
        <pt x="405" y="179" on="0"/>
        <pt x="346" y="243" on="0"/>
        <pt x="263" y="299" on="0"/>
        <pt x="180" y="362" on="0"/>
        <pt x="121" y="462" on="0"/>
        <pt x="121" y="603" on="0"/>
        <pt x="222" y="709" on="0"/>
        <pt x="319" y="717" on="1"/>
        <pt x="343" y="819" on="0"/>
        <pt x="348" y="875" on="1"/>
        <pt x="376" y="875" on="0"/>
        <pt x="422" y="831" on="0"/>
        <pt x="422" y="765" on="0"/>
        <pt x="411" y="713" on="1"/>
        <pt x="475" y="698" on="0"/>
        <pt x="545" y="615" on="0"/>
        <pt x="545" y="528" on="0"/>
        <pt x="483" y="462" on="0"/>
        <pt x="430" y="462" on="1"/>
        <pt x="409" y="462" on="0"/>
      </contour>
    </TTGlyph>
    <TTGlyph name="dotaccent" xMin="50" yMin="641" xMax="213" yMax="798">
      <contour>
        <pt x="195" y="651" on="1"/>
        <pt x="160" y="641" on="0"/>
        <pt x="124" y="641" on="1"/>
        <pt x="50" y="641" on="0"/>
        <pt x="50" y="703" on="1"/>
        <pt x="50" y="723" on="0"/>
        <pt x="68" y="788" on="1"/>
        <pt x="103" y="798" on="0"/>
        <pt x="139" y="798" on="1"/>
        <pt x="213" y="798" on="0"/>
        <pt x="213" y="736" on="1"/>
        <pt x="213" y="716" on="0"/>
      </contour>
    </TTGlyph>
    <TTGlyph name="dotlessi" xMin="87" yMin="-15" xMax="257" yMax="583">
      <contour>
        <pt x="257" y="482" on="0"/>
        <pt x="208" y="197" on="0"/>
        <pt x="207" y="12" on="0"/>
        <pt x="219" y="-15" on="1"/>
        <pt x="141" y="5" on="0"/>
        <pt x="87" y="86" on="0"/>
        <pt x="87" y="164" on="1"/>
        <pt x="87" y="206" on="0"/>
        <pt x="119" y="426" on="0"/>
        <pt x="119" y="548" on="0"/>
        <pt x="113" y="581" on="1"/>
        <pt x="135" y="583" on="0"/>
        <pt x="154" y="583" on="1"/>
        <pt x="212" y="583" on="0"/>
        <pt x="257" y="544" on="0"/>
        <pt x="257" y="497" on="1"/>
      </contour>
    </TTGlyph>
    <TTGlyph name="e" xMin="50" yMin="-15" xMax="517" yMax="577">
      <contour>
        <pt x="291" y="246" on="1"/>
        <pt x="243" y="246" on="0"/>
        <pt x="197" y="257" on="1"/>
        <pt x="196" y="247" on="0"/>
        <pt x="196" y="226" on="1"/>
        <pt x="196" y="143" on="0"/>
        <pt x="258" y="59" on="0"/>
        <pt x="344" y="59" on="0"/>
        <pt x="422" y="111" on="0"/>
        <pt x="451" y="157" on="1"/>
        <pt x="487" y="149" on="0"/>
        <pt x="487" y="120" on="1"/>
        <pt x="399" y="-15" on="0"/>
        <pt x="260" y="-15" on="1"/>
        <pt x="176" y="-15" on="0"/>
        <pt x="50" y="114" on="0"/>
        <pt x="50" y="229" on="1"/>
        <pt x="50" y="315" on="0"/>
        <pt x="116" y="470" on="0"/>
        <pt x="260" y="577" on="0"/>
        <pt x="435" y="577" on="0"/>
        <pt x="517" y="497" on="0"/>
        <pt x="517" y="432" on="1"/>
        <pt x="517" y="338" on="0"/>
        <pt x="386" y="246" on="0"/>
      </contour>
      <contour>
        <pt x="333" y="515" on="1"/>
        <pt x="282" y="515" on="0"/>
        <pt x="212" y="389" on="0"/>
        <pt x="201" y="299" on="1"/>
        <pt x="216" y="299" on="1"/>
        <pt x="303" y="299" on="0"/>
        <pt x="386" y="389" on="0"/>
        <pt x="386" y="452" on="1"/>
        <pt x="386" y="478" on="0"/>
        <pt x="359" y="515" on="0"/>
      </contour>
    </TTGlyph>
    <TTGlyph name="eacute" xMin="50" yMin="-15" xMax="517" yMax="867">
      <component glyphName="e" x="0" y="0" flags="0x1004"/>
      <component glyphName="acute" x="151" y="0" flags="0x1004"/>
    </TTGlyph>
    <TTGlyph name="ecircumflex" xMin="50" yMin="-15" xMax="524" yMax="873">
      <component glyphName="e" x="0" y="0" flags="0x1004"/>
      <component glyphName="circumflex" x="82" y="0" flags="0x1004"/>
    </TTGlyph>
    <TTGlyph name="edieresis" xMin="50" yMin="-15" xMax="520" yMax="814">
      <contour>
        <pt x="291" y="246" on="1"/>
        <pt x="243" y="246" on="0"/>
        <pt x="197" y="257" on="1"/>
        <pt x="196" y="247" on="0"/>
        <pt x="196" y="226" on="1"/>
        <pt x="196" y="143" on="0"/>
        <pt x="258" y="59" on="0"/>
        <pt x="344" y="59" on="0"/>
        <pt x="422" y="111" on="0"/>
        <pt x="451" y="157" on="1"/>
        <pt x="487" y="149" on="0"/>
        <pt x="487" y="120" on="1"/>
        <pt x="399" y="-15" on="0"/>
        <pt x="260" y="-15" on="1"/>
        <pt x="176" y="-15" on="0"/>
        <pt x="50" y="114" on="0"/>
        <pt x="50" y="229" on="1"/>
        <pt x="50" y="315" on="0"/>
        <pt x="116" y="470" on="0"/>
        <pt x="260" y="577" on="0"/>
        <pt x="435" y="577" on="0"/>
        <pt x="517" y="497" on="0"/>
        <pt x="517" y="432" on="1"/>
        <pt x="517" y="338" on="0"/>
        <pt x="386" y="246" on="0"/>
      </contour>
      <contour>
        <pt x="333" y="515" on="1"/>
        <pt x="282" y="515" on="0"/>
        <pt x="212" y="389" on="0"/>
        <pt x="201" y="299" on="1"/>
        <pt x="216" y="299" on="1"/>
        <pt x="303" y="299" on="0"/>
        <pt x="386" y="389" on="0"/>
        <pt x="386" y="452" on="1"/>
        <pt x="386" y="478" on="0"/>
        <pt x="359" y="515" on="0"/>
      </contour>
      <contour>
        <pt x="295" y="671" on="1"/>
        <pt x="267" y="667" on="0"/>
        <pt x="246" y="667" on="1"/>
        <pt x="143" y="667" on="0"/>
        <pt x="143" y="739" on="1"/>
        <pt x="143" y="765" on="0"/>
        <pt x="158" y="810" on="1"/>
        <pt x="186" y="814" on="0"/>
        <pt x="207" y="814" on="1"/>
        <pt x="310" y="814" on="0"/>
        <pt x="310" y="742" on="1"/>
        <pt x="310" y="716" on="0"/>
      </contour>
      <contour>
        <pt x="505" y="671" on="1"/>
        <pt x="477" y="667" on="0"/>
        <pt x="456" y="667" on="1"/>
        <pt x="353" y="667" on="0"/>
        <pt x="353" y="739" on="1"/>
        <pt x="353" y="765" on="0"/>
        <pt x="368" y="810" on="1"/>
        <pt x="396" y="814" on="0"/>
        <pt x="417" y="814" on="1"/>
        <pt x="520" y="814" on="0"/>
        <pt x="520" y="742" on="1"/>
        <pt x="520" y="716" on="0"/>
      </contour>
    </TTGlyph>
    <TTGlyph name="egrave" xMin="50" yMin="-15" xMax="517" yMax="867">
      <component glyphName="e" x="0" y="0" flags="0x1004"/>
      <component glyphName="grave" x="112" y="0" flags="0x1004"/>
    </TTGlyph>
    <TTGlyph name="eight" xMin="55" yMin="-33" xMax="552" yMax="719">
      <contour>
        <pt x="336" y="228" on="1"/>
        <pt x="329" y="235" on="0"/>
        <pt x="285" y="272" on="0"/>
        <pt x="275" y="281" on="1"/>
        <pt x="230" y="246" on="0"/>
        <pt x="193" y="174" on="0"/>
        <pt x="193" y="89" on="0"/>
        <pt x="239" y="39" on="0"/>
        <pt x="320" y="39" on="0"/>
        <pt x="389" y="90" on="0"/>
        <pt x="389" y="183" on="0"/>
      </contour>
      <contour>
        <pt x="315" y="646" on="0"/>
        <pt x="258" y="595" on="0"/>
        <pt x="258" y="511" on="0"/>
        <pt x="298" y="454" on="0"/>
        <pt x="348" y="416" on="1"/>
        <pt x="427" y="486" on="0"/>
        <pt x="427" y="569" on="1"/>
        <pt x="427" y="602" on="0"/>
        <pt x="389" y="646" on="0"/>
      </contour>
      <contour>
        <pt x="552" y="573" on="1"/>
        <pt x="552" y="437" on="0"/>
        <pt x="385" y="381" on="1"/>
        <pt x="443" y="337" on="0"/>
        <pt x="498" y="287" on="0"/>
        <pt x="545" y="209" on="0"/>
        <pt x="545" y="166" on="1"/>
        <pt x="545" y="77" on="0"/>
        <pt x="400" y="-33" on="0"/>
        <pt x="173" y="-33" on="0"/>
        <pt x="55" y="67" on="0"/>
        <pt x="55" y="138" on="1"/>
        <pt x="55" y="265" on="0"/>
        <pt x="233" y="319" on="1"/>
        <pt x="170" y="373" on="0"/>
        <pt x="111" y="465" on="0"/>
        <pt x="111" y="527" on="1"/>
        <pt x="111" y="615" on="0"/>
        <pt x="247" y="719" on="0"/>
        <pt x="457" y="719" on="0"/>
        <pt x="552" y="633" on="0"/>
      </contour>
    </TTGlyph>
    <TTGlyph name="ellipsis" xMin="30" yMin="-11" xMax="609" yMax="146">
      <contour>
        <pt x="175" y="-1" on="1"/>
        <pt x="140" y="-11" on="0"/>
        <pt x="104" y="-11" on="1"/>
        <pt x="30" y="-11" on="0"/>
        <pt x="30" y="51" on="1"/>
        <pt x="30" y="71" on="0"/>
        <pt x="48" y="136" on="1"/>
        <pt x="83" y="146" on="0"/>
        <pt x="119" y="146" on="1"/>
        <pt x="193" y="146" on="0"/>
        <pt x="193" y="84" on="1"/>
        <pt x="193" y="64" on="0"/>
      </contour>
      <contour>
        <pt x="383" y="-1" on="1"/>
        <pt x="348" y="-11" on="0"/>
        <pt x="312" y="-11" on="1"/>
        <pt x="238" y="-11" on="0"/>
        <pt x="238" y="51" on="1"/>
        <pt x="238" y="71" on="0"/>
        <pt x="256" y="136" on="1"/>
        <pt x="291" y="146" on="0"/>
        <pt x="327" y="146" on="1"/>
        <pt x="401" y="146" on="0"/>
        <pt x="401" y="84" on="1"/>
        <pt x="401" y="64" on="0"/>
      </contour>
      <contour>
        <pt x="591" y="-1" on="1"/>
        <pt x="556" y="-11" on="0"/>
        <pt x="520" y="-11" on="1"/>
        <pt x="446" y="-11" on="0"/>
        <pt x="446" y="51" on="1"/>
        <pt x="446" y="71" on="0"/>
        <pt x="464" y="136" on="1"/>
        <pt x="499" y="146" on="0"/>
        <pt x="535" y="146" on="1"/>
        <pt x="609" y="146" on="0"/>
        <pt x="609" y="84" on="1"/>
        <pt x="609" y="64" on="0"/>
      </contour>
    </TTGlyph>
    <TTGlyph name="emdash" xMin="20" yMin="250" xMax="645" yMax="385">
      <contour>
        <pt x="261" y="371" on="0"/>
        <pt x="456" y="385" on="0"/>
        <pt x="594" y="385" on="0"/>
        <pt x="645" y="330" on="0"/>
        <pt x="645" y="276" on="1"/>
        <pt x="645" y="272" on="0"/>
        <pt x="644" y="257" on="0"/>
        <pt x="644" y="253" on="1"/>
        <pt x="549" y="264" on="0"/>
        <pt x="404" y="264" on="0"/>
        <pt x="209" y="250" on="0"/>
        <pt x="71" y="250" on="0"/>
        <pt x="20" y="305" on="0"/>
        <pt x="20" y="359" on="1"/>
        <pt x="20" y="363" on="0"/>
        <pt x="21" y="378" on="0"/>
        <pt x="21" y="382" on="1"/>
        <pt x="116" y="371" on="0"/>
      </contour>
    </TTGlyph>
    <TTGlyph name="endash" xMin="20" yMin="250" xMax="483" yMax="385">
      <contour>
        <pt x="198" y="371" on="0"/>
        <pt x="343" y="385" on="0"/>
        <pt x="445" y="385" on="0"/>
        <pt x="483" y="330" on="0"/>
        <pt x="483" y="276" on="1"/>
        <pt x="483" y="272" on="0"/>
        <pt x="482" y="257" on="0"/>
        <pt x="482" y="253" on="1"/>
        <pt x="412" y="264" on="0"/>
        <pt x="305" y="264" on="0"/>
        <pt x="160" y="250" on="0"/>
        <pt x="58" y="250" on="0"/>
        <pt x="20" y="305" on="0"/>
        <pt x="20" y="359" on="1"/>
        <pt x="20" y="363" on="0"/>
        <pt x="21" y="378" on="0"/>
        <pt x="21" y="382" on="1"/>
        <pt x="91" y="371" on="0"/>
      </contour>
    </TTGlyph>
    <TTGlyph name="equal" xMin="45" yMin="170" xMax="575" yMax="543">
      <contour>
        <pt x="251" y="529" on="0"/>
        <pt x="414" y="543" on="0"/>
        <pt x="531" y="543" on="0"/>
        <pt x="575" y="488" on="0"/>
        <pt x="575" y="434" on="1"/>
        <pt x="575" y="430" on="0"/>
        <pt x="574" y="415" on="0"/>
        <pt x="574" y="411" on="1"/>
        <pt x="493" y="422" on="0"/>
        <pt x="369" y="422" on="0"/>
        <pt x="206" y="408" on="0"/>
        <pt x="89" y="408" on="0"/>
        <pt x="45" y="463" on="0"/>
        <pt x="45" y="517" on="1"/>
        <pt x="45" y="521" on="0"/>
        <pt x="46" y="536" on="0"/>
        <pt x="46" y="540" on="1"/>
        <pt x="127" y="529" on="0"/>
      </contour>
      <contour>
        <pt x="251" y="291" on="0"/>
        <pt x="414" y="305" on="0"/>
        <pt x="531" y="305" on="0"/>
        <pt x="575" y="250" on="0"/>
        <pt x="575" y="196" on="1"/>
        <pt x="575" y="192" on="0"/>
        <pt x="574" y="177" on="0"/>
        <pt x="574" y="173" on="1"/>
        <pt x="493" y="184" on="0"/>
        <pt x="369" y="184" on="0"/>
        <pt x="206" y="170" on="0"/>
        <pt x="89" y="170" on="0"/>
        <pt x="45" y="225" on="0"/>
        <pt x="45" y="279" on="1"/>
        <pt x="45" y="283" on="0"/>
        <pt x="46" y="298" on="0"/>
        <pt x="46" y="302" on="1"/>
        <pt x="127" y="291" on="0"/>
      </contour>
    </TTGlyph>
    <TTGlyph name="eth" xMin="50" yMin="-15" xMax="683" yMax="899">
      <contour>
        <pt x="158" y="784" on="1"/>
        <pt x="158" y="830" on="0"/>
        <pt x="259" y="899" on="0"/>
        <pt x="322" y="899" on="1"/>
        <pt x="457" y="899" on="0"/>
        <pt x="525" y="765" on="1"/>
        <pt x="579" y="793" on="0"/>
        <pt x="640" y="793" on="0"/>
        <pt x="669" y="760" on="0"/>
        <pt x="683" y="727" on="1"/>
        <pt x="628" y="708" on="0"/>
        <pt x="557" y="677" on="1"/>
        <pt x="578" y="595" on="0"/>
        <pt x="578" y="398" on="0"/>
        <pt x="540" y="221" on="0"/>
        <pt x="466" y="74" on="0"/>
        <pt x="343" y="-15" on="0"/>
        <pt x="179" y="-15" on="0"/>
        <pt x="50" y="120" on="0"/>
        <pt x="50" y="385" on="0"/>
        <pt x="206" y="541" on="0"/>
        <pt x="315" y="541" on="1"/>
        <pt x="391" y="541" on="0"/>
        <pt x="458" y="501" on="1"/>
        <pt x="456" y="568" on="0"/>
        <pt x="448" y="620" on="1"/>
        <pt x="404" y="599" on="0"/>
        <pt x="348" y="599" on="0"/>
        <pt x="317" y="633" on="0"/>
        <pt x="305" y="666" on="1"/>
        <pt x="373" y="690" on="0"/>
        <pt x="427" y="714" on="1"/>
        <pt x="392" y="825" on="0"/>
        <pt x="332" y="825" on="1"/>
        <pt x="291" y="825" on="0"/>
        <pt x="244" y="765" on="0"/>
        <pt x="244" y="709" on="1"/>
        <pt x="208" y="709" on="0"/>
        <pt x="158" y="754" on="0"/>
      </contour>
      <contour>
        <pt x="194" y="152" on="0"/>
        <pt x="240" y="57" on="0"/>
        <pt x="327" y="57" on="0"/>
        <pt x="391" y="121" on="0"/>
        <pt x="411" y="176" on="1"/>
        <pt x="451" y="284" on="0"/>
        <pt x="457" y="438" on="1"/>
        <pt x="408" y="474" on="0"/>
        <pt x="360" y="474" on="1"/>
        <pt x="290" y="474" on="0"/>
        <pt x="194" y="337" on="0"/>
        <pt x="194" y="228" on="1"/>
      </contour>
    </TTGlyph>
    <TTGlyph name="exclam" xMin="60" yMin="-11" xMax="290" yMax="798">
      <contour>
        <pt x="290" y="703" on="1"/>
        <pt x="290" y="672" on="0"/>
        <pt x="272" y="605" on="1"/>
        <pt x="219" y="400" on="0"/>
        <pt x="219" y="287" on="1"/>
        <pt x="219" y="237" on="0"/>
        <pt x="227" y="218" on="1"/>
        <pt x="158" y="235" on="0"/>
        <pt x="106" y="304" on="0"/>
        <pt x="106" y="425" on="0"/>
        <pt x="156" y="675" on="0"/>
        <pt x="156" y="782" on="0"/>
        <pt x="153" y="798" on="1"/>
        <pt x="206" y="798" on="0"/>
        <pt x="290" y="751" on="0"/>
      </contour>
      <contour>
        <pt x="78" y="136" on="1"/>
        <pt x="113" y="146" on="0"/>
        <pt x="149" y="146" on="1"/>
        <pt x="223" y="146" on="0"/>
        <pt x="223" y="84" on="1"/>
        <pt x="223" y="64" on="0"/>
        <pt x="205" y="-1" on="1"/>
        <pt x="170" y="-11" on="0"/>
        <pt x="134" y="-11" on="1"/>
        <pt x="60" y="-11" on="0"/>
        <pt x="60" y="51" on="1"/>
        <pt x="60" y="71" on="0"/>
      </contour>
    </TTGlyph>
    <TTGlyph name="exclamdown" xMin="26" yMin="-255" xMax="256" yMax="554">
      <contour>
        <pt x="26" y="-160" on="1"/>
        <pt x="26" y="-129" on="0"/>
        <pt x="44" y="-62" on="1"/>
        <pt x="97" y="143" on="0"/>
        <pt x="97" y="255" on="1"/>
        <pt x="97" y="306" on="0"/>
        <pt x="89" y="325" on="1"/>
        <pt x="158" y="307" on="0"/>
        <pt x="210" y="238" on="0"/>
        <pt x="210" y="118" on="0"/>
        <pt x="160" y="-132" on="0"/>
        <pt x="160" y="-239" on="0"/>
        <pt x="163" y="-255" on="1"/>
        <pt x="110" y="-255" on="0"/>
        <pt x="26" y="-208" on="0"/>
      </contour>
      <contour>
        <pt x="238" y="407" on="1"/>
        <pt x="203" y="397" on="0"/>
        <pt x="167" y="397" on="1"/>
        <pt x="93" y="397" on="0"/>
        <pt x="93" y="459" on="1"/>
        <pt x="93" y="479" on="0"/>
        <pt x="111" y="544" on="1"/>
        <pt x="146" y="554" on="0"/>
        <pt x="182" y="554" on="1"/>
        <pt x="256" y="554" on="0"/>
        <pt x="256" y="492" on="1"/>
        <pt x="256" y="472" on="0"/>
      </contour>
    </TTGlyph>
    <TTGlyph name="f" xMin="35" yMin="-113" xMax="582" yMax="900">
      <contour>
        <pt x="409" y="584" on="1"/>
        <pt x="411" y="564" on="0"/>
        <pt x="411" y="554" on="1"/>
        <pt x="411" y="506" on="0"/>
        <pt x="377" y="469" on="0"/>
        <pt x="292" y="469" on="0"/>
        <pt x="269" y="470" on="1"/>
        <pt x="230" y="186" on="0"/>
        <pt x="230" y="63" on="1"/>
        <pt x="230" y="4" on="0"/>
        <pt x="235" y="-49" on="0"/>
        <pt x="246" y="-113" on="1"/>
        <pt x="174" y="-90" on="0"/>
        <pt x="106" y="13" on="0"/>
        <pt x="106" y="83" on="1"/>
        <pt x="106" y="188" on="0"/>
        <pt x="136" y="393" on="1"/>
        <pt x="143" y="445" on="0"/>
        <pt x="145" y="462" on="1"/>
        <pt x="92" y="453" on="0"/>
        <pt x="37" y="428" on="1"/>
        <pt x="35" y="450" on="0"/>
        <pt x="35" y="461" on="1"/>
        <pt x="35" y="515" on="0"/>
        <pt x="101" y="553" on="0"/>
        <pt x="163" y="554" on="1"/>
        <pt x="183" y="652" on="0"/>
        <pt x="250" y="794" on="0"/>
        <pt x="290" y="830" on="1"/>
        <pt x="366" y="900" on="0"/>
        <pt x="449" y="900" on="1"/>
        <pt x="505" y="900" on="0"/>
        <pt x="582" y="833" on="0"/>
        <pt x="582" y="736" on="0"/>
        <pt x="516" y="664" on="0"/>
        <pt x="462" y="664" on="1"/>
        <pt x="441" y="664" on="0"/>
        <pt x="421" y="671" on="1"/>
        <pt x="437" y="683" on="0"/>
        <pt x="468" y="743" on="0"/>
        <pt x="468" y="796" on="0"/>
        <pt x="445" y="826" on="0"/>
        <pt x="426" y="826" on="1"/>
        <pt x="385" y="826" on="0"/>
        <pt x="300" y="689" on="0"/>
        <pt x="279" y="551" on="1"/>
        <pt x="368" y="551" on="0"/>
      </contour>
    </TTGlyph>
    <TTGlyph name="fi" xMin="35" yMin="-113" xMax="631" yMax="898">
      <contour>
        <pt x="409" y="584" on="1"/>
        <pt x="411" y="564" on="0"/>
        <pt x="411" y="554" on="1"/>
        <pt x="411" y="506" on="0"/>
        <pt x="377" y="469" on="0"/>
        <pt x="292" y="469" on="0"/>
        <pt x="269" y="470" on="1"/>
        <pt x="230" y="186" on="0"/>
        <pt x="230" y="63" on="1"/>
        <pt x="230" y="4" on="0"/>
        <pt x="235" y="-49" on="0"/>
        <pt x="246" y="-113" on="1"/>
        <pt x="174" y="-90" on="0"/>
        <pt x="106" y="13" on="0"/>
        <pt x="106" y="83" on="1"/>
        <pt x="106" y="188" on="0"/>
        <pt x="136" y="393" on="1"/>
        <pt x="143" y="445" on="0"/>
        <pt x="145" y="462" on="1"/>
        <pt x="92" y="453" on="0"/>
        <pt x="37" y="428" on="1"/>
        <pt x="35" y="450" on="0"/>
        <pt x="35" y="461" on="1"/>
        <pt x="35" y="515" on="0"/>
        <pt x="101" y="553" on="0"/>
        <pt x="163" y="554" on="1"/>
        <pt x="232" y="898" on="0"/>
        <pt x="465" y="898" on="1"/>
        <pt x="543" y="898" on="0"/>
        <pt x="631" y="815" on="0"/>
        <pt x="631" y="716" on="0"/>
        <pt x="569" y="653" on="0"/>
        <pt x="513" y="653" on="1"/>
        <pt x="490" y="653" on="0"/>
        <pt x="466" y="663" on="1"/>
        <pt x="503" y="688" on="0"/>
        <pt x="503" y="742" on="1"/>
        <pt x="503" y="777" on="0"/>
        <pt x="464" y="827" on="0"/>
        <pt x="428" y="827" on="1"/>
        <pt x="382" y="827" on="0"/>
        <pt x="300" y="697" on="0"/>
        <pt x="279" y="551" on="1"/>
        <pt x="368" y="551" on="0"/>
      </contour>
      <contour>
        <pt x="615" y="482" on="0"/>
        <pt x="566" y="197" on="0"/>
        <pt x="565" y="12" on="0"/>
        <pt x="577" y="-15" on="1"/>
        <pt x="499" y="5" on="0"/>
        <pt x="445" y="86" on="0"/>
        <pt x="445" y="164" on="1"/>
        <pt x="445" y="206" on="0"/>
        <pt x="477" y="426" on="0"/>
        <pt x="477" y="548" on="0"/>
        <pt x="471" y="581" on="1"/>
        <pt x="493" y="583" on="0"/>
        <pt x="512" y="583" on="1"/>
        <pt x="570" y="583" on="0"/>
        <pt x="615" y="544" on="0"/>
        <pt x="615" y="497" on="1"/>
      </contour>
    </TTGlyph>
    <TTGlyph name="five" xMin="61" yMin="-33" xMax="554" yMax="710">
      <contour>
        <pt x="545" y="710" on="1"/>
        <pt x="554" y="692" on="0"/>
        <pt x="554" y="643" on="1"/>
        <pt x="554" y="561" on="0"/>
        <pt x="502" y="561" on="1"/>
        <pt x="440" y="561" on="0"/>
        <pt x="253" y="598" on="1"/>
        <pt x="226" y="425" on="1"/>
        <pt x="255" y="430" on="0"/>
        <pt x="293" y="430" on="1"/>
        <pt x="411" y="430" on="0"/>
        <pt x="545" y="314" on="0"/>
        <pt x="545" y="121" on="0"/>
        <pt x="398" y="-33" on="0"/>
        <pt x="275" y="-33" on="1"/>
        <pt x="185" y="-33" on="0"/>
        <pt x="61" y="48" on="0"/>
        <pt x="61" y="119" on="1"/>
        <pt x="61" y="175" on="0"/>
        <pt x="133" y="251" on="0"/>
        <pt x="191" y="251" on="1"/>
        <pt x="208" y="251" on="0"/>
        <pt x="226" y="248" on="1"/>
        <pt x="187" y="203" on="0"/>
        <pt x="187" y="106" on="0"/>
        <pt x="243" y="45" on="0"/>
        <pt x="336" y="45" on="0"/>
        <pt x="414" y="126" on="0"/>
        <pt x="414" y="261" on="0"/>
        <pt x="317" y="361" on="0"/>
        <pt x="223" y="361" on="1"/>
        <pt x="171" y="361" on="0"/>
        <pt x="115" y="348" on="1"/>
        <pt x="162" y="626" on="1"/>
        <pt x="136" y="649" on="0"/>
        <pt x="132" y="702" on="1"/>
        <pt x="194" y="693" on="0"/>
        <pt x="268" y="693" on="1"/>
        <pt x="396" y="693" on="0"/>
        <pt x="510" y="706" on="1"/>
      </contour>
    </TTGlyph>
    <TTGlyph name="fl" xMin="35" yMin="-113" xMax="623" yMax="897">
      <contour>
        <pt x="409" y="584" on="1"/>
        <pt x="411" y="564" on="0"/>
        <pt x="411" y="554" on="1"/>
        <pt x="411" y="506" on="0"/>
        <pt x="377" y="469" on="0"/>
        <pt x="292" y="469" on="0"/>
        <pt x="269" y="470" on="1"/>
        <pt x="230" y="186" on="0"/>
        <pt x="230" y="63" on="1"/>
        <pt x="230" y="4" on="0"/>
        <pt x="235" y="-49" on="0"/>
        <pt x="246" y="-113" on="1"/>
        <pt x="174" y="-90" on="0"/>
        <pt x="106" y="13" on="0"/>
        <pt x="106" y="83" on="1"/>
        <pt x="106" y="188" on="0"/>
        <pt x="136" y="393" on="1"/>
        <pt x="143" y="445" on="0"/>
        <pt x="145" y="462" on="1"/>
        <pt x="92" y="453" on="0"/>
        <pt x="37" y="428" on="1"/>
        <pt x="35" y="450" on="0"/>
        <pt x="35" y="461" on="1"/>
        <pt x="35" y="515" on="0"/>
        <pt x="101" y="553" on="0"/>
        <pt x="163" y="554" on="1"/>
        <pt x="204" y="754" on="0"/>
        <pt x="288" y="829" on="1"/>
        <pt x="365" y="897" on="0"/>
        <pt x="451" y="897" on="1"/>
        <pt x="623" y="897" on="0"/>
        <pt x="623" y="724" on="1"/>
        <pt x="623" y="681" on="0"/>
        <pt x="565" y="214" on="0"/>
        <pt x="565" y="14" on="0"/>
        <pt x="577" y="-16" on="1"/>
        <pt x="502" y="4" on="0"/>
        <pt x="447" y="85" on="0"/>
        <pt x="447" y="218" on="0"/>
        <pt x="503" y="664" on="0"/>
        <pt x="503" y="739" on="1"/>
        <pt x="503" y="776" on="0"/>
        <pt x="466" y="826" on="0"/>
        <pt x="428" y="826" on="1"/>
        <pt x="372" y="826" on="0"/>
        <pt x="304" y="706" on="0"/>
        <pt x="280" y="551" on="1"/>
        <pt x="368" y="551" on="0"/>
      </contour>
    </TTGlyph>
    <TTGlyph name="florin" xMin="-57" yMin="-258" xMax="603" yMax="719">
      <contour>
        <pt x="82" y="357" on="1"/>
        <pt x="118" y="356" on="1"/>
        <pt x="167" y="356" on="0"/>
        <pt x="229" y="366" on="1"/>
        <pt x="251" y="522" on="0"/>
        <pt x="296" y="612" on="1"/>
        <pt x="350" y="719" on="0"/>
        <pt x="459" y="719" on="1"/>
        <pt x="532" y="719" on="0"/>
        <pt x="603" y="653" on="0"/>
        <pt x="603" y="559" on="0"/>
        <pt x="541" y="493" on="0"/>
        <pt x="488" y="493" on="1"/>
        <pt x="467" y="493" on="0"/>
        <pt x="447" y="500" on="1"/>
        <pt x="468" y="514" on="0"/>
        <pt x="497" y="563" on="0"/>
        <pt x="497" y="610" on="0"/>
        <pt x="473" y="641" on="0"/>
        <pt x="451" y="641" on="1"/>
        <pt x="403" y="641" on="0"/>
        <pt x="359" y="511" on="0"/>
        <pt x="348" y="387" on="1"/>
        <pt x="397" y="394" on="0"/>
        <pt x="470" y="394" on="0"/>
        <pt x="515" y="356" on="0"/>
        <pt x="526" y="305" on="1"/>
        <pt x="510" y="314" on="0"/>
        <pt x="423" y="314" on="0"/>
        <pt x="341" y="302" on="1"/>
        <pt x="323" y="62" on="0"/>
        <pt x="298" y="-38" on="1"/>
        <pt x="242" y="-258" on="0"/>
        <pt x="90" y="-258" on="1"/>
        <pt x="18" y="-258" on="0"/>
        <pt x="-57" y="-191" on="0"/>
        <pt x="-57" y="-96" on="0"/>
        <pt x="0" y="-32" on="0"/>
        <pt x="50" y="-32" on="1"/>
        <pt x="71" y="-32" on="0"/>
        <pt x="92" y="-39" on="1"/>
        <pt x="72" y="-52" on="0"/>
        <pt x="46" y="-100" on="0"/>
        <pt x="46" y="-148" on="0"/>
        <pt x="72" y="-180" on="0"/>
        <pt x="116" y="-180" on="0"/>
        <pt x="148" y="-155" on="0"/>
        <pt x="171" y="-100" on="0"/>
        <pt x="186" y="-44" on="0"/>
        <pt x="198" y="53" on="0"/>
        <pt x="205" y="123" on="0"/>
        <pt x="215" y="245" on="0"/>
        <pt x="219" y="280" on="1"/>
        <pt x="173" y="273" on="0"/>
        <pt x="155" y="273" on="1"/>
        <pt x="89" y="273" on="0"/>
      </contour>
    </TTGlyph>
    <TTGlyph name="four" xMin="51" yMin="-37" xMax="573" yMax="757">
      <contour>
        <pt x="77" y="139" on="1"/>
        <pt x="51" y="167" on="0"/>
        <pt x="51" y="219" on="1"/>
        <pt x="51" y="227" on="0"/>
        <pt x="64" y="249" on="0"/>
        <pt x="170" y="427" on="0"/>
        <pt x="204" y="489" on="0"/>
        <pt x="238" y="554" on="1"/>
        <pt x="295" y="664" on="0"/>
        <pt x="314" y="757" on="1"/>
        <pt x="323" y="755" on="0"/>
        <pt x="364" y="731" on="0"/>
        <pt x="390" y="710" on="0"/>
        <pt x="411" y="674" on="0"/>
        <pt x="411" y="619" on="0"/>
        <pt x="338" y="492" on="0"/>
        <pt x="205" y="294" on="0"/>
        <pt x="169" y="230" on="1"/>
        <pt x="277" y="233" on="0"/>
        <pt x="381" y="241" on="1"/>
        <pt x="395" y="328" on="0"/>
        <pt x="395" y="420" on="0"/>
        <pt x="393" y="454" on="1"/>
        <pt x="413" y="456" on="0"/>
        <pt x="427" y="456" on="1"/>
        <pt x="511" y="456" on="0"/>
        <pt x="511" y="379" on="1"/>
        <pt x="511" y="346" on="0"/>
        <pt x="498" y="251" on="1"/>
        <pt x="566" y="258" on="1"/>
        <pt x="573" y="233" on="0"/>
        <pt x="573" y="206" on="1"/>
        <pt x="573" y="125" on="0"/>
        <pt x="494" y="125" on="1"/>
        <pt x="483" y="125" on="1"/>
        <pt x="482" y="106" on="0"/>
        <pt x="482" y="-7" on="0"/>
        <pt x="488" y="-35" on="1"/>
        <pt x="466" y="-37" on="0"/>
        <pt x="449" y="-37" on="1"/>
        <pt x="396" y="-37" on="0"/>
        <pt x="348" y="14" on="0"/>
        <pt x="348" y="53" on="1"/>
        <pt x="348" y="68" on="0"/>
        <pt x="360" y="128" on="1"/>
      </contour>
    </TTGlyph>
    <TTGlyph name="fraction" xMin="12" yMin="-82" xMax="331" yMax="768">
      <contour>
        <pt x="264" y="768" on="1"/>
        <pt x="272" y="764" on="0"/>
        <pt x="294" y="749" on="0"/>
        <pt x="331" y="696" on="0"/>
        <pt x="331" y="626" on="0"/>
        <pt x="237" y="356" on="0"/>
        <pt x="128" y="20" on="0"/>
        <pt x="114" y="-82" on="1"/>
        <pt x="104" y="-82" on="0"/>
        <pt x="61" y="-66" on="0"/>
        <pt x="34" y="-48" on="0"/>
        <pt x="12" y="-10" on="0"/>
        <pt x="12" y="14" on="1"/>
        <pt x="12" y="59" on="0"/>
        <pt x="122" y="344" on="0"/>
        <pt x="249" y="680" on="0"/>
      </contour>
    </TTGlyph>
    <TTGlyph name="g" xMin="18" yMin="-329" xMax="562" yMax="633">
      <contour>
        <pt x="371" y="567" on="1"/>
        <pt x="390" y="567" on="0"/>
        <pt x="400" y="565" on="1"/>
        <pt x="426" y="560" on="0"/>
        <pt x="428" y="528" on="1"/>
        <pt x="319" y="505" on="0"/>
        <pt x="190" y="315" on="0"/>
        <pt x="190" y="212" on="1"/>
        <pt x="190" y="92" on="0"/>
        <pt x="263" y="92" on="1"/>
        <pt x="307" y="92" on="0"/>
        <pt x="342" y="140" on="1"/>
        <pt x="404" y="227" on="0"/>
        <pt x="429" y="412" on="1"/>
        <pt x="448" y="558" on="0"/>
        <pt x="500" y="600" on="1"/>
        <pt x="525" y="621" on="0"/>
        <pt x="562" y="633" on="1"/>
        <pt x="548" y="527" on="0"/>
        <pt x="548" y="473" on="1"/>
        <pt x="548" y="73" on="0"/>
        <pt x="377" y="-329" on="0"/>
        <pt x="184" y="-329" on="1"/>
        <pt x="106" y="-329" on="0"/>
        <pt x="18" y="-246" on="0"/>
        <pt x="18" y="-147" on="0"/>
        <pt x="80" y="-84" on="0"/>
        <pt x="136" y="-84" on="1"/>
        <pt x="159" y="-84" on="0"/>
        <pt x="183" y="-94" on="1"/>
        <pt x="145" y="-119" on="0"/>
        <pt x="145" y="-171" on="1"/>
        <pt x="145" y="-206" on="0"/>
        <pt x="187" y="-257" on="0"/>
        <pt x="248" y="-257" on="0"/>
        <pt x="294" y="-232" on="0"/>
        <pt x="342" y="-168" on="0"/>
        <pt x="360" y="-120" on="1"/>
        <pt x="401" y="-9" on="0"/>
        <pt x="405" y="183" on="1"/>
        <pt x="376" y="97" on="0"/>
        <pt x="258" y="-7" on="0"/>
        <pt x="197" y="-7" on="1"/>
        <pt x="120" y="-7" on="0"/>
        <pt x="39" y="110" on="0"/>
        <pt x="39" y="201" on="1"/>
        <pt x="39" y="307" on="0"/>
        <pt x="90" y="398" on="1"/>
        <pt x="147" y="503" on="0"/>
        <pt x="248" y="544" on="1"/>
        <pt x="304" y="567" on="0"/>
      </contour>
    </TTGlyph>
    <TTGlyph name="germandbls" xMin="35" yMin="-113" xMax="693" yMax="860">
      <contour>
        <pt x="488" y="460" on="1"/>
        <pt x="489" y="455" on="1"/>
        <pt x="585" y="449" on="0"/>
        <pt x="693" y="321" on="0"/>
        <pt x="693" y="235" on="1"/>
        <pt x="693" y="129" on="0"/>
        <pt x="547" y="-33" on="0"/>
        <pt x="424" y="-33" on="1"/>
        <pt x="347" y="-33" on="0"/>
        <pt x="269" y="42" on="0"/>
        <pt x="269" y="145" on="0"/>
        <pt x="332" y="221" on="0"/>
        <pt x="381" y="221" on="1"/>
        <pt x="405" y="221" on="0"/>
        <pt x="429" y="211" on="1"/>
        <pt x="414" y="194" on="0"/>
        <pt x="388" y="121" on="0"/>
        <pt x="388" y="90" on="1"/>
        <pt x="388" y="29" on="0"/>
        <pt x="439" y="29" on="1"/>
        <pt x="483" y="29" on="0"/>
        <pt x="543" y="147" on="0"/>
        <pt x="543" y="298" on="0"/>
        <pt x="466" y="406" on="0"/>
        <pt x="390" y="406" on="1"/>
        <pt x="372" y="451" on="1"/>
        <pt x="440" y="493" on="0"/>
        <pt x="519" y="616" on="0"/>
        <pt x="519" y="728" on="0"/>
        <pt x="475" y="786" on="0"/>
        <pt x="435" y="786" on="1"/>
        <pt x="378" y="786" on="0"/>
        <pt x="291" y="652" on="0"/>
        <pt x="273" y="507" on="1"/>
        <pt x="270" y="480" on="0"/>
        <pt x="251" y="331" on="0"/>
        <pt x="246" y="285" on="1"/>
        <pt x="230" y="155" on="0"/>
        <pt x="230" y="4" on="0"/>
        <pt x="235" y="-49" on="0"/>
        <pt x="246" y="-113" on="1"/>
        <pt x="174" y="-90" on="0"/>
        <pt x="106" y="13" on="0"/>
        <pt x="106" y="83" on="1"/>
        <pt x="106" y="222" on="0"/>
        <pt x="146" y="462" on="1"/>
        <pt x="91" y="452" on="0"/>
        <pt x="37" y="428" on="1"/>
        <pt x="35" y="450" on="0"/>
        <pt x="35" y="461" on="1"/>
        <pt x="35" y="515" on="0"/>
        <pt x="102" y="553" on="0"/>
        <pt x="164" y="554" on="1"/>
        <pt x="185" y="640" on="0"/>
        <pt x="253" y="765" on="0"/>
        <pt x="293" y="798" on="1"/>
        <pt x="368" y="860" on="0"/>
        <pt x="546" y="860" on="0"/>
        <pt x="642" y="765" on="0"/>
        <pt x="642" y="629" on="0"/>
        <pt x="559" y="500" on="0"/>
      </contour>
    </TTGlyph>
    <TTGlyph name="grave" xMin="88" yMin="619" xMax="352" yMax="867">
      <contour>
        <pt x="352" y="652" on="1"/>
        <pt x="350" y="641" on="0"/>
        <pt x="326" y="622" on="0"/>
        <pt x="310" y="619" on="1"/>
        <pt x="272" y="662" on="0"/>
        <pt x="151" y="743" on="0"/>
        <pt x="88" y="760" on="1"/>
        <pt x="91" y="829" on="0"/>
        <pt x="151" y="867" on="1"/>
        <pt x="207" y="844" on="0"/>
        <pt x="325" y="713" on="0"/>
      </contour>
    </TTGlyph>
    <TTGlyph name="greater" xMin="70" yMin="96" xMax="550" yMax="640">
      <contour>
        <pt x="530" y="313" on="1"/>
        <pt x="460" y="279" on="0"/>
        <pt x="294" y="164" on="0"/>
        <pt x="182" y="96" on="0"/>
        <pt x="142" y="96" on="1"/>
        <pt x="92" y="96" on="0"/>
        <pt x="70" y="195" on="1"/>
        <pt x="135" y="219" on="0"/>
        <pt x="361" y="354" on="0"/>
        <pt x="390" y="368" on="1"/>
        <pt x="362" y="382" on="0"/>
        <pt x="133" y="519" on="0"/>
        <pt x="70" y="541" on="1"/>
        <pt x="92" y="640" on="0"/>
        <pt x="142" y="640" on="1"/>
        <pt x="182" y="640" on="0"/>
        <pt x="294" y="572" on="0"/>
        <pt x="460" y="457" on="0"/>
        <pt x="530" y="423" on="1"/>
        <pt x="550" y="395" on="0"/>
        <pt x="550" y="335" on="0"/>
      </contour>
    </TTGlyph>
    <TTGlyph name="greaterequal" xMin="45" yMin="-86" xMax="575" yMax="640">
      <contour>
        <pt x="530" y="313" on="1"/>
        <pt x="460" y="279" on="0"/>
        <pt x="294" y="164" on="0"/>
        <pt x="182" y="96" on="0"/>
        <pt x="142" y="96" on="1"/>
        <pt x="92" y="96" on="0"/>
        <pt x="70" y="195" on="1"/>
        <pt x="135" y="219" on="0"/>
        <pt x="361" y="354" on="0"/>
        <pt x="390" y="368" on="1"/>
        <pt x="362" y="382" on="0"/>
        <pt x="133" y="519" on="0"/>
        <pt x="70" y="541" on="1"/>
        <pt x="92" y="640" on="0"/>
        <pt x="142" y="640" on="1"/>
        <pt x="182" y="640" on="0"/>
        <pt x="294" y="572" on="0"/>
        <pt x="460" y="457" on="0"/>
        <pt x="530" y="423" on="1"/>
        <pt x="550" y="395" on="0"/>
        <pt x="550" y="335" on="0"/>
      </contour>
      <contour>
        <pt x="251" y="35" on="0"/>
        <pt x="414" y="49" on="0"/>
        <pt x="531" y="49" on="0"/>
        <pt x="575" y="-6" on="0"/>
        <pt x="575" y="-60" on="1"/>
        <pt x="575" y="-64" on="0"/>
        <pt x="574" y="-79" on="0"/>
        <pt x="574" y="-83" on="1"/>
        <pt x="493" y="-72" on="0"/>
        <pt x="369" y="-72" on="0"/>
        <pt x="206" y="-86" on="0"/>
        <pt x="89" y="-86" on="0"/>
        <pt x="45" y="-31" on="0"/>
        <pt x="45" y="23" on="1"/>
        <pt x="45" y="27" on="0"/>
        <pt x="46" y="42" on="0"/>
        <pt x="46" y="46" on="1"/>
        <pt x="127" y="35" on="0"/>
      </contour>
    </TTGlyph>
    <TTGlyph name="guillemotleft" xMin="60" yMin="60" xMax="608" yMax="574">
      <contour>
        <pt x="60" y="307" on="1"/>
        <pt x="63" y="327" on="1"/>
        <pt x="98" y="343" on="0"/>
        <pt x="142" y="428" on="1"/>
        <pt x="159" y="463" on="0"/>
        <pt x="178" y="496" on="1"/>
        <pt x="220" y="574" on="0"/>
        <pt x="307" y="574" on="0"/>
        <pt x="367" y="519" on="1"/>
        <pt x="337" y="509" on="0"/>
        <pt x="278" y="443" on="0"/>
        <pt x="205" y="335" on="0"/>
        <pt x="191" y="317" on="1"/>
        <pt x="202" y="298" on="0"/>
        <pt x="252" y="191" on="0"/>
        <pt x="297" y="125" on="0"/>
        <pt x="324" y="115" on="1"/>
        <pt x="252" y="60" on="0"/>
        <pt x="209" y="60" on="1"/>
        <pt x="181" y="60" on="0"/>
        <pt x="139" y="128" on="0"/>
        <pt x="118" y="213" on="0"/>
        <pt x="82" y="296" on="0"/>
      </contour>
      <contour>
        <pt x="301" y="307" on="1"/>
        <pt x="304" y="327" on="1"/>
        <pt x="347" y="347" on="0"/>
        <pt x="400" y="464" on="1"/>
        <pt x="420" y="506" on="0"/>
        <pt x="477" y="574" on="0"/>
        <pt x="505" y="574" on="1"/>
        <pt x="548" y="574" on="0"/>
        <pt x="608" y="519" on="1"/>
        <pt x="578" y="509" on="0"/>
        <pt x="519" y="443" on="0"/>
        <pt x="446" y="335" on="0"/>
        <pt x="432" y="317" on="1"/>
        <pt x="443" y="298" on="0"/>
        <pt x="493" y="191" on="0"/>
        <pt x="538" y="125" on="0"/>
        <pt x="565" y="115" on="1"/>
        <pt x="493" y="60" on="0"/>
        <pt x="450" y="60" on="1"/>
        <pt x="422" y="60" on="0"/>
        <pt x="380" y="128" on="0"/>
        <pt x="359" y="213" on="0"/>
        <pt x="323" y="296" on="0"/>
      </contour>
    </TTGlyph>
    <TTGlyph name="guillemotright" xMin="30" yMin="59" xMax="578" yMax="574">
      <contour>
        <pt x="578" y="327" on="1"/>
        <pt x="575" y="307" on="1"/>
        <pt x="540" y="291" on="0"/>
        <pt x="496" y="206" on="1"/>
        <pt x="479" y="171" on="0"/>
        <pt x="460" y="138" on="1"/>
        <pt x="418" y="60" on="0"/>
        <pt x="331" y="60" on="0"/>
        <pt x="271" y="115" on="1"/>
        <pt x="301" y="125" on="0"/>
        <pt x="360" y="191" on="0"/>
        <pt x="433" y="299" on="0"/>
        <pt x="447" y="317" on="1"/>
        <pt x="436" y="336" on="0"/>
        <pt x="386" y="443" on="0"/>
        <pt x="341" y="509" on="0"/>
        <pt x="314" y="519" on="1"/>
        <pt x="386" y="574" on="0"/>
        <pt x="429" y="574" on="1"/>
        <pt x="457" y="574" on="0"/>
        <pt x="499" y="506" on="0"/>
        <pt x="520" y="421" on="0"/>
        <pt x="556" y="338" on="0"/>
      </contour>
      <contour>
        <pt x="337" y="327" on="1"/>
        <pt x="334" y="307" on="1"/>
        <pt x="291" y="287" on="0"/>
        <pt x="238" y="170" on="1"/>
        <pt x="218" y="128" on="0"/>
        <pt x="161" y="60" on="0"/>
        <pt x="133" y="60" on="1"/>
        <pt x="90" y="60" on="0"/>
        <pt x="30" y="115" on="1"/>
        <pt x="60" y="125" on="0"/>
        <pt x="119" y="191" on="0"/>
        <pt x="192" y="299" on="0"/>
        <pt x="206" y="317" on="1"/>
        <pt x="195" y="336" on="0"/>
        <pt x="145" y="443" on="0"/>
        <pt x="100" y="509" on="0"/>
        <pt x="73" y="519" on="1"/>
        <pt x="145" y="574" on="0"/>
        <pt x="188" y="574" on="1"/>
        <pt x="216" y="574" on="0"/>
        <pt x="258" y="506" on="0"/>
        <pt x="279" y="421" on="0"/>
        <pt x="315" y="338" on="0"/>
      </contour>
    </TTGlyph>
    <TTGlyph name="guilsinglleft" xMin="60" yMin="60" xMax="367" yMax="574">
      <contour>
        <pt x="60" y="307" on="1"/>
        <pt x="63" y="327" on="1"/>
        <pt x="98" y="343" on="0"/>
        <pt x="142" y="428" on="1"/>
        <pt x="159" y="463" on="0"/>
        <pt x="178" y="496" on="1"/>
        <pt x="220" y="574" on="0"/>
        <pt x="307" y="574" on="0"/>
        <pt x="367" y="519" on="1"/>
        <pt x="337" y="509" on="0"/>
        <pt x="278" y="443" on="0"/>
        <pt x="205" y="335" on="0"/>
        <pt x="191" y="317" on="1"/>
        <pt x="202" y="298" on="0"/>
        <pt x="252" y="191" on="0"/>
        <pt x="297" y="125" on="0"/>
        <pt x="324" y="115" on="1"/>
        <pt x="252" y="60" on="0"/>
        <pt x="209" y="60" on="1"/>
        <pt x="181" y="60" on="0"/>
        <pt x="139" y="128" on="0"/>
        <pt x="118" y="213" on="0"/>
        <pt x="82" y="296" on="0"/>
      </contour>
    </TTGlyph>
    <TTGlyph name="guilsinglright" xMin="30" yMin="60" xMax="337" yMax="574">
      <contour>
        <pt x="337" y="327" on="1"/>
        <pt x="334" y="307" on="1"/>
        <pt x="299" y="291" on="0"/>
        <pt x="256" y="206" on="1"/>
        <pt x="238" y="171" on="0"/>
        <pt x="220" y="138" on="1"/>
        <pt x="177" y="60" on="0"/>
        <pt x="90" y="60" on="0"/>
        <pt x="30" y="115" on="1"/>
        <pt x="60" y="125" on="0"/>
        <pt x="119" y="191" on="0"/>
        <pt x="192" y="299" on="0"/>
        <pt x="206" y="317" on="1"/>
        <pt x="195" y="336" on="0"/>
        <pt x="145" y="443" on="0"/>
        <pt x="100" y="509" on="0"/>
        <pt x="73" y="519" on="1"/>
        <pt x="145" y="574" on="0"/>
        <pt x="188" y="574" on="1"/>
        <pt x="216" y="574" on="0"/>
        <pt x="258" y="506" on="0"/>
        <pt x="279" y="421" on="0"/>
        <pt x="315" y="338" on="0"/>
      </contour>
    </TTGlyph>
    <TTGlyph name="h" xMin="65" yMin="-15" xMax="571" yMax="926">
      <contour>
        <pt x="208" y="309" on="1"/>
        <pt x="241" y="422" on="0"/>
        <pt x="381" y="577" on="0"/>
        <pt x="502" y="577" on="0"/>
        <pt x="553" y="504" on="0"/>
        <pt x="553" y="379" on="0"/>
        <pt x="514" y="153" on="0"/>
        <pt x="514" y="50" on="0"/>
        <pt x="540" y="3" on="0"/>
        <pt x="571" y="-14" on="1"/>
        <pt x="558" y="-15" on="0"/>
        <pt x="534" y="-15" on="1"/>
        <pt x="450" y="-15" on="0"/>
        <pt x="379" y="37" on="0"/>
        <pt x="379" y="102" on="1"/>
        <pt x="379" y="139" on="0"/>
        <pt x="419" y="354" on="0"/>
        <pt x="419" y="407" on="1"/>
        <pt x="419" y="473" on="0"/>
        <pt x="379" y="473" on="1"/>
        <pt x="355" y="473" on="0"/>
        <pt x="297" y="419" on="0"/>
        <pt x="244" y="326" on="0"/>
        <pt x="208" y="180" on="0"/>
        <pt x="208" y="35" on="0"/>
        <pt x="214" y="0" on="1"/>
        <pt x="182" y="-2" on="0"/>
        <pt x="172" y="-2" on="1"/>
        <pt x="115" y="-2" on="0"/>
        <pt x="65" y="37" on="0"/>
        <pt x="65" y="123" on="0"/>
        <pt x="82" y="244" on="1"/>
        <pt x="136" y="616" on="0"/>
        <pt x="136" y="809" on="1"/>
        <pt x="136" y="896" on="0"/>
        <pt x="124" y="926" on="1"/>
        <pt x="199" y="906" on="0"/>
        <pt x="254" y="825" on="0"/>
        <pt x="254" y="751" on="1"/>
        <pt x="254" y="701" on="0"/>
        <pt x="215" y="381" on="0"/>
      </contour>
    </TTGlyph>
    <TTGlyph name="hungarumlaut" xMin="40" yMin="624" xMax="461" yMax="868">
      <contour>
        <pt x="70" y="624" on="1"/>
        <pt x="59" y="627" on="0"/>
        <pt x="41" y="653" on="0"/>
        <pt x="40" y="669" on="1"/>
        <pt x="83" y="701" on="0"/>
        <pt x="160" y="806" on="0"/>
        <pt x="181" y="868" on="1"/>
        <pt x="211" y="864" on="0"/>
        <pt x="251" y="838" on="0"/>
        <pt x="264" y="817" on="0"/>
        <pt x="271" y="799" on="1"/>
        <pt x="244" y="744" on="0"/>
        <pt x="129" y="646" on="0"/>
      </contour>
      <contour>
        <pt x="260" y="624" on="1"/>
        <pt x="249" y="627" on="0"/>
        <pt x="231" y="653" on="0"/>
        <pt x="230" y="669" on="1"/>
        <pt x="273" y="701" on="0"/>
        <pt x="350" y="806" on="0"/>
        <pt x="371" y="868" on="1"/>
        <pt x="401" y="864" on="0"/>
        <pt x="441" y="838" on="0"/>
        <pt x="454" y="817" on="0"/>
        <pt x="461" y="799" on="1"/>
        <pt x="434" y="744" on="0"/>
        <pt x="319" y="646" on="0"/>
      </contour>
    </TTGlyph>
    <TTGlyph name="hyphen" xMin="60" yMin="211" xMax="420" yMax="422">
      <contour>
        <pt x="189" y="385" on="1"/>
        <pt x="288" y="381" on="1"/>
        <pt x="377" y="381" on="0"/>
        <pt x="416" y="422" on="1"/>
        <pt x="420" y="401" on="0"/>
        <pt x="420" y="324" on="0"/>
        <pt x="382" y="263" on="0"/>
        <pt x="340" y="263" on="1"/>
        <pt x="225" y="263" on="0"/>
        <pt x="112" y="243" on="0"/>
        <pt x="61" y="211" on="1"/>
        <pt x="60" y="225" on="0"/>
        <pt x="60" y="260" on="1"/>
        <pt x="60" y="335" on="0"/>
        <pt x="125" y="385" on="0"/>
      </contour>
    </TTGlyph>
    <TTGlyph name="i" xMin="87" yMin="-15" xMax="287" yMax="814">
      <contour>
        <pt x="257" y="482" on="0"/>
        <pt x="208" y="197" on="0"/>
        <pt x="207" y="12" on="0"/>
        <pt x="219" y="-15" on="1"/>
        <pt x="141" y="5" on="0"/>
        <pt x="87" y="86" on="0"/>
        <pt x="87" y="164" on="1"/>
        <pt x="87" y="206" on="0"/>
        <pt x="119" y="426" on="0"/>
        <pt x="119" y="548" on="0"/>
        <pt x="113" y="581" on="1"/>
        <pt x="135" y="583" on="0"/>
        <pt x="154" y="583" on="1"/>
        <pt x="212" y="583" on="0"/>
        <pt x="257" y="544" on="0"/>
        <pt x="257" y="497" on="1"/>
      </contour>
      <contour>
        <pt x="272" y="671" on="1"/>
        <pt x="244" y="667" on="0"/>
        <pt x="223" y="667" on="1"/>
        <pt x="120" y="667" on="0"/>
        <pt x="120" y="739" on="1"/>
        <pt x="120" y="765" on="0"/>
        <pt x="135" y="810" on="1"/>
        <pt x="163" y="814" on="0"/>
        <pt x="184" y="814" on="1"/>
        <pt x="287" y="814" on="0"/>
        <pt x="287" y="742" on="1"/>
        <pt x="287" y="716" on="0"/>
      </contour>
    </TTGlyph>
    <TTGlyph name="iacute" xMin="74" yMin="-15" xMax="338" yMax="867">
      <contour>
        <pt x="257" y="482" on="0"/>
        <pt x="208" y="197" on="0"/>
        <pt x="207" y="12" on="0"/>
        <pt x="219" y="-15" on="1"/>
        <pt x="141" y="5" on="0"/>
        <pt x="87" y="86" on="0"/>
        <pt x="87" y="164" on="1"/>
        <pt x="87" y="206" on="0"/>
        <pt x="119" y="426" on="0"/>
        <pt x="119" y="548" on="0"/>
        <pt x="113" y="581" on="1"/>
        <pt x="135" y="583" on="0"/>
        <pt x="154" y="583" on="1"/>
        <pt x="212" y="583" on="0"/>
        <pt x="257" y="544" on="0"/>
        <pt x="257" y="497" on="1"/>
      </contour>
      <contour>
        <pt x="74" y="652" on="1"/>
        <pt x="101" y="713" on="0"/>
        <pt x="219" y="844" on="0"/>
        <pt x="275" y="867" on="1"/>
        <pt x="335" y="829" on="0"/>
        <pt x="338" y="760" on="1"/>
        <pt x="275" y="743" on="0"/>
        <pt x="154" y="662" on="0"/>
        <pt x="116" y="619" on="1"/>
        <pt x="100" y="622" on="0"/>
        <pt x="76" y="641" on="0"/>
      </contour>
    </TTGlyph>
    <TTGlyph name="icircumflex" xMin="24" yMin="-15" xMax="376" yMax="873">
      <component glyphName="dotlessi" x="0" y="0" flags="0x1004"/>
      <component glyphName="circumflex" x="-66" y="0" flags="0x1004"/>
    </TTGlyph>
    <TTGlyph name="idieresis" xMin="1" yMin="-15" xMax="378" yMax="814">
      <component glyphName="dotlessi" x="0" y="0" flags="0x1004"/>
      <component glyphName="dieresis" x="-64" y="0" flags="0x1004"/>
    </TTGlyph>
    <TTGlyph name="igrave" xMin="65" yMin="-15" xMax="329" yMax="867">
      <contour>
        <pt x="257" y="482" on="0"/>
        <pt x="208" y="197" on="0"/>
        <pt x="207" y="12" on="0"/>
        <pt x="219" y="-15" on="1"/>
        <pt x="141" y="5" on="0"/>
        <pt x="87" y="86" on="0"/>
        <pt x="87" y="164" on="1"/>
        <pt x="87" y="206" on="0"/>
        <pt x="119" y="426" on="0"/>
        <pt x="119" y="548" on="0"/>
        <pt x="113" y="581" on="1"/>
        <pt x="135" y="583" on="0"/>
        <pt x="154" y="583" on="1"/>
        <pt x="212" y="583" on="0"/>
        <pt x="257" y="544" on="0"/>
        <pt x="257" y="497" on="1"/>
      </contour>
      <contour>
        <pt x="329" y="652" on="1"/>
        <pt x="327" y="641" on="0"/>
        <pt x="303" y="622" on="0"/>
        <pt x="287" y="619" on="1"/>
        <pt x="249" y="662" on="0"/>
        <pt x="128" y="743" on="0"/>
        <pt x="65" y="760" on="1"/>
        <pt x="68" y="829" on="0"/>
        <pt x="128" y="867" on="1"/>
        <pt x="184" y="844" on="0"/>
        <pt x="302" y="713" on="0"/>
      </contour>
    </TTGlyph>
    <TTGlyph name="infinity" xMin="11" yMin="137" xMax="609" yMax="535">
      <contour>
        <pt x="11" y="443" on="0"/>
        <pt x="92" y="535" on="0"/>
        <pt x="188" y="535" on="0"/>
        <pt x="254" y="473" on="0"/>
        <pt x="295" y="413" on="1"/>
        <pt x="321" y="451" on="0"/>
        <pt x="360" y="496" on="0"/>
        <pt x="429" y="535" on="0"/>
        <pt x="469" y="535" on="1"/>
        <pt x="534" y="535" on="0"/>
        <pt x="609" y="424" on="0"/>
        <pt x="609" y="230" on="0"/>
        <pt x="528" y="137" on="0"/>
        <pt x="430" y="137" on="0"/>
        <pt x="363" y="198" on="0"/>
        <pt x="325" y="256" on="1"/>
        <pt x="284" y="199" on="0"/>
        <pt x="207" y="137" on="0"/>
        <pt x="86" y="137" on="0"/>
        <pt x="11" y="248" on="0"/>
      </contour>
      <contour>
        <pt x="141" y="284" on="1"/>
        <pt x="200" y="284" on="0"/>
        <pt x="253" y="354" on="1"/>
        <pt x="204" y="406" on="0"/>
        <pt x="155" y="406" on="1"/>
        <pt x="84" y="406" on="0"/>
        <pt x="84" y="344" on="1"/>
        <pt x="84" y="321" on="0"/>
        <pt x="116" y="284" on="0"/>
      </contour>
      <contour>
        <pt x="479" y="386" on="1"/>
        <pt x="419" y="386" on="0"/>
        <pt x="367" y="316" on="1"/>
        <pt x="416" y="264" on="0"/>
        <pt x="465" y="264" on="1"/>
        <pt x="536" y="264" on="0"/>
        <pt x="536" y="326" on="1"/>
        <pt x="536" y="349" on="0"/>
        <pt x="504" y="386" on="0"/>
      </contour>
    </TTGlyph>
    <TTGlyph name="integral" xMin="-105" yMin="-258" xMax="559" yMax="819">
      <contour>
        <pt x="230" y="-148" on="0"/>
        <pt x="130" y="-258" on="0"/>
        <pt x="-24" y="-258" on="0"/>
        <pt x="-105" y="-189" on="0"/>
        <pt x="-105" y="-97" on="0"/>
        <pt x="-41" y="-32" on="0"/>
        <pt x="12" y="-32" on="1"/>
        <pt x="33" y="-32" on="0"/>
        <pt x="53" y="-39" on="1"/>
        <pt x="32" y="-53" on="0"/>
        <pt x="3" y="-102" on="0"/>
        <pt x="3" y="-149" on="0"/>
        <pt x="27" y="-180" on="0"/>
        <pt x="49" y="-180" on="1"/>
        <pt x="123" y="-180" on="0"/>
        <pt x="142" y="18" on="1"/>
        <pt x="151" y="106" on="0"/>
        <pt x="162" y="319" on="0"/>
        <pt x="186" y="533" on="0"/>
        <pt x="230" y="709" on="0"/>
        <pt x="329" y="819" on="0"/>
        <pt x="479" y="819" on="0"/>
        <pt x="559" y="750" on="0"/>
        <pt x="559" y="658" on="0"/>
        <pt x="495" y="593" on="0"/>
        <pt x="442" y="593" on="1"/>
        <pt x="421" y="593" on="0"/>
        <pt x="401" y="600" on="1"/>
        <pt x="422" y="614" on="0"/>
        <pt x="451" y="663" on="0"/>
        <pt x="451" y="710" on="0"/>
        <pt x="427" y="741" on="0"/>
        <pt x="405" y="741" on="1"/>
        <pt x="332" y="741" on="0"/>
        <pt x="314" y="543" on="1"/>
        <pt x="306" y="455" on="0"/>
        <pt x="298" y="242" on="0"/>
        <pt x="275" y="28" on="0"/>
      </contour>
    </TTGlyph>
    <TTGlyph name="j" xMin="-220" yMin="-334" xMax="269" yMax="815">
      <contour>
        <pt x="203" y="583" on="0"/>
        <pt x="248" y="547" on="0"/>
        <pt x="248" y="440" on="0"/>
        <pt x="242" y="311" on="0"/>
        <pt x="224" y="140" on="0"/>
        <pt x="195" y="-10" on="0"/>
        <pt x="143" y="-160" on="0"/>
        <pt x="76" y="-267" on="0"/>
        <pt x="-26" y="-334" on="0"/>
        <pt x="-143" y="-334" on="0"/>
        <pt x="-220" y="-267" on="0"/>
        <pt x="-220" y="-170" on="0"/>
        <pt x="-154" y="-98" on="0"/>
        <pt x="-100" y="-98" on="1"/>
        <pt x="-79" y="-98" on="0"/>
        <pt x="-59" y="-105" on="1"/>
        <pt x="-75" y="-117" on="0"/>
        <pt x="-106" y="-177" on="0"/>
        <pt x="-106" y="-230" on="0"/>
        <pt x="-83" y="-260" on="0"/>
        <pt x="-64" y="-260" on="1"/>
        <pt x="-16" y="-260" on="0"/>
        <pt x="56" y="-134" on="0"/>
        <pt x="74" y="-30" on="1"/>
        <pt x="109" y="172" on="0"/>
        <pt x="109" y="412" on="1"/>
        <pt x="109" y="516" on="0"/>
        <pt x="105" y="581" on="1"/>
        <pt x="127" y="583" on="0"/>
        <pt x="148" y="583" on="1"/>
      </contour>
      <contour>
        <pt x="254" y="672" on="1"/>
        <pt x="226" y="668" on="0"/>
        <pt x="205" y="668" on="1"/>
        <pt x="102" y="668" on="0"/>
        <pt x="102" y="740" on="1"/>
        <pt x="102" y="766" on="0"/>
        <pt x="117" y="811" on="1"/>
        <pt x="145" y="815" on="0"/>
        <pt x="166" y="815" on="1"/>
        <pt x="269" y="815" on="0"/>
        <pt x="269" y="743" on="1"/>
        <pt x="269" y="717" on="0"/>
      </contour>
    </TTGlyph>
    <TTGlyph name="k" xMin="60" yMin="-120" xMax="611" yMax="926">
      <contour>
        <pt x="203" y="309" on="1"/>
        <pt x="239" y="514" on="0"/>
        <pt x="350" y="566" on="1"/>
        <pt x="378" y="579" on="0"/>
        <pt x="405" y="579" on="1"/>
        <pt x="458" y="579" on="0"/>
        <pt x="532" y="501" on="0"/>
        <pt x="532" y="379" on="0"/>
        <pt x="463" y="292" on="0"/>
        <pt x="401" y="268" on="1"/>
        <pt x="413" y="231" on="1"/>
        <pt x="446" y="128" on="0"/>
        <pt x="572" y="-74" on="0"/>
        <pt x="611" y="-111" on="1"/>
        <pt x="575" y="-120" on="0"/>
        <pt x="547" y="-120" on="1"/>
        <pt x="446" y="-120" on="0"/>
        <pt x="370" y="27" on="1"/>
        <pt x="340" y="85" on="0"/>
        <pt x="282" y="244" on="1"/>
        <pt x="269" y="243" on="0"/>
        <pt x="244" y="243" on="1"/>
        <pt x="238" y="248" on="0"/>
        <pt x="238" y="275" on="1"/>
        <pt x="284" y="276" on="0"/>
        <pt x="356" y="306" on="0"/>
        <pt x="376" y="330" on="1"/>
        <pt x="414" y="379" on="0"/>
        <pt x="414" y="433" on="1"/>
        <pt x="414" y="460" on="0"/>
        <pt x="391" y="495" on="0"/>
        <pt x="370" y="495" on="1"/>
        <pt x="333" y="495" on="0"/>
        <pt x="256" y="389" on="0"/>
        <pt x="203" y="200" on="0"/>
        <pt x="203" y="35" on="0"/>
        <pt x="209" y="0" on="1"/>
        <pt x="177" y="-2" on="0"/>
        <pt x="167" y="-2" on="1"/>
        <pt x="110" y="-2" on="0"/>
        <pt x="60" y="37" on="0"/>
        <pt x="60" y="123" on="0"/>
        <pt x="78" y="244" on="1"/>
        <pt x="131" y="616" on="0"/>
        <pt x="131" y="809" on="1"/>
        <pt x="131" y="896" on="0"/>
        <pt x="119" y="926" on="1"/>
        <pt x="194" y="906" on="0"/>
        <pt x="249" y="825" on="0"/>
        <pt x="249" y="751" on="1"/>
        <pt x="249" y="701" on="0"/>
        <pt x="210" y="381" on="0"/>
      </contour>
    </TTGlyph>
    <TTGlyph name="l" xMin="67" yMin="-15" xMax="252" yMax="926">
      <contour>
        <pt x="73" y="45" on="0"/>
        <pt x="67" y="82" on="0"/>
        <pt x="67" y="160" on="0"/>
        <pt x="134" y="696" on="0"/>
        <pt x="134" y="896" on="0"/>
        <pt x="122" y="926" on="1"/>
        <pt x="197" y="906" on="0"/>
        <pt x="252" y="825" on="0"/>
        <pt x="252" y="751" on="1"/>
        <pt x="252" y="707" on="0"/>
        <pt x="194" y="223" on="0"/>
        <pt x="194" y="75" on="1"/>
        <pt x="194" y="43" on="0"/>
        <pt x="198" y="-15" on="1"/>
        <pt x="107" y="-11" on="0"/>
        <pt x="85" y="25" on="1"/>
      </contour>
    </TTGlyph>
</ttFont>
